<?xml version="1.0" encoding="UTF-8"?>
<!-- Created with Inkscape (http://www.inkscape.org/) -->
<svg id="svg6530" width="24" height="24" version="1.1" viewBox="0 0 24 24" xmlns="http://www.w3.org/2000/svg" xmlns:cc="http://creativecommons.org/ns#" xmlns:dc="http://purl.org/dc/elements/1.1/" xmlns:rdf="http://www.w3.org/1999/02/22-rdf-syntax-ns#">
 <metadata id="metadata6535">
  <rdf:RDF>
   <cc:Work rdf:about="">
    <dc:format>image/svg+xml</dc:format>
    <dc:type rdf:resource="http://purl.org/dc/dcmitype/StillImage"/>
    <dc:title/>
   </cc:Work>
  </rdf:RDF>
 </metadata>
 <g id="layer1" transform="translate(-32 -516.36)">
  <path id="path10864" d="m38.5 520.36c-0.277 0-0.5 0.22301-0.5 0.50001v0.5l-2-2e-3v-2.6e-4l-1.5e-5 14.502c0 0.277 0.223 0.5 0.5 0.5h6c0.277 0 0.5-0.223 0.5-0.5l1.5e-5 -14.501-0.50002 2e-3h-1.5v-0.5c0-0.277-0.223-0.50001-0.5-0.50001z" style="color:#bebebe;fill:#dbdee0"/>
  <path id="rect2397" d="m46 521.36c-0.554 0-1 0.446-1 1v13c0 0.554 0.446 1 1 1h5c0.554 0 1-0.446 1-1v-13c0-0.554-0.446-1-1-1h-5zm0 3h1v1h-1v-1zm2 0h1v1h-1v-1zm2 1h1v7h-1v-7zm-4 1h1v1h-1v-1zm2 0h1v1h-1v-1zm-2 2h1v1h-1v-1zm2 0h1v1h-1v-1zm-2 2h1v1h-1v-1zm2 0h1v1h-1v-1zm-2 2h1v1h-1v-1zm2 0h1v1h-1v-1z" style="fill-rule:evenodd;fill:#dbdee0"/>
 </g>
</svg>
