<?xml version="1.0" encoding="UTF-8"?>
<!-- Created with Inkscape (http://www.inkscape.org/) -->
<svg id="svg6530" width="24" height="24" version="1.1" viewBox="0 0 24 24" xmlns="http://www.w3.org/2000/svg" xmlns:cc="http://creativecommons.org/ns#" xmlns:dc="http://purl.org/dc/elements/1.1/" xmlns:rdf="http://www.w3.org/1999/02/22-rdf-syntax-ns#">
 <metadata id="metadata6535">
  <rdf:RDF>
   <cc:Work rdf:about="">
    <dc:format>image/svg+xml</dc:format>
    <dc:type rdf:resource="http://purl.org/dc/dcmitype/StillImage"/>
    <dc:title/>
   </cc:Work>
  </rdf:RDF>
 </metadata>
 <g id="layer1" transform="translate(-320 -884.36)">
  <path id="path5343" d="m328.5 888.27c-2.4853 0-4.5 2.0147-4.5 4.5 2e-3 0.79285 0.21369 1.5711 0.61328 2.2559-0.0723 0.41084-0.11019 0.827-0.11328 1.2441 0 4.1421 3.3579 7.5 7.5 7.5 0.41888-1.9e-4 0.83701-0.0355 1.25-0.10547 0.68384 0.39586 1.4598 0.60468 2.25 0.60547 2.4853 0 4.5-2.0147 4.5-4.5-2e-3 -0.79285-0.21369-1.5711-0.61328-2.2559 0.0723-0.41084 0.11019-0.827 0.11328-1.2441 0-4.1421-3.3579-7.5-7.5-7.5-0.41888 1.8e-4 -0.83701 0.0355-1.25 0.10546-0.68384-0.39584-1.4598-0.60468-2.25-0.60546zm3.5 3.0898a1 1 0 0 1 1 1 1 1 0 0 1-1 1 3 3 0 0 0-3 3h1l-2 3-2-3h1a5 5 0 0 1 4.9062-4.9961 1 1 0 0 1 0.0937-4e-3zm4 2 2 3h-1a5 5 0 0 1-4.9062 4.9961 1 1 0 0 1-0.0937 4e-3 1 1 0 0 1-1-1 1 1 0 0 1 1-1 3 3 0 0 0 3-3h-1l2-3z" style="fill:#dbdee0"/>
 </g>
</svg>
