<?xml version="1.0" encoding="UTF-8"?>
<!-- Created with Inkscape (http://www.inkscape.org/) -->
<svg id="svg6530" width="24" height="24" version="1.1" viewBox="0 0 24 24" xmlns="http://www.w3.org/2000/svg" xmlns:cc="http://creativecommons.org/ns#" xmlns:dc="http://purl.org/dc/elements/1.1/" xmlns:rdf="http://www.w3.org/1999/02/22-rdf-syntax-ns#">
 <metadata id="metadata6535">
  <rdf:RDF>
   <cc:Work rdf:about="">
    <dc:format>image/svg+xml</dc:format>
    <dc:type rdf:resource="http://purl.org/dc/dcmitype/StillImage"/>
    <dc:title/>
   </cc:Work>
  </rdf:RDF>
 </metadata>
 <g id="layer1" transform="translate(-272 -908.36)">
  <path id="path5192" d="m280.5 912.36c-2.4853 0-4.5 2.0147-4.5 4.5 2e-3 0.79285 0.21369 1.5711 0.61328 2.2559-0.0723 0.41084-0.11019 0.827-0.11328 1.2441 0 4.1421 3.3579 7.5 7.5 7.5 0.41888-1.9e-4 0.83701-0.0355 1.25-0.10547 0.68384 0.39586 1.4598 0.60468 2.25 0.60547 2.4853 0 4.5-2.0147 4.5-4.5-2e-3 -0.79285-0.21369-1.5711-0.61328-2.2559 0.0723-0.41084 0.11019-0.827 0.11328-1.2441 0-4.1421-3.3579-7.5-7.5-7.5-0.41888 1.8e-4 -0.83701 0.0355-1.25 0.10546-0.68384-0.39584-1.4598-0.60468-2.25-0.60546zm1.207 4.3828 2.293 2.293 2.293-2.293 1.4141 1.4141-2.293 2.293 2.293 2.293-1.4141 1.4141-2.293-2.293-2.293 2.293-1.4141-1.4141 2.293-2.293-2.293-2.293 1.4141-1.4141z" style="fill:#03a9f4;opacity:.35"/>
 </g>
</svg>
