<?xml version="1.0" encoding="UTF-8"?>
<!-- Created with Inkscape (http://www.inkscape.org/) -->
<svg id="svg6530" width="24" height="24" version="1.1" viewBox="0 0 24 24" xmlns="http://www.w3.org/2000/svg" xmlns:cc="http://creativecommons.org/ns#" xmlns:dc="http://purl.org/dc/elements/1.1/" xmlns:rdf="http://www.w3.org/1999/02/22-rdf-syntax-ns#">
 <metadata id="metadata6535">
  <rdf:RDF>
   <cc:Work rdf:about="">
    <dc:format>image/svg+xml</dc:format>
    <dc:type rdf:resource="http://purl.org/dc/dcmitype/StillImage"/>
    <dc:title/>
   </cc:Work>
  </rdf:RDF>
 </metadata>
 <g id="layer1" transform="translate(-104 -756.36)">
  <circle id="circle5122" transform="matrix(.93969 .34202 -.34202 .93969 0 0)" cx="371.8" cy="682.35" r="7" style="color:#bebebe;opacity:0"/>
  <path id="path5124-3" d="m115.75 761.39c-2.7628 0.10144-5.3087 1.8046-6.3125 4.5625-0.52422 1.4403-0.54381 2.9419-0.1582 4.3164 0.40371-1.318 1.4844-2.3336 2.8379-2.6836 0.17005-0.29023 0.37155-0.55965 0.58984-0.8125 0.0105-0.71024 0.13038-1.4285 0.38672-2.1328 0.51416-1.4126 1.4744-2.5084 2.6562-3.25zm-2.543 7.9805-0.40625 0.0605c-0.96947 0.14412-1.7012 0.94816-1.7012 1.9629 0 1.1164 0.88359 2 2 2h6.375c0.18615 0 0.35995-0.0382 0.52539-0.0937-0.99274 0.13004-2.0272 0.049-3.0312-0.31641-1.7757-0.64629-3.0886-1.994-3.7617-3.6133z" style="color:#bebebe;fill:#dbdee0"/>
  <path id="path5884-3" d="m116.1 766.15c-1.5533 0-2.876 0.95094-3.4453 2.2969-1.4459 0.21495-2.5547 1.4474-2.5547 2.9531 0 1.6569 1.3431 3 3 3h6.375c1.4498 0 2.625-1.1752 2.625-2.625 0-1.3474-1.0131-2.4515-2.3203-2.6016-0.34093-1.72-1.8595-3.0234-3.6797-3.0234z" style="enable-background:new;fill:#dbdee0"/>
 </g>
</svg>
