<?xml version="1.0" encoding="UTF-8"?>
<!-- Created with Inkscape (http://www.inkscape.org/) -->
<svg id="svg6530" width="24" height="24" version="1.1" viewBox="0 0 24 24" xmlns="http://www.w3.org/2000/svg" xmlns:cc="http://creativecommons.org/ns#" xmlns:dc="http://purl.org/dc/elements/1.1/" xmlns:rdf="http://www.w3.org/1999/02/22-rdf-syntax-ns#">
 <metadata id="metadata6535">
  <rdf:RDF>
   <cc:Work rdf:about="">
    <dc:format>image/svg+xml</dc:format>
    <dc:type rdf:resource="http://purl.org/dc/dcmitype/StillImage"/>
    <dc:title/>
   </cc:Work>
  </rdf:RDF>
 </metadata>
 <g id="layer1" transform="translate(-176 -756.36)">
  <path id="path6240" d="m187.75 761.4c-2.7628 0.10144-5.3087 1.8046-6.3125 4.5625-1.2638 3.4723 0.36867 7.3246 3.6875 8.8125-0.0932-0.33746-0.14688-0.70692-0.125-1.0625 0.0277-1.0012 0.58397-1.8874 1.375-2.4688-1.5669-1.7332-2.1356-4.2465-1.2812-6.5938 0.51416-1.4126 1.4744-2.5084 2.6562-3.25zm0.1875 11.125c-0.41706 0.17181-0.75796 0.48646-0.875 0.9375-0.26517 0.82497 0.3356 1.7545 1.1875 1.875 1.796-0.074 3.4995-0.81062 4.75-2.0938v-0.15625c-1.2809 0.37459-2.6817 0.39743-4.0312-0.0937-0.362-0.13176-0.70874-0.28264-1.0312-0.46875z" style="color:#bebebe;fill:#dbdee0"/>
  <circle id="path6317" transform="matrix(.93969 .34202 -.34202 .93969 0 0)" cx="439.46" cy="657.73" r="7" style="color:#bebebe;opacity:0"/>
  <path id="path6258" d="m191 769.37c-1.3117 0-2.4048 0.85843-2.8125 2.0312-1.2308 0.15597-2.1875 1.1956-2.1875 2.4688 0 1.3807 1.1193 2.5 2.5 2.5h5.5c1.1046 0 2-0.89543 2-2s-0.89543-2-2-2c0-1.6568-1.3432-3-3-3z" style="fill:#dbdee0"/>
 </g>
</svg>
