<?xml version="1.0" encoding="UTF-8"?>
<!-- Created with Inkscape (http://www.inkscape.org/) -->
<svg id="svg6530" width="24" height="24" version="1.1" viewBox="0 0 24 24" xmlns="http://www.w3.org/2000/svg" xmlns:cc="http://creativecommons.org/ns#" xmlns:dc="http://purl.org/dc/elements/1.1/" xmlns:rdf="http://www.w3.org/1999/02/22-rdf-syntax-ns#">
 <metadata id="metadata6535">
  <rdf:RDF>
   <cc:Work rdf:about="">
    <dc:format>image/svg+xml</dc:format>
    <dc:type rdf:resource="http://purl.org/dc/dcmitype/StillImage"/>
    <dc:title/>
   </cc:Work>
  </rdf:RDF>
 </metadata>
 <g id="layer1" transform="translate(-128 -780.36)">
  <path id="path6162" d="m140 784.36c-2.0711 0-3.8347 1.2679-4.5938 3.0625-1.9278 0.2866-3.4062 1.9299-3.4062 3.9375 0 2.2091 1.7909 4 4 4h2v-2.5c0-0.831 0.669-1.5 1.5-1.5s1.5 0.669 1.5 1.5v2.5h3.5c1.933 0 3.5-1.567 3.5-3.5 0-1.7965-1.3508-3.2687-3.0938-3.4688-0.45457-2.2934-2.4794-4.0312-4.9062-4.0312z" style="fill:#dbdee0"/>
  <path id="path7353" d="m139.34 792.36c-0.20652 0.0677-0.35453 0.28294-0.34375 0.5v3.7809c-0.0134 0.0301-0.0239 0.0615-0.0312 0.0937l-0.625 0.625h-0.0312-1.8125-0.21875l-0.125 0.15625-1 1c-0.25698 0.15718-0.30568 0.56716-0.0927 0.78017 0.21301 0.21301 0.62299 0.16431 0.78017-0.0927l0.84365-0.8437h1.3125v1.5c-4e-3 0.26416 0.23582 0.50712 0.5 0.50712s0.50374-0.24296 0.5-0.50712v-1.8125l0.6875-0.6875h2.125l0.75 0.75-1.4062 1.4062c-0.25698 0.15718-0.30568 0.56716-0.0927 0.78017 0.21301 0.21301 0.62299 0.16431 0.78017-0.0927l1.4062-1.4062 1.4062 1.4062c0.15718 0.25698 0.56716 0.30568 0.78017 0.0927 0.21301-0.21301 0.16431-0.62299-0.0927-0.78017l-3-3-0.125-0.15625h-0.21875-2v-3.4996c5e-3 -0.29617-0.30279-0.55555-0.59375-0.5-0.0208-1e-3 -0.0417-1e-3 -0.0625 0z" style="block-progression:tb;color:#000000;fill:#dbdee0;text-decoration-line:none;text-indent:0;text-transform:none"/>
 </g>
</svg>
