<?xml version="1.0" encoding="UTF-8"?>
<!-- Created with Inkscape (http://www.inkscape.org/) -->
<svg id="svg6530" width="22" height="22" version="1.1" viewBox="0 0 22 22" xmlns="http://www.w3.org/2000/svg" xmlns:cc="http://creativecommons.org/ns#" xmlns:dc="http://purl.org/dc/elements/1.1/" xmlns:rdf="http://www.w3.org/1999/02/22-rdf-syntax-ns#" xmlns:xlink="http://www.w3.org/1999/xlink">
 <defs id="defs6532">
  <linearGradient id="linearGradient3816" x1="5.875" x2="3.875" y1="31.125" y2="4.125" gradientTransform="matrix(-.86603 -.5 -.5 .86603 500.35 375.44)" gradientUnits="userSpaceOnUse">
   <stop id="stop3770" style="stop-color:#dbdee0" offset="0"/>
   <stop id="stop3772" style="stop-color:#dbdee0;stop-opacity:0" offset="1"/>
  </linearGradient>
  <linearGradient id="linearGradient3819" x1="12" x2="23" y1="6" y2="10" gradientTransform="matrix(.86603 .5 -.5 .86603 479.61 363.61)" gradientUnits="userSpaceOnUse">
   <stop id="stop4949" style="stop-color:#dbdee0" offset="0"/>
   <stop id="stop4951" style="stop-color:#dbdee0;stop-opacity:0" offset="1"/>
  </linearGradient>
 </defs>
 <metadata id="metadata6535">
  <rdf:RDF>
   <cc:Work rdf:about="">
    <dc:format>image/svg+xml</dc:format>
    <dc:type rdf:resource="http://purl.org/dc/dcmitype/StillImage"/>
    <dc:title/>
   </cc:Work>
  </rdf:RDF>
 </metadata>
 <g id="layer2" transform="translate(-473 -369)">
  <path id="path4957" d="m488 373.07c-3.8161-2.2032-8.725-0.88788-10.928 2.9282-2.2032 3.8161-0.88788 8.725 2.9282 10.928l1-1.732c-2.88-1.6628-3.8589-5.3161-2.1962-8.1962 1.6628-2.88 5.3161-3.8589 8.1962-2.1962 0.47829 0.27614 1.0899 0.11226 1.366-0.36603 0.27615-0.47829 0.11227-1.0899-0.36602-1.366z" style="block-progression:tb;color:#000000;fill:url(#linearGradient3819);text-indent:0;text-transform:none"/>
  <path id="path4959" d="m488 373.07c3.8161 2.2032 5.1314 7.1121 2.9282 10.928-2.2032 3.8161-7.1121 5.1314-10.928 2.9282l1-1.732c2.88 1.6628 6.5334 0.68386 8.1962-2.1962 1.6628-2.88 0.68386-6.5334-2.1962-8.1962z" style="block-progression:tb;color:#000000;fill:url(#linearGradient3816);text-indent:0;text-transform:none"/>
  <rect id="rect4961" x="473" y="369" width="22" height="22" style="color:#bebebe;fill:none"/>
 </g>
</svg>
