<?xml version="1.0" encoding="utf-8"?>
<!-- Generator: Adobe Illustrator 21.0.0, SVG Export Plug-In . SVG Version: 6.00 Build 0)  -->
<svg version="1.1"
	 id="svg7384" xmlns:cc="http://creativecommons.org/ns#" xmlns:dc="http://purl.org/dc/elements/1.1/" xmlns:osb="http://www.openswatchbook.org/uri/2009/osb" xmlns:rdf="http://www.w3.org/1999/02/22-rdf-syntax-ns#"
	 xmlns="http://www.w3.org/2000/svg" xmlns:xlink="http://www.w3.org/1999/xlink" x="0px" y="0px" viewBox="0 0 16 16"
	 style="enable-background:new 0 0 16 16;" xml:space="preserve">
<style type="text/css">
	.st0{fill:#77777A;}
</style>
<title  id="title8473">Paper Symbolic Icon Theme</title>
<g>
	<g>
		<path class="st0" d="M8.5,0v5.3c0,1.3,1,2.2,2.2,2.2H16C12.5,6.4,9.6,3.5,8.5,0z"/>
		<path class="st0" d="M8.5,16v-5.4c0-1.1,1-2.1,2.1-2.1H16C12.5,9.6,9.6,12.5,8.5,16z"/>
		<path class="st0" d="M7.5,0v5.4c0,1.1-1,2.1-2.1,2.1H0C3.5,6.4,6.4,3.5,7.5,0z"/>
		<path class="st0" d="M7.5,16v-5.4c0-1.1-1-2.1-2.1-2.1H0C3.5,9.6,6.4,12.5,7.5,16z"/>
	</g>
</g>
</svg>
