<?xml version="1.0" encoding="UTF-8"?>
<!-- Created with Inkscape (http://www.inkscape.org/) -->
<svg id="svg7384" width="16" height="16" style="enable-background:new" version="1.1" xmlns="http://www.w3.org/2000/svg" xmlns:cc="http://creativecommons.org/ns#" xmlns:dc="http://purl.org/dc/elements/1.1/" xmlns:osb="http://www.openswatchbook.org/uri/2009/osb" xmlns:rdf="http://www.w3.org/1999/02/22-rdf-syntax-ns#">
 <metadata id="metadata90">
  <rdf:RDF>
   <cc:Work rdf:about="">
    <dc:format>image/svg+xml</dc:format>
    <dc:type rdf:resource="http://purl.org/dc/dcmitype/StillImage"/>
    <dc:title>Paper Symbolic Icon Theme</dc:title>
   </cc:Work>
  </rdf:RDF>
 </metadata>
 <title id="title8473">Paper Symbolic Icon Theme</title>
 <defs id="defs7386">
  <filter id="filter7554" color-interpolation-filters="sRGB">
   <feBlend id="feBlend7556" in2="BackgroundImage" mode="darken"/>
  </filter>
 </defs>
 <g id="layer14" transform="translate(-725 307)">
  <path id="path1234-2" d="m727-305c-0.52358 5e-5 -0.99995 0.47642-1 1v10c5e-5 0.52358 0.47642 0.99995 1 1h4l-2e-4 -1.9966h-3v-8h11v8h-2l2e-4 1.9966h3c0.51929 0 1-0.43513 1-1v-10c7.5e-4 -0.46663-0.43709-1.0002-1-1z" style="fill:#555"/>
  <path id="path4136-5" d="m733.72-300.99a3 3 0 0 0-2.7188 3.0625 3 3 0 0 0 6 0 3 3 0 0 0-3.2812-3.0625zm0.28125 1c1.1046 0 2 0.89543 2 2s-0.89544 2-2 2-2-0.89543-2-2 0.89543-2 2-2z" style="fill:#555"/>
  <path id="path3655-4-1" d="m732-296v5l1.2e-4 2e-5 2.0002-2 1.9998 2-1.3e-4 -2e-5v-5" style="fill-rule:evenodd;fill:#555"/>
 </g>
</svg>
