<?xml version="1.0" encoding="UTF-8"?>
<!-- Created with Inkscape (http://www.inkscape.org/) -->
<svg id="svg7384" width="16" height="16.003" style="enable-background:new" version="1.1" xmlns="http://www.w3.org/2000/svg" xmlns:cc="http://creativecommons.org/ns#" xmlns:dc="http://purl.org/dc/elements/1.1/" xmlns:osb="http://www.openswatchbook.org/uri/2009/osb" xmlns:rdf="http://www.w3.org/1999/02/22-rdf-syntax-ns#">
 <metadata id="metadata90">
  <rdf:RDF>
   <cc:Work rdf:about="">
    <dc:format>image/svg+xml</dc:format>
    <dc:type rdf:resource="http://purl.org/dc/dcmitype/StillImage"/>
    <dc:title>Paper Symbolic Icon Theme</dc:title>
   </cc:Work>
  </rdf:RDF>
 </metadata>
 <title id="title8473">Paper Symbolic Icon Theme</title>
 <defs id="defs7386">
  <filter id="filter7554" style="color-interpolation-filters:sRGB">
   <feBlend id="feBlend7556" in2="BackgroundImage" mode="darken"/>
  </filter>
 </defs>
 <g id="layer14" transform="translate(-685 311)">
  <path id="rect6613" d="m694-311c-1.6437 0-2.9978 1.3529-3 2.9961h2c2e-3 -0.56217 0.43722-0.99609 1-0.99609s0.99793 0.43392 1 0.99609h2c-2e-3 -1.6432-1.3563-2.9961-3-2.9961zm-3 3v8h2v-8h-2zm4 0v8.5c0 1.3926-1.1074 2.5-2.5 2.5s-2.5-1.1074-2.5-2.5v-7.5h-2v7.5c0 2.4734 2.0266 4.5 4.5 4.5s4.5-2.0266 4.5-4.5v-8.5h-2z" style="fill:#555"/>
 </g>
</svg>
