<?xml version="1.0" encoding="UTF-8"?>
<!-- Created with Inkscape (http://www.inkscape.org/) -->
<svg id="svg7384" width="16" height="16.066" style="enable-background:new" version="1.1" xmlns="http://www.w3.org/2000/svg" xmlns:cc="http://creativecommons.org/ns#" xmlns:dc="http://purl.org/dc/elements/1.1/" xmlns:osb="http://www.openswatchbook.org/uri/2009/osb" xmlns:rdf="http://www.w3.org/1999/02/22-rdf-syntax-ns#">
 <metadata id="metadata90">
  <rdf:RDF>
   <cc:Work rdf:about="">
    <dc:format>image/svg+xml</dc:format>
    <dc:type rdf:resource="http://purl.org/dc/dcmitype/StillImage"/>
    <dc:title>Paper Symbolic Icon Theme</dc:title>
    <cc:license rdf:resource="http://creativecommons.org/licenses/by-sa/3.0/"/>
   </cc:Work>
   <cc:License rdf:about="http://creativecommons.org/licenses/by-sa/3.0/">
    <cc:permits rdf:resource="http://creativecommons.org/ns#Reproduction"/>
    <cc:permits rdf:resource="http://creativecommons.org/ns#Distribution"/>
    <cc:requires rdf:resource="http://creativecommons.org/ns#Notice"/>
    <cc:requires rdf:resource="http://creativecommons.org/ns#Attribution"/>
    <cc:permits rdf:resource="http://creativecommons.org/ns#DerivativeWorks"/>
    <cc:requires rdf:resource="http://creativecommons.org/ns#ShareAlike"/>
   </cc:License>
  </rdf:RDF>
 </metadata>
 <title id="title8473">Paper Symbolic Icon Theme</title>
 <defs id="defs7386">
  <filter id="filter7554" style="color-interpolation-filters:sRGB">
   <feBlend id="feBlend7556" in2="BackgroundImage" mode="darken"/>
  </filter>
 </defs>
 <g id="layer9" transform="translate(-685 475)">
  <path id="path2986-2-78" d="m687.34-473.06 12.719 12.719-1.4062 1.4062-12.719-12.719z" style="color:#000000;enable-background:accumulate;fill:#4d4d4d"/>
  <path id="path11510" d="m693-474c-0.55228 0-1 0.44772-1 1 0 0.0333 2e-3 0.0665 6e-3 0.0996-0.64334 0.12889-1.2324 0.39135-1.7598 0.74023l7.7538 7.7539v-1.5938-2c1.7e-4 -2.4292-1.7155-4.4416-4.0059-4.9004 4e-3 -0.0331 6e-3 -0.0663 6e-3 -0.0996 0-0.55228-0.44772-1-1-1zm-4.1582 3.248c-0.5234 0.7903-0.84177 1.7289-0.8418 2.752v4.5l-2 2v0.5h2 10 0.59375l-9.752-9.752zm2.4277 10.752c0.35698 0.61831 1.0165 0.99944 1.7305 1 0.71327-1e-3 1.3719-0.38229 1.7285-1h-3.459z" style="fill:#4d4d4d"/>
 </g>
</svg>
