<?xml version="1.0" encoding="UTF-8"?>
<!-- Created with Inkscape (http://www.inkscape.org/) -->
<svg id="svg7384" width="16" height="16" style="enable-background:new" version="1.1" xmlns="http://www.w3.org/2000/svg" xmlns:cc="http://creativecommons.org/ns#" xmlns:dc="http://purl.org/dc/elements/1.1/" xmlns:osb="http://www.openswatchbook.org/uri/2009/osb" xmlns:rdf="http://www.w3.org/1999/02/22-rdf-syntax-ns#">
 <metadata id="metadata90">
  <rdf:RDF>
   <cc:Work rdf:about="">
    <dc:format>image/svg+xml</dc:format>
    <dc:type rdf:resource="http://purl.org/dc/dcmitype/StillImage"/>
    <dc:title>Paper Symbolic Icon Theme</dc:title>
    <cc:license rdf:resource="http://creativecommons.org/licenses/by-sa/3.0/"/>
   </cc:Work>
   <cc:License rdf:about="http://creativecommons.org/licenses/by-sa/3.0/">
    <cc:permits rdf:resource="http://creativecommons.org/ns#Reproduction"/>
    <cc:permits rdf:resource="http://creativecommons.org/ns#Distribution"/>
    <cc:requires rdf:resource="http://creativecommons.org/ns#Notice"/>
    <cc:requires rdf:resource="http://creativecommons.org/ns#Attribution"/>
    <cc:permits rdf:resource="http://creativecommons.org/ns#DerivativeWorks"/>
    <cc:requires rdf:resource="http://creativecommons.org/ns#ShareAlike"/>
   </cc:License>
  </rdf:RDF>
 </metadata>
 <title id="title8473">Paper Symbolic Icon Theme</title>
 <defs id="defs7386">
  <filter id="filter7554" style="color-interpolation-filters:sRGB">
   <feBlend id="feBlend7556" in2="BackgroundImage" mode="darken"/>
  </filter>
 </defs>
 <g id="layer9" transform="translate(-325 455)">
  <path id="path4374-6" d="m337.48-446.27c-0.15005 7e-3 -0.28696 0.0902-0.36133 0.2207l-3.0606 5.3965c-0.16565 0.29157 0.0436 0.65416 0.37891 0.6543h6.125c0.33534-1.4e-4 0.54457-0.36273 0.37891-0.6543l-3.0606-5.3965c-0.0813-0.14271-0.23629-0.22812-0.40039-0.2207zm-0.48047 1.2715h1v2h-1v-2zm0 3h1v1h-1v-1z" style="block-progression:tb;color-rendering:auto;color:#000000;enable-background:accumulate;fill-rule:evenodd;fill:#ff9800;image-rendering:auto;isolation:auto;mix-blend-mode:normal;shape-rendering:auto;solid-color:#000000;text-decoration-color:#000000;text-decoration-line:none;text-decoration-style:solid;text-indent:0;text-transform:none;white-space:normal"/>
  <path id="path10640" d="m329-454v2h8v-2zm-2 3c-0.5 0-1 0.5-1 1v4c0 0.5 0.5 1 1 1h1v-2h7 1.6738c0.22177-0.15629 0.48142-0.25653 0.75976-0.26953h2e-3c0.5384-0.0244 1.0475 0.25604 1.3145 0.72461l0.76758 1.3535c0.27379-0.18968 0.48237-0.49211 0.48237-0.80859v-4c0-0.5-0.5-1-1-1zm2 5v5h4.1309c0.0206-0.0494 0.0314-0.10057 0.0586-0.14844l2.752-4.8516z" style="fill:#4d4d4d"/>
 </g>
</svg>
