<?xml version="1.0" encoding="UTF-8"?>
<!-- Created with Inkscape (http://www.inkscape.org/) -->
<svg id="svg7384" width="16" height="16" style="enable-background:new" version="1.1" xmlns="http://www.w3.org/2000/svg" xmlns:cc="http://creativecommons.org/ns#" xmlns:dc="http://purl.org/dc/elements/1.1/" xmlns:osb="http://www.openswatchbook.org/uri/2009/osb" xmlns:rdf="http://www.w3.org/1999/02/22-rdf-syntax-ns#">
 <metadata id="metadata90">
  <rdf:RDF>
   <cc:Work rdf:about="">
    <dc:format>image/svg+xml</dc:format>
    <dc:type rdf:resource="http://purl.org/dc/dcmitype/StillImage"/>
    <dc:title>Paper Symbolic Icon Theme</dc:title>
   </cc:Work>
  </rdf:RDF>
 </metadata>
 <title id="title8473">Paper Symbolic Icon Theme</title>
 <defs id="defs7386">
  <filter id="filter7554" color-interpolation-filters="sRGB">
   <feBlend id="feBlend7556" in2="BackgroundImage" mode="darken"/>
  </filter>
 </defs>
 <g id="layer9" transform="translate(-561 391)">
  <path id="path5087" d="m562-386v3c0 1 0.0622 2.1471 0.2 2.9964 0.13782 0.84927 0.79977 3 0.79977 3s0.47642 0.99995 1 1h8 1c0.52358-5e-5 1.0002-0.99635 1-1 0 0 0.66241-2.1507 0.80023-3s0.2-1.9964 0.2-2.9964v-3z" style="block-progression:tb;color:#000000;enable-background:accumulate;fill:#555;text-indent:0;text-transform:none"/>
  <path id="path5089" d="m562-388v1l13-3e-3 -2e-4 -0.99664c0-1-0.9998-1.0034-0.9998-1.0034h-3s0-1-1-1h-3c-1 0-1 1-1 1h-3s-1.0002 3e-3 -1.0002 1.0034z" style="block-progression:tb;color:#000000;enable-background:accumulate;fill:#555;text-indent:0;text-transform:none"/>
 </g>
</svg>
