<?xml version="1.0" encoding="UTF-8"?>
<!-- Created with Inkscape (http://www.inkscape.org/) -->
<svg id="svg7384" width="16" height="16" style="enable-background:new" version="1.1" xmlns="http://www.w3.org/2000/svg" xmlns:cc="http://creativecommons.org/ns#" xmlns:dc="http://purl.org/dc/elements/1.1/" xmlns:osb="http://www.openswatchbook.org/uri/2009/osb" xmlns:rdf="http://www.w3.org/1999/02/22-rdf-syntax-ns#">
 <metadata id="metadata90">
  <rdf:RDF>
   <cc:Work rdf:about="">
    <dc:format>image/svg+xml</dc:format>
    <dc:type rdf:resource="http://purl.org/dc/dcmitype/StillImage"/>
    <dc:title>Paper Symbolic Icon Theme</dc:title>
   </cc:Work>
  </rdf:RDF>
 </metadata>
 <title id="title8473">Paper Symbolic Icon Theme</title>
 <defs id="defs7386">
  <filter id="filter7554" color-interpolation-filters="sRGB">
   <feBlend id="feBlend7556" in2="BackgroundImage" mode="darken"/>
  </filter>
 </defs>
 <g id="layer10" transform="translate(-445 139)" style="filter:url(#filter7554)">
  <path id="path7007" d="m448-138s-2 0-2 2v11c0 0.554 0.446 1 1 1h12c0.554 0 1-0.446 1-1v-11s0-2-2-2h-10zm0 1c-0.277 0-0.538 0.1005-0.71875 0.28125 0.18075-0.18075 0.44175-0.28125 0.71875-0.28125zm10 0c0.277 0 0.538 0.1005 0.71875 0.28125-0.18075-0.18075-0.44175-0.28125-0.71875-0.28125zm-10 1h1v3h8v-3h1v10h-10v-10z" style="fill:#555"/>
 </g>
</svg>
