<?xml version="1.0" encoding="UTF-8"?>
<!-- Created with Inkscape (http://www.inkscape.org/) -->
<svg id="svg7384" width="16" height="16" style="enable-background:new" version="1.1" xmlns="http://www.w3.org/2000/svg" xmlns:cc="http://creativecommons.org/ns#" xmlns:dc="http://purl.org/dc/elements/1.1/" xmlns:osb="http://www.openswatchbook.org/uri/2009/osb" xmlns:rdf="http://www.w3.org/1999/02/22-rdf-syntax-ns#">
 <metadata id="metadata90">
  <rdf:RDF>
   <cc:Work rdf:about="">
    <dc:format>image/svg+xml</dc:format>
    <dc:type rdf:resource="http://purl.org/dc/dcmitype/StillImage"/>
    <dc:title>Paper Symbolic Icon Theme</dc:title>
   </cc:Work>
  </rdf:RDF>
 </metadata>
 <title id="title8473">Paper Symbolic Icon Theme</title>
 <defs id="defs7386">
  <filter id="filter7554" style="color-interpolation-filters:sRGB">
   <feBlend id="feBlend7556" in2="BackgroundImage" mode="darken"/>
  </filter>
 </defs>
 <g id="layer10" transform="translate(-345 159)" style="filter:url(#filter7554)">
  <path id="path10961" d="m348-158s-0.99902-3e-3 -1 1l-4e-3 3.9961h-2v2h16v-2h-2l4e-3 -3.9961c9.8e-4 -1.0034-1-1-1-1h-10zm0.99609 1.9961h8l-4e-3 3h-8l4e-3 -3zm-1.9961 6v5.0039s0 1 1 1h10c1 0 1-1 1-1v-5.0039h-2.0039v4h-8v-4h-1.9961z" style="fill:#555"/>
 </g>
</svg>
