<?xml version="1.0" encoding="UTF-8"?>
<!-- Created with Inkscape (http://www.inkscape.org/) -->
<svg id="svg6530" width="22" height="22" version="1.1" viewBox="0 0 22 22" xmlns="http://www.w3.org/2000/svg" xmlns:cc="http://creativecommons.org/ns#" xmlns:dc="http://purl.org/dc/elements/1.1/" xmlns:osb="http://www.openswatchbook.org/uri/2009/osb" xmlns:rdf="http://www.w3.org/1999/02/22-rdf-syntax-ns#">
 <metadata id="metadata6535">
  <rdf:RDF>
   <cc:Work rdf:about="">
    <dc:format>image/svg+xml</dc:format>
    <dc:type rdf:resource="http://purl.org/dc/dcmitype/StillImage"/>
    <dc:title/>
   </cc:Work>
  </rdf:RDF>
 </metadata>
 <g id="layer1" transform="translate(-225 -229.36)">
  <rect id="rect7045" x="225" y="229.36" width="22" height="22" style="color:#bebebe;fill:none"/>
  <path id="rect7011-24" d="m231 233.36s-2 0-2 2.0625v9.9375c0 2 2 2 2 2h10c2 0 2-2 2-2v-10s0-2-2-2zm3.0002 2 5.9998-2e-5 2e-4 2h-6v2h4v2h-4v2h6v2h-6s-2 0-2-2v-6c0-2 2-2 2-2z" style="color:#bebebe;fill:#dbdee0"/>
 </g>
</svg>
