<?xml version="1.0" encoding="UTF-8"?>
<!-- Created with Inkscape (http://www.inkscape.org/) -->
<svg id="svg7384" width="16" height="16" style="enable-background:new" version="1.1" xmlns="http://www.w3.org/2000/svg" xmlns:cc="http://creativecommons.org/ns#" xmlns:dc="http://purl.org/dc/elements/1.1/" xmlns:osb="http://www.openswatchbook.org/uri/2009/osb" xmlns:rdf="http://www.w3.org/1999/02/22-rdf-syntax-ns#">
 <metadata id="metadata90">
  <rdf:RDF>
   <cc:Work rdf:about="">
    <dc:format>image/svg+xml</dc:format>
    <dc:type rdf:resource="http://purl.org/dc/dcmitype/StillImage"/>
    <dc:title>Paper Symbolic Icon Theme</dc:title>
    <cc:license rdf:resource="http://creativecommons.org/licenses/by-sa/3.0/"/>
   </cc:Work>
   <cc:License rdf:about="http://creativecommons.org/licenses/by-sa/3.0/">
    <cc:permits rdf:resource="http://creativecommons.org/ns#Reproduction"/>
    <cc:permits rdf:resource="http://creativecommons.org/ns#Distribution"/>
    <cc:requires rdf:resource="http://creativecommons.org/ns#Notice"/>
    <cc:requires rdf:resource="http://creativecommons.org/ns#Attribution"/>
    <cc:permits rdf:resource="http://creativecommons.org/ns#DerivativeWorks"/>
    <cc:requires rdf:resource="http://creativecommons.org/ns#ShareAlike"/>
   </cc:License>
  </rdf:RDF>
 </metadata>
 <title id="title8473">Paper Symbolic Icon Theme</title>
 <g id="layer12" transform="translate(-525 -22)">
  <path id="path5357" d="m537.95 34.949c-2.7337 2.7337-7.1658 2.7337-9.8995 0-2.7337-2.7337-2.7337-7.1658 0-9.8995 2.7337-2.7337 7.1658-2.7337 9.8995 0 2.7337 2.7337 2.7337 7.1658 0 9.8995zm-1.4142-1.4142a5 5 0 0 0 0-7.0711 5 5 0 0 0-7.0711 0 5 5 0 0 0 0 7.0711 5 5 0 0 0 7.0711 0z" style="enable-background:new;fill-opacity:.49804"/>
  <path id="path5359" d="m534.41 32.828-0.0925-0.09253-0.61458-0.61458-1.707-1.707v-3.414-0.86732l3e-5 -0.13255 1.9998 5e-6 -3e-5 0.13255v0.86731 2.5854l1.7346 1.7346 0.0939 0.09391-1.4142 1.4142z" style="enable-background:new;fill-opacity:.49804"/>
 </g>
</svg>
