<?xml version="1.0" encoding="UTF-8"?>
<!-- Created with Inkscape (http://www.inkscape.org/) -->
<svg id="svg7384" width="16" height="16" style="enable-background:new" version="1.1" xmlns="http://www.w3.org/2000/svg" xmlns:cc="http://creativecommons.org/ns#" xmlns:dc="http://purl.org/dc/elements/1.1/" xmlns:osb="http://www.openswatchbook.org/uri/2009/osb" xmlns:rdf="http://www.w3.org/1999/02/22-rdf-syntax-ns#">
 <metadata id="metadata90">
  <rdf:RDF>
   <cc:Work rdf:about="">
    <dc:format>image/svg+xml</dc:format>
    <dc:type rdf:resource="http://purl.org/dc/dcmitype/StillImage"/>
    <dc:title>Paper Symbolic Icon Theme</dc:title>
    <cc:license rdf:resource="http://creativecommons.org/licenses/by-sa/3.0/"/>
   </cc:Work>
   <cc:License rdf:about="http://creativecommons.org/licenses/by-sa/3.0/">
    <cc:permits rdf:resource="http://creativecommons.org/ns#Reproduction"/>
    <cc:permits rdf:resource="http://creativecommons.org/ns#Distribution"/>
    <cc:requires rdf:resource="http://creativecommons.org/ns#Notice"/>
    <cc:requires rdf:resource="http://creativecommons.org/ns#Attribution"/>
    <cc:permits rdf:resource="http://creativecommons.org/ns#DerivativeWorks"/>
    <cc:requires rdf:resource="http://creativecommons.org/ns#ShareAlike"/>
   </cc:License>
  </rdf:RDF>
 </metadata>
 <title id="title8473">Paper Symbolic Icon Theme</title>
 <g id="layer12" transform="translate(-326 -41)">
  <path id="path5549" d="m342 46v6l-4-3z" style="fill-opacity:.49804"/>
  <path id="path5551" d="m332 44-8e-3 2 2.9219 0.01172h2e-3c-0.0552 0 0.084 0.15932 0.084 0.08203v0.92383h-1.0039c-1.7159 0-3.0301 1.1255-3.0547 2.4844-0.0123 0.67944 0.30583 1.363 0.86133 1.8223s1.3154 0.69922 2.1934 0.69922h3.0039v-5.9297c0-1.1712-0.88715-2.082-2.084-2.082l-2.9159-0.01172zm1.9961 5.0176h1.0039v1.0059h-1.0039c-0.51941 0-0.79379-0.1379-0.91992-0.24219-0.12614-0.10429-0.13607-0.17218-0.13477-0.24414 3e-3 -0.14392 0.0849-0.51953 1.0547-0.51953z" style="block-progression:tb;color-rendering:auto;color:#000000;enable-background:accumulate;fill-opacity:.49804;image-rendering:auto;isolation:auto;mix-blend-mode:normal;shape-rendering:auto;solid-color:#000000;text-decoration-color:#000000;text-decoration-line:none;text-decoration-style:solid;text-indent:0;text-transform:none;white-space:normal"/>
  <path id="path5553" d="m326 46v6l4-3z" style="fill-opacity:.49804"/>
 </g>
</svg>
