<?xml version="1.0" encoding="UTF-8"?>
<!-- Created with Inkscape (http://www.inkscape.org/) -->
<svg id="svg7384" width="16" height="16" style="enable-background:new" version="1.1" xmlns="http://www.w3.org/2000/svg" xmlns:cc="http://creativecommons.org/ns#" xmlns:dc="http://purl.org/dc/elements/1.1/" xmlns:osb="http://www.openswatchbook.org/uri/2009/osb" xmlns:rdf="http://www.w3.org/1999/02/22-rdf-syntax-ns#">
 <metadata id="metadata90">
  <rdf:RDF>
   <cc:Work rdf:about="">
    <dc:format>image/svg+xml</dc:format>
    <dc:type rdf:resource="http://purl.org/dc/dcmitype/StillImage"/>
    <dc:title>Paper Symbolic Icon Theme</dc:title>
    <cc:license rdf:resource="http://creativecommons.org/licenses/by-sa/3.0/"/>
   </cc:Work>
   <cc:License rdf:about="http://creativecommons.org/licenses/by-sa/3.0/">
    <cc:permits rdf:resource="http://creativecommons.org/ns#Reproduction"/>
    <cc:permits rdf:resource="http://creativecommons.org/ns#Distribution"/>
    <cc:requires rdf:resource="http://creativecommons.org/ns#Notice"/>
    <cc:requires rdf:resource="http://creativecommons.org/ns#Attribution"/>
    <cc:permits rdf:resource="http://creativecommons.org/ns#DerivativeWorks"/>
    <cc:requires rdf:resource="http://creativecommons.org/ns#ShareAlike"/>
   </cc:License>
  </rdf:RDF>
 </metadata>
 <title id="title8473">Paper Symbolic Icon Theme</title>
 <g id="layer12" transform="translate(-625 19.003)">
  <path id="path6976" d="m630.5-15.75-1.6665 0.93322 0.93323-1.6665-0.93323-1.6665 1.6665 0.93322 1.6665-0.93322-0.93322 1.6665 0.93322 1.6665-1.6665-0.93322m8 6.5 1.6665-0.93322-0.93322 1.6665 0.93322 1.6665-1.6665-0.93322-1.6665 0.93322 0.93322-1.6665-0.93322-1.6665 1.6665 0.93322m1.6497-8.9165-0.93322 1.6665 0.93322 1.6665-1.6665-0.93322-1.6665 0.93322 0.93322-1.6665-0.93322-1.6665 1.6665 0.93322 1.6665-0.93322m-5.6497 7.1665 1.3541-1.444-1.2276-1.1824-1.3541 1.444 1.2276 1.1825m0.41417-3.4771 1.5598 1.5598c0.25997 0.24664 0.25997 0.67992 0 0.93989l-7.7791 7.7791c-0.25997 0.25997-0.69325 0.25997-0.93989 0l-1.5598-1.5598c-0.25998-0.24664-0.25998-0.67992 0-0.93989l7.7791-7.7791c0.25997-0.25997 0.69325-0.25997 0.93989 0z" style="opacity:.5"/>
 </g>
</svg>
