<?xml version="1.0" encoding="UTF-8"?>
<!-- Created with Inkscape (http://www.inkscape.org/) -->
<svg id="svg7384" width="16" height="16" style="enable-background:new" version="1.1" xmlns="http://www.w3.org/2000/svg" xmlns:cc="http://creativecommons.org/ns#" xmlns:dc="http://purl.org/dc/elements/1.1/" xmlns:osb="http://www.openswatchbook.org/uri/2009/osb" xmlns:rdf="http://www.w3.org/1999/02/22-rdf-syntax-ns#">
 <metadata id="metadata90">
  <rdf:RDF>
   <cc:Work rdf:about="">
    <dc:format>image/svg+xml</dc:format>
    <dc:type rdf:resource="http://purl.org/dc/dcmitype/StillImage"/>
    <dc:title>Paper Symbolic Icon Theme</dc:title>
   </cc:Work>
  </rdf:RDF>
 </metadata>
 <title id="title8473">Paper Symbolic Icon Theme</title>
 <defs id="defs7386">
  <filter id="filter7554" style="color-interpolation-filters:sRGB">
   <feBlend id="feBlend7556" in2="BackgroundImage" mode="darken"/>
  </filter>
 </defs>
 <g id="g6058" transform="translate(-444,-588)">
  <g id="g5431" transform="translate(121 -41)">
   <g id="g5436">
    <path id="rect2996" transform="translate(-121 11)" d="m454.03 619.15c-0.14738 3e-3 -0.29996 0.0152-0.45899 0.0371-0.56691 0.078-1.2516 0.35052-2.0156 0.75391-1.5406-0.84486-2.7409-0.89669-3.748-0.63867-1.0688 0.27382-1.9377 0.72184-3.291 0.68164l-0.51562-0.01562v0.51563 10.295 3.2246h15v-3.2207-10.797l-0.51758 0.0176c-1.5166 0.0547-2.2705-0.39366-3.25-0.68359-0.3673-0.10873-0.76098-0.17886-1.2031-0.16993zm-5.291 0.99024c0.62009-0.0643 1.3046 0.0808 2.2617 0.60351v8.6406c-1.1044-0.63552-2.2098-0.68375-3.1836-0.44336-0.6532 0.16124-1.2472 0.34654-1.8164 0.49609v-8.6406c0.8021-0.14649 1.4741-0.37664 2.0547-0.52539 0.23111-0.0592 0.45444-0.10711 0.68359-0.13086zm5.5996 2e-3c0.2059 0.0262 0.40468 0.0758 0.61133 0.13672 0.53443 0.1582 1.1934 0.40813 2.0508 0.55469v8.5996c-0.56984-0.15092-1.1626-0.33776-1.8106-0.49805-0.97984-0.24238-2.0913-0.18412-3.1894 0.48047v-8.6133c0.70328-0.38178 1.2454-0.59106 1.6797-0.6543 0.23926-0.0349 0.4523-0.0321 0.6582-6e-3zm-0.53516 9.6094c0.37188-0.0108 0.74727 0.0555 1.1465 0.15429 0.64212 0.15884 1.3248 0.42846 2.0508 0.62891v1.4688h-11v-1.4629c0.72432-0.19889 1.4079-0.46925 2.0547-0.62891 1.0751-0.26538 1.9926-0.29629 3.1445 0.73828l0.33984 0.30469 0.33399-0.30859c0.69928-0.6451 1.3099-0.87648 1.9297-0.89453z" style="block-progression:tb;color-rendering:auto;color:#000000;enable-background:accumulate;fill:#555;image-rendering:auto;isolation:auto;mix-blend-mode:normal;shape-rendering:auto;solid-color:#000000;text-decoration-color:#000000;text-decoration-line:none;text-decoration-style:solid;text-indent:0;text-transform:none;white-space:normal"/>
    <path id="path13183" d="m323.94 643.75v-2.1875l4.2195-1.1306 2.343 0.59711 2.3872-0.67107 3.7417 1.0026v2.452z" style="color:#000000;enable-background:accumulate;fill:#555;opacity:.35"/>
   </g>
  </g>
 </g>
</svg>
