<?xml version="1.0" encoding="UTF-8"?>
<!-- Created with Inkscape (http://www.inkscape.org/) -->
<svg id="svg7384" width="16" height="16" style="enable-background:new" version="1.1" xmlns="http://www.w3.org/2000/svg" xmlns:cc="http://creativecommons.org/ns#" xmlns:dc="http://purl.org/dc/elements/1.1/" xmlns:osb="http://www.openswatchbook.org/uri/2009/osb" xmlns:rdf="http://www.w3.org/1999/02/22-rdf-syntax-ns#">
 <metadata id="metadata90">
  <rdf:RDF>
   <cc:Work rdf:about="">
    <dc:format>image/svg+xml</dc:format>
    <dc:type rdf:resource="http://purl.org/dc/dcmitype/StillImage"/>
    <dc:title>Paper Symbolic Icon Theme</dc:title>
   </cc:Work>
  </rdf:RDF>
 </metadata>
 <title id="title8473">Paper Symbolic Icon Theme</title>
 <defs id="defs7386">
  <filter id="filter7554" style="color-interpolation-filters:sRGB">
   <feBlend id="feBlend7556" in2="BackgroundImage" mode="darken"/>
  </filter>
 </defs>
 <g id="g6058" transform="translate(-463,-568)">
  <path id="path6248-4" d="m466 569.04s-2 0-2 2v10s0 2 2 2h10s2 0 2-2v-10c0-2-2-2-2-2h-10zm5 2.9648c2.2091 0 4 1.7909 4 4 0 1.5654-0.90865 2.9055-2.2188 3.5625l-0.89063-1.7793c0.65577-0.32824 1.1094-0.99996 1.1094-1.7832 0-1.1046-0.89543-2-2-2s-2 0.89543-2 2h1 1l-1.7812 3.5625c-1.3101-0.65698-2.2188-1.9971-2.2188-3.5625 0-2.2091 1.7909-4 4-4z" style="fill:#555"/>
 </g>
</svg>
