<?xml version="1.0" encoding="UTF-8"?>
<!-- Created with Inkscape (http://www.inkscape.org/) -->
<svg id="svg7384" width="16" height="16.01" style="enable-background:new" version="1.1" xmlns="http://www.w3.org/2000/svg" xmlns:cc="http://creativecommons.org/ns#" xmlns:dc="http://purl.org/dc/elements/1.1/" xmlns:osb="http://www.openswatchbook.org/uri/2009/osb" xmlns:rdf="http://www.w3.org/1999/02/22-rdf-syntax-ns#">
 <metadata id="metadata90">
  <rdf:RDF>
   <cc:Work rdf:about="">
    <dc:format>image/svg+xml</dc:format>
    <dc:type rdf:resource="http://purl.org/dc/dcmitype/StillImage"/>
    <dc:title>Paper Symbolic Icon Theme</dc:title>
   </cc:Work>
  </rdf:RDF>
 </metadata>
 <title id="title8473">Paper Symbolic Icon Theme</title>
 <defs id="defs7386">
  <filter id="filter7554" color-interpolation-filters="sRGB">
   <feBlend id="feBlend7556" in2="BackgroundImage" mode="darken"/>
  </filter>
 </defs>
 <g id="g6058" transform="translate(-464 -507.99)">
  <path id="path8077" d="m469.84 509c-0.28125 0.0469-0.84375 0.25-0.84375 1v1h3 0.40625l4.5938 4.5938v0.40625c3e-3 1.2729-2e-3 3.0104 0 4.4375 2.7e-4 0.22144-1.2e-4 0.35876 0 0.5625h1c1 0 1-1 1-1 0.0188-0.0461 5e-3 -4.4529 0-7l-4-4h-5s-0.0625-0.0156-0.15625 0z" style="enable-background:new;fill:#555"/>
  <path id="path8075" d="m466.84 512c-0.28125 0.0469-0.84375 0.25-0.84375 1v10c0 1 1 1 1 1h8c1 0 1-1 1-1 0.0188-0.0461 5e-3 -4.4529 0-7l-4-4h-5s-0.0625-0.0156-0.15625 0zm4.1562 3c1.1046 0 2 0.89543 2 2s-0.89543 2-2 2v1h-1v-2h1c0.55229 0 1-0.44772 1-1s-0.44771-1-1-1c-0.55228 0-1 0.44772-1 1h-1c0-1.1046 0.89543-2 2-2zm-1 6h1v1h-1z" style="enable-background:new;fill:#555"/>
 </g>
</svg>
