<?xml version="1.0" encoding="UTF-8"?>
<!-- Created with Inkscape (http://www.inkscape.org/) -->
<svg id="svg7384" width="16" height="16.001" style="enable-background:new" version="1.1" xmlns="http://www.w3.org/2000/svg" xmlns:cc="http://creativecommons.org/ns#" xmlns:dc="http://purl.org/dc/elements/1.1/" xmlns:osb="http://www.openswatchbook.org/uri/2009/osb" xmlns:rdf="http://www.w3.org/1999/02/22-rdf-syntax-ns#">
 <metadata id="metadata90">
  <rdf:RDF>
   <cc:Work rdf:about="">
    <dc:format>image/svg+xml</dc:format>
    <dc:type rdf:resource="http://purl.org/dc/dcmitype/StillImage"/>
    <dc:title>Paper Symbolic Icon Theme</dc:title>
   </cc:Work>
  </rdf:RDF>
 </metadata>
 <title id="title8473">Paper Symbolic Icon Theme</title>
 <g id="g6058" transform="translate(-279,-100)">
  <path id="path4221" d="m288 108c-1.357 0.0121-2.7223 0.29574-3.9043 0.9082-0.47111 0.28056-1.0366 0.64272-1.4629 1.0078-0.67068 0.60046-1.2454 1.3002-1.6328 2.084 1.0631 2.1441 3.3997 3.7171 5.9707 3.9492 1.6865 0.17453 3.4511-0.0925 4.9336-0.85547 0.47109-0.28056 1.0367-0.64271 1.4629-1.0078 0.67071-0.60045 1.2454-1.3022 1.6328-2.0859-1.0632-2.144-3.3996-3.7154-5.9707-3.9473-0.34115-0.03644-0.68588-0.05273-1.0293-0.05273zm0 1.5a2.5 2.5 0 0 1 2.5 2.5 2.5 2.5 0 0 1-2.5 2.5 2.5 2.5 0 0 1-2.5-2.5 2.5 2.5 0 0 1 2.5-2.5zm0 1.5a1 1 0 0 0-1 1 1 1 0 0 0 1 1 1 1 0 0 0 1-1 1 1 0 0 0-1-1z" style="enable-background:new;fill-rule:evenodd;fill:#555"/>
  <path id="path4988" d="m280 100c-1 0-1 1-1 1v10c0 0.82178 0.64796 0.96218 0.88867 0.98828l0.21485-0.43555c0.28136-0.5693 0.64491-1.0816 1.0527-1.5527h-0.15625v-2.5l2.5-2.9375 2.3574 2.6699c0.70314-0.15138 1.4204-0.22997 2.1328-0.23633h6e-3 4e-3c0.0529 0 0.10708 7e-3 0.16016 8e-3l0.77734-0.7539 0.91797 0.91797c1.1323 0.20204 2.202 0.61789 3.1445 1.2187v-7.3867c0-1-1-1-1-1h-12zm11 9.8203v0.17969h-0.16211c0.40773 0.56789 0.66211 1.2495 0.66211 1.9961v4e-3h0.5s0.89403-0.0106 0.98242-0.8711c-0.55144-0.54317-1.227-0.97513-1.9824-1.3086zm-6.7617 0.17969c-0.34403 0.21727-0.69205 0.45019-0.94336 0.66406-0.43322 0.38891-0.72982 0.84756-1.0254 1.3008 8e-3 0.0126 0.0192 0.0226 0.0274 0.0352h2.2031v-4e-3c0-0.74407 0.24844-1.4282 0.65234-1.9961h-0.91406z" style="block-progression:tb;color:#000000;enable-background:new;fill:#555;text-decoration-line:none;text-indent:0;text-transform:none"/>
 </g>
</svg>
