<?xml version="1.0" encoding="UTF-8"?>
<!-- Created with Inkscape (http://www.inkscape.org/) -->
<svg id="svg7384" width="16" height="16" style="enable-background:new" version="1.1" xmlns="http://www.w3.org/2000/svg" xmlns:cc="http://creativecommons.org/ns#" xmlns:dc="http://purl.org/dc/elements/1.1/" xmlns:osb="http://www.openswatchbook.org/uri/2009/osb" xmlns:rdf="http://www.w3.org/1999/02/22-rdf-syntax-ns#">
 <metadata id="metadata90">
  <rdf:RDF>
   <cc:Work rdf:about="">
    <dc:format>image/svg+xml</dc:format>
    <dc:type rdf:resource="http://purl.org/dc/dcmitype/StillImage"/>
    <dc:title>Paper Symbolic Icon Theme</dc:title>
   </cc:Work>
  </rdf:RDF>
 </metadata>
 <title id="title8473">Paper Symbolic Icon Theme</title>
 <g id="g6058" transform="translate(-232 -100)">
  <path id="path10910" d="m236.5 101c-2.4853 0-4.5 2.0147-4.5 4.5s2.0147 4.5 4.5 4.5c1.9047-3e-3 3.6014-1.2042 4.2363-3l3.2637-0.00391v2h3v-2.0039l1 4e-3v-3l-7.2637 4e-3c-0.6349-1.7958-2.3316-2.9973-4.2363-3zm0 3c0.82843 0 1.5 0.67157 1.5 1.5s-0.67157 1.5-1.5 1.5-1.5-0.67157-1.5-1.5 0.67157-1.5 1.5-1.5z" style="enable-background:new;fill:#555"/>
  <path id="path6013" d="m241.24 108.13c-0.49935 0.90411-1.224 1.6442-2.0918 2.1484l1.5938 1.5898-1.4141 1.4141 2.1211 2.1211 1.416-1.416 0.70508 0.70898 2.1211-2.1211-2.5762-2.5723h-0.11914v-0.11914z" style="enable-background:new;fill:#555;opacity:.35"/>
 </g>
</svg>
