<?xml version="1.0" encoding="UTF-8"?>
<!-- Created with Inkscape (http://www.inkscape.org/) -->
<svg id="svg7384" width="16" height="16.035" style="enable-background:new" version="1.1" xmlns="http://www.w3.org/2000/svg" xmlns:cc="http://creativecommons.org/ns#" xmlns:dc="http://purl.org/dc/elements/1.1/" xmlns:osb="http://www.openswatchbook.org/uri/2009/osb" xmlns:rdf="http://www.w3.org/1999/02/22-rdf-syntax-ns#">
 <metadata id="metadata90">
  <rdf:RDF>
   <cc:Work rdf:about="">
    <dc:format>image/svg+xml</dc:format>
    <dc:type rdf:resource="http://purl.org/dc/dcmitype/StillImage"/>
    <dc:title>Paper Symbolic Icon Theme</dc:title>
   </cc:Work>
  </rdf:RDF>
 </metadata>
 <title id="title8473">Paper Symbolic Icon Theme</title>
 <defs id="defs7386">
  <filter id="filter7554" color-interpolation-filters="sRGB">
   <feBlend id="feBlend7556" in2="BackgroundImage" mode="darken"/>
  </filter>
 </defs>
 <g id="g6058" transform="translate(-544 -487.97)">
  <path id="path7982" d="m552 491 1.2188 1.2188c1.6112 0.5166 2.7812 1.9985 2.7812 3.7812 0 2.2091-1.7909 4-4 4s-4-1.7909-4-4c0-1.7828 1.17-3.2646 2.7812-3.7812l1.2188-1.2188zc-2.7614 0-5 2.2386-5 5 0 2.7614 2.2386 5 5 5 2.7614 0 5-2.2386 5-5 0-2.7614-2.2386-5-5-5z" style="fill:#555;opacity:.35"/>
  <path id="path7952" d="m552 488c-4.4183 0-8 3.5817-8 8s3.5817 8 8 8 8-3.5817 8-8-3.5817-8-8-8zm0 2c3.3137 0 6 2.6863 6 6s-2.6863 6-6 6-6-2.6863-6-6 2.6863-6 6-6zm0 2-1.3438 1.3438c-0.9753 0.49523-1.6562 1.4875-1.6562 2.6562 0 1.6568 1.3432 3 3 3s3-1.3432 3-3c0-1.1687-0.68095-2.161-1.6562-2.6562l-1.3438-1.3438z" style="fill:#555"/>
 </g>
</svg>
