<?xml version="1.0" encoding="UTF-8"?>
<!-- Created with Inkscape (http://www.inkscape.org/) -->
<svg id="svg7384" width="16" height="16" style="enable-background:new" version="1.1" xmlns="http://www.w3.org/2000/svg" xmlns:cc="http://creativecommons.org/ns#" xmlns:dc="http://purl.org/dc/elements/1.1/" xmlns:osb="http://www.openswatchbook.org/uri/2009/osb" xmlns:rdf="http://www.w3.org/1999/02/22-rdf-syntax-ns#">
 <metadata id="metadata90">
  <rdf:RDF>
   <cc:Work rdf:about="">
    <dc:format>image/svg+xml</dc:format>
    <dc:type rdf:resource="http://purl.org/dc/dcmitype/StillImage"/>
    <dc:title>Paper Symbolic Icon Theme</dc:title>
   </cc:Work>
  </rdf:RDF>
 </metadata>
 <title id="title8473">Paper Symbolic Icon Theme</title>
 <defs id="defs7386">
  <filter id="filter7554" color-interpolation-filters="sRGB">
   <feBlend id="feBlend7556" in2="BackgroundImage" mode="darken"/>
  </filter>
 </defs>
 <g id="g6058" transform="translate(-483.97 -548)">
  <g id="g5335-4-9" transform="matrix(1.0011 0 0 1 249.7 187)">
   <g id="g5400">
    <path id="rect5333-9" transform="translate(-8,-20)" d="m243.5 389c-0.831 0-1.5 0.669-1.5 1.5v4c0 0.831 0.669 1.5 1.5 1.5h9c0.831 0 1.5-0.669 1.5-1.5v-4c0-0.831-0.669-1.5-1.5-1.5zm0.0625 1c3.182 0.26867 6.1087 0.23073 8.875 0 0.30192-0.0252 0.5625 0.25953 0.5625 0.5625v2.875c0 0.30297-0.26145 0.52842-0.5625 0.5625-3.0007 0.33966-5.9575 0.32696-8.875 0-0.30109-0.03374-0.5625-0.25953-0.5625-0.5625v-2.875c0-0.30297 0.2606-0.58799 0.5625-0.5625z" style="color:#000000;enable-background:accumulate;fill:#555"/>
    <path id="rect5333-9-8" transform="translate(-8,-20)" d="m251.5 381c-0.831 0-1.5 0.669-1.5 1.5v4c0 0.831 0.669 1.5 1.5 1.5h4c0.831 0 1.5-0.669 1.5-1.5v-4c0-0.831-0.669-1.5-1.5-1.5zm0.0625 1c1.2917 0.1279 2.5833 0.12207 3.875 0 0.30163-0.0285 0.5625 0.25953 0.5625 0.5625v2.875c0 0.30297-0.26178 0.52562-0.5625 0.5625-1.2533 0.1537-2.5386 0.17922-3.875 0-0.30029-0.04027-0.5625-0.25953-0.5625-0.5625v-2.875c0-0.30297 0.261-0.59235 0.5625-0.5625z" style="color:#000000;enable-background:accumulate;fill:#555"/>
    <path id="path11636" d="m235.5 362c-0.831 0-1.5 0.669-1.5 1.5v3c0 0.831 0.669 1.5 1.5 1.5h4c0.831 0 1.5-0.669 1.5-1.5v-3c0-0.831-0.669-1.5-1.5-1.5zm0.0625 1c1.69 0.19941 2.8447 0.13085 3.875 0 0.30056-0.0382 0.5625 0.25953 0.5625 0.5625v2.875c0 0.30297-0.26201 0.5238-0.5625 0.5625-1.2136 0.1563-2.495 0.17677-3.875 0-0.30052-0.0385-0.5625-0.25953-0.5625-0.5625v-2.875c0-0.30297 0.26161-0.598 0.5625-0.5625z" style="color:#000000;enable-background:accumulate;fill:#555"/>
   </g>
  </g>
 </g>
</svg>
