<?xml version="1.0" encoding="UTF-8"?>
<!-- Created with Inkscape (http://www.inkscape.org/) -->
<svg id="svg7384" width="16" height="16" style="enable-background:new" version="1.1" xmlns="http://www.w3.org/2000/svg" xmlns:cc="http://creativecommons.org/ns#" xmlns:dc="http://purl.org/dc/elements/1.1/" xmlns:osb="http://www.openswatchbook.org/uri/2009/osb" xmlns:rdf="http://www.w3.org/1999/02/22-rdf-syntax-ns#">
 <metadata id="metadata90">
  <rdf:RDF>
   <cc:Work rdf:about="">
    <dc:format>image/svg+xml</dc:format>
    <dc:type rdf:resource="http://purl.org/dc/dcmitype/StillImage"/>
    <dc:title>Paper Symbolic Icon Theme</dc:title>
   </cc:Work>
  </rdf:RDF>
 </metadata>
 <title id="title8473">Paper Symbolic Icon Theme</title>
 <defs id="defs7386">
  <filter id="filter7554" style="color-interpolation-filters:sRGB">
   <feBlend id="feBlend7556" in2="BackgroundImage" mode="darken"/>
  </filter>
 </defs>
 <g id="g6058" transform="translate(-424,-528)">
  <path id="path9233" d="m432.88 536c-0.49245 0-0.875 0.38256-0.875 0.875v6.25c0 0.49244 0.38255 0.875 0.875 0.875h6.25c0.49245 0 0.875-0.38256 0.875-0.875v-6.25c0-0.49244-0.38255-0.875-0.875-0.875zm2.125 1h2v1h-2zm0 2h2v4h-2z" style="color:#bebebe;enable-background:accumulate;fill:#555"/>
  <path id="path6174-8-2" d="m432 530c-1.6569 0-3 1.3432-3 3 0 1.4108 0.9768 2.586 2.2891 2.9062 0.33568-0.53551 0.92746-0.90625 1.5859-0.90625h1.3457c0.47909-0.53166 0.7793-1.228 0.7793-2 0-1.6568-1.3431-3-3-3zm-1 8.043c-4.9972 0.42168-5 3.9609-5 3.9609v1h5v-4.9609zm2 0v4.957h1v-4-0.82422c-0.30834-0.0595-0.64227-0.10295-1-0.13281z" style="block-progression:tb;color:#000000;enable-background:accumulate;fill:#555;text-decoration-line:none;text-indent:0;text-transform:none"/>
 </g>
</svg>
