<?xml version="1.0" encoding="UTF-8"?>
<svg id="svg2" width="16" height="16" enable-background="new" version="1.1" xmlns="http://www.w3.org/2000/svg" xmlns:cc="http://creativecommons.org/ns#" xmlns:dc="http://purl.org/dc/elements/1.1/" xmlns:osb="http://www.openswatchbook.org/uri/2009/osb" xmlns:rdf="http://www.w3.org/1999/02/22-rdf-syntax-ns#">
 <metadata id="metadata90">
  <rdf:RDF>
   <cc:Work rdf:about="">
    <dc:format>image/svg+xml</dc:format>
    <dc:type rdf:resource="http://purl.org/dc/dcmitype/StillImage"/>
   </cc:Work>
  </rdf:RDF>
 </metadata>
 <g id="layer14" transform="translate(-781 239)">
  <path id="path4983" transform="translate(781 -239)" d="m2 2v1c0 0.55016 0.45347 1 1 1 4.9706 0 9 4.0294 9 9 0 0.55016 0.45347 1 1 1h1v-1c0-6.0751-4.9249-11-11-11h-1zm0 4v1c0 0.55016 0.45347 1 1 1 2.7614 0 5 2.2386 5 5 0 0.55016 0.45347 1 1 1h1v-1c0-3.866-3.134-7-7-7h-1zm2 4c-1.1046 0-2 0.89545-2 2s0.89543 2 2 2 2-0.89545 2-2-0.89543-2-2-2z" style="fill:#555"/>
 </g>
</svg>
