<?xml version="1.0" encoding="UTF-8"?>
<!-- Created with Inkscape (http://www.inkscape.org/) -->
<svg id="svg6530" width="16" height="16" version="1.1" viewBox="0 0 16 16" xmlns="http://www.w3.org/2000/svg" xmlns:cc="http://creativecommons.org/ns#" xmlns:dc="http://purl.org/dc/elements/1.1/" xmlns:rdf="http://www.w3.org/1999/02/22-rdf-syntax-ns#">
 <metadata id="metadata6535">
  <rdf:RDF>
   <cc:Work rdf:about="">
    <dc:format>image/svg+xml</dc:format>
    <dc:type rdf:resource="http://purl.org/dc/dcmitype/StillImage"/>
    <dc:title/>
   </cc:Work>
  </rdf:RDF>
 </metadata>
 <g id="layer1" transform="translate(-80 -772.36)">
  <path id="path4953" d="m82.5 772.36c-0.47587-5.2e-4 -0.5 0.50001-0.5 0.50001v0.5l-2-2e-3v-2.6e-4l-1.5e-5 14.502c0 0.277 0.223 0.50003 0.5 0.5l5-5.2e-4c0.277-3e-5 0.5-0.223 0.5-0.5l1.5e-5 -14.501-0.50002 2e-3h-1.5v-0.5c0-0.277-0.223-0.50008-0.5-0.50001z" style="color:#bebebe;fill:#555;opacity:.35"/>
  <path id="path4955" d="m91 775.36c-1.6757 0.11451-3 1.9594-3 4v2e-3h3zm1 0v4.002h3v-2e-3c0-2.0406-1.3243-3.8855-3-4zm-4 5.002v0.0156 0.73242 1.4316c0 2.1153 1.4189 3.8184 3.1816 3.8184h0.63672c1.7627 0 3.1816-1.7031 3.1816-3.8184v-1.4316-0.73242-0.0156z" style="fill:#555"/>
  <path id="path4957" d="m80 780.36v7.502c0 0.277 0.223 0.50003 0.5 0.5h5c0.277-3e-5 0.5-0.223 0.5-0.5v-7.502z" style="color:#bebebe;fill:#555"/>
 </g>
</svg>
