<?xml version="1.0" encoding="UTF-8"?>
<!-- Created with Inkscape (http://www.inkscape.org/) -->
<svg id="svg6530" width="16" height="16" version="1.1" viewBox="0 0 16 16" xmlns="http://www.w3.org/2000/svg" xmlns:cc="http://creativecommons.org/ns#" xmlns:dc="http://purl.org/dc/elements/1.1/" xmlns:rdf="http://www.w3.org/1999/02/22-rdf-syntax-ns#">
 <metadata id="metadata6535">
  <rdf:RDF>
   <cc:Work rdf:about="">
    <dc:format>image/svg+xml</dc:format>
    <dc:type rdf:resource="http://purl.org/dc/dcmitype/StillImage"/>
    <dc:title/>
   </cc:Work>
  </rdf:RDF>
 </metadata>
 <g id="layer1" transform="translate(-32 -936.33)">
  <path id="path5178" d="m39 936.33-0.5 1.0312c0.16191-0.0133 0.3348-0.0312 0.5-0.0312h0.5l-0.5-1zm0 2c-2.7614 0-5 2.2386-5 5 0 0.46958 0.07869 0.91712 0.20117 1.3457 0.51492-0.53202 1.1711-0.93095 1.9141-1.123 0.82344-1.4054 2.2402-2.4414 3.9824-2.4414 1.6424 0 3.059 0.86234 3.8984 2.1465-0.039192-2.7276-2.2591-4.9277-4.9961-4.9277zm-4.9375 0.0625 0.34375 1.0625c0.21905-0.25922 0.45953-0.4997 0.71875-0.71875l-1.0625-0.34375zm9.875 0-1.0938 0.375h-0.0625c0.13917 0.11095 0.27498 0.22511 0.40625 0.34375s0.25799 0.24175 0.375 0.375l0.375-1.0938zm-10.938 4.4375-1 0.5 1.0312 0.5c-0.0148-0.16931-0.03125-0.3264-0.03125-0.5 0-0.0275-2e-3 -0.0836 0-0.15625 6e-3 -0.11583 0.02235-0.23224 0.03125-0.34375h-0.03125zm11.969 0c0.0148 0.16931 0.03125 0.3264 0.03125 0.5 0 0.0275 2e-3 0.0836 0 0.15625-6e-3 0.11583-0.02235 0.23224-0.03125 0.34375h0.03125l1-0.5-1.0312-0.5zm-4.8711 0.28125c-1.1452 0-2.1068 0.69777-2.5254 1.6875l-0.21875 0.51758-0.55469 0.082c-0.70444 0.10472-1.2791 0.56023-1.543 1.1894 0.61174 0.68793 1.4012 1.2165 2.3066 1.4922 0.46885-0.67743 1.1798-1.2053 1.9688-1.4375 0.53603-1.1435 1.6227-2.0541 2.873-2.2637-0.48786-0.75882-1.3319-1.2676-2.3066-1.2676zm-4.9355 4.7344c0.0039 0.0162 0.0113 0.0309 0.01563 0.0469h0.04102c-0.01923-0.0153-0.03755-0.0314-0.05664-0.0469z" style="color:#bebebe;fill:#555"/>
  <path id="path5163" d="m40.097 942.11c-1.5533 0-2.876 0.95094-3.4453 2.2969-1.4459 0.21495-2.5547 1.4474-2.5547 2.9531 0 1.6569 1.3431 3 3 3h6.375c1.4498 0 2.625-1.1752 2.625-2.625 0-1.3474-1.0131-2.4515-2.3203-2.6016-0.34093-1.72-1.8595-3.0234-3.6797-3.0234z" style="enable-background:new;fill:#555"/>
 </g>
</svg>
