<?xml version="1.0" encoding="UTF-8"?>
<!-- Created with Inkscape (http://www.inkscape.org/) -->
<svg id="svg6530" width="24" height="24" version="1.1" viewBox="0 0 24 24" xmlns="http://www.w3.org/2000/svg" xmlns:cc="http://creativecommons.org/ns#" xmlns:dc="http://purl.org/dc/elements/1.1/" xmlns:rdf="http://www.w3.org/1999/02/22-rdf-syntax-ns#">
 <metadata id="metadata6535">
  <rdf:RDF>
   <cc:Work rdf:about="">
    <dc:format>image/svg+xml</dc:format>
    <dc:type rdf:resource="http://purl.org/dc/dcmitype/StillImage"/>
    <dc:title/>
   </cc:Work>
  </rdf:RDF>
 </metadata>
 <g id="layer1" transform="translate(-224 -444.36)">
  <path id="path6532" d="m236 448.36c-1.246 0-2.311 0.75151-2.7656 1.8281v2e-3l5.7656 5.7636v-4.5938c0-1.6621-1.3379-3-3-3zm-5.6562 0.9375-1.4062 1.4062 4.0625 4.0625v1.5938c0 1.6621 1.3379 3 3 3 0.46529 0 0.89908-0.11546 1.2891-0.30468l0.73047 0.73046c-0.59118 0.35212-1.2701 0.57422-2.0195 0.57422-2.2334 0-4-1.7666-4-4v-1h-2v1c0 2.9695 2.1624 5.4322 5 5.9062v2.0938h2v-2.0938c0.91042-0.1521 1.7375-0.52752 2.459-1.041l2.1973 2.1973 1.4062-1.4062-12.719-12.719zm9.6562 6.0625v1c0 0.18587-0.029 0.36236-0.0527 0.54102l1.6367 1.6367c0.26444-0.6756 0.41599-1.4083 0.41599-2.1777v-1h-2z" style="color:#000000;fill:#dbdee0"/>
  <rect id="rect6827" x="228" y="448.36" width="16.001" height="16.001" style="color:#bebebe;fill:none"/>
 </g>
</svg>
