<?xml version="1.0" encoding="UTF-8"?>
<!-- Created with Inkscape (http://www.inkscape.org/) -->
<svg id="svg6530" width="24" height="24" version="1.1" viewBox="0 0 24 24" xmlns="http://www.w3.org/2000/svg" xmlns:cc="http://creativecommons.org/ns#" xmlns:dc="http://purl.org/dc/elements/1.1/" xmlns:rdf="http://www.w3.org/1999/02/22-rdf-syntax-ns#">
 <metadata id="metadata6535">
  <rdf:RDF>
   <cc:Work rdf:about="">
    <dc:format>image/svg+xml</dc:format>
    <dc:type rdf:resource="http://purl.org/dc/dcmitype/StillImage"/>
    <dc:title/>
   </cc:Work>
  </rdf:RDF>
 </metadata>
 <g id="layer1" transform="translate(-152 -300.36)">
  <path id="path5677" d="m164 306.36c-3.0344 0-5.7659 1.0782-8.0312 2.75l0.23242 0.25391h15.51l0.25781-0.28516c-2.2566-1.6533-4.9577-2.7188-7.9688-2.7188zm-2.291 9.0039 2.291 2.4961 2.2656-2.4961h-4.5566z" style="color:#000000;fill:#dbdee0;opacity:.35"/>
  <path id="rect8040-5" d="m159 310.36c-1.108 0-2 0.892-2 2s0.892 2 2 2 2-0.892 2-2-0.892-2-2-2zm5 0c-1.108 0-2 0.892-2 2s0.892 2 2 2 2-0.892 2-2-0.892-2-2-2zm5 0c-1.108 0-2 0.892-2 2s0.892 2 2 2 2-0.892 2-2-0.892-2-2-2z" style="color:#000000;enable-background:new;fill:#dbdee0"/>
 </g>
</svg>
