<?xml version="1.0" encoding="UTF-8"?>
<!-- Created with Inkscape (http://www.inkscape.org/) -->
<svg id="svg6530" width="24" height="24" version="1.1" viewBox="0 0 24 24" xmlns="http://www.w3.org/2000/svg" xmlns:cc="http://creativecommons.org/ns#" xmlns:dc="http://purl.org/dc/elements/1.1/" xmlns:rdf="http://www.w3.org/1999/02/22-rdf-syntax-ns#">
 <metadata id="metadata6535">
  <rdf:RDF>
   <cc:Work rdf:about="">
    <dc:format>image/svg+xml</dc:format>
    <dc:type rdf:resource="http://purl.org/dc/dcmitype/StillImage"/>
    <dc:title/>
   </cc:Work>
  </rdf:RDF>
 </metadata>
 <g id="layer1" transform="translate(-80 -884.36)">
  <path id="path15550" d="m92 887.36a9 9 0 0 0-9 9 9 9 0 0 0 0.0299 0.68906l4.6143 1.4098c0.35865-0.29888 0.79118-0.50955 1.2832-0.59766 0.0411-5e-3 0.0767-0.0202 0.11777-0.0247l1.9969-3.6721c-0.2214-1.9124 1.0614-3.6871 2.9725-4.0219 0.24786-0.0437 0.49605-0.059 0.73828-0.0527 1.6956 0.0496 3.1848 1.2923 3.491 3.0375 0.34991 1.993-0.96303 3.8941-2.9461 4.2416-0.0525 0.0176-0.10095 0.021-0.15468 0.0264l-2.9848 2.9057c0.15676 1.4448-0.81264 2.7821-2.257 3.0357-1.3519 0.2374-2.6578-0.55577-3.1008-1.8158l-2.6772-0.82794a9 9 0 0 0 7.8767 4.667 9 9 0 0 0 9-9 9 9 0 0 0-9-9zm2.4803 3.8848c-0.0833 4e-3 -0.16122 0.0114-0.24609 0.0264-1.3577 0.23827-2.263 1.5399-2.0232 2.9057 0.2396 1.3649 1.5357 2.2758 2.8934 2.0373 1.3576-0.23828 2.2629-1.5406 2.0232-2.9057-0.20964-1.1944-1.2267-2.03-2.3871-2.0637-0.0829-4e-3 -0.17691-4e-3 -0.26016 0zm0.23379 0.66269c0.85108 0.0256 1.5988 0.6559 1.7525 1.5311 0.17572 1.001-0.4966 1.9533-1.4924 2.127-0.99557 0.17501-1.9389-0.49133-2.1146-1.4924-0.1757-1.0009 0.48241-1.9683 1.4783-2.141 0.12445-0.0203 0.2546-0.0292 0.37617-0.0247zm-5.2541 6.474c-0.14587-5e-3 -0.27978 0.0125-0.42891 0.0387-0.24278 0.0424-0.46907 0.12074-0.67324 0.23379l1.452 0.41485c0.80225 0.22332 1.3289 1.1582 1.1039 1.96-0.22498 0.80174-1.1587 1.3165-1.96 1.0898l-1.4133-0.39024c0.45166 0.76456 1.335 1.2123 2.257 1.0512 1.1931-0.20912 1.9877-1.3563 1.7772-2.5559-0.18426-1.0497-1.0937-1.8115-2.1146-1.8422z" style="fill:#dbdee0"/>
 </g>
</svg>
