<?xml version="1.0" encoding="UTF-8"?>
<!-- Created with Inkscape (http://www.inkscape.org/) -->
<svg id="svg6530" width="24" height="24" version="1.1" viewBox="0 0 24 24" xmlns="http://www.w3.org/2000/svg" xmlns:cc="http://creativecommons.org/ns#" xmlns:dc="http://purl.org/dc/elements/1.1/" xmlns:rdf="http://www.w3.org/1999/02/22-rdf-syntax-ns#">
 <metadata id="metadata6535">
  <rdf:RDF>
   <cc:Work rdf:about="">
    <dc:format>image/svg+xml</dc:format>
    <dc:type rdf:resource="http://purl.org/dc/dcmitype/StillImage"/>
    <dc:title/>
   </cc:Work>
  </rdf:RDF>
 </metadata>
 <g id="layer1" transform="translate(-272 -860.36)">
  <path id="path7-4" d="m283.06 862.36v2.2504c-3.1734 0.39894-5.7503 2.7343-6.5318 5.797h2.0078c0.82341-2.2107 3.0036-3.9348 5.3862-3.9187 0.0578-2e-3 0.11626-2e-3 0.17393-2e-3 0.86503 5e-3 1.7153 0.22183 2.4861 0.61021 1.3883 0.63033 2.4191 1.876 2.9228 3.3104h2.0229c-0.78152-3.0626-3.3584-5.3979-6.5318-5.7969v-2.2504zm-6.5318 11.953c0.78152 3.0626 3.3584 5.398 6.5318 5.797v2.2504h1.9359v-2.2504c3.1734-0.39893 5.7503-2.7343 6.5318-5.797h-1.9945c-0.78261 2.3287-3.2015 4.0033-5.6471 3.9168-2.3811 0.0121-4.5411-1.7036-5.3465-3.9168z" style="fill:#dbdee0"/>
  <path id="path22-9" d="m284.03 867.94c-2.3546 0-4.2633 1.9157-4.2633 4.3002 0 0-0.0283 0.40394 0.0942 0.86004h6.5472c-0.17675 0.49799-0.49377 0.94478-0.92427 1.243-0.9904 0.78868-2.4904 0.5019-3.334-0.38299h-2.0267c0.65817 1.518 2.1592 2.5801 3.9069 2.5801 2.3546 0 4.2633-1.9252 4.2633-4.3002 0 0 0-0.44194-0.0848-0.86003h-6.55c0.36857-0.93967 1.2487-1.7012 2.2715-1.71 0.0512-2e-3 0.10218-3e-3 0.15321-2e-3 0.68566 0.014 1.351 0.342 1.8136 0.85164h2.04c-0.65816-1.518-2.1592-2.5801-3.9069-2.5801z" style="fill:#dbdee0"/>
 </g>
</svg>
