<?xml version="1.0" encoding="UTF-8"?>
<!-- Created with Inkscape (http://www.inkscape.org/) -->
<svg id="svg7384" width="16" height="16" style="enable-background:new" version="1.1" xmlns="http://www.w3.org/2000/svg" xmlns:cc="http://creativecommons.org/ns#" xmlns:dc="http://purl.org/dc/elements/1.1/" xmlns:osb="http://www.openswatchbook.org/uri/2009/osb" xmlns:rdf="http://www.w3.org/1999/02/22-rdf-syntax-ns#">
 <metadata id="metadata90">
  <rdf:RDF>
   <cc:Work rdf:about="">
    <dc:format>image/svg+xml</dc:format>
    <dc:type rdf:resource="http://purl.org/dc/dcmitype/StillImage"/>
    <dc:title>Paper Symbolic Icon Theme</dc:title>
    <cc:license rdf:resource="http://creativecommons.org/licenses/by-sa/3.0/"/>
   </cc:Work>
   <cc:License rdf:about="http://creativecommons.org/licenses/by-sa/3.0/">
    <cc:permits rdf:resource="http://creativecommons.org/ns#Reproduction"/>
    <cc:permits rdf:resource="http://creativecommons.org/ns#Distribution"/>
    <cc:requires rdf:resource="http://creativecommons.org/ns#Notice"/>
    <cc:requires rdf:resource="http://creativecommons.org/ns#Attribution"/>
    <cc:permits rdf:resource="http://creativecommons.org/ns#DerivativeWorks"/>
    <cc:requires rdf:resource="http://creativecommons.org/ns#ShareAlike"/>
   </cc:License>
  </rdf:RDF>
 </metadata>
 <title id="title8473">Paper Symbolic Icon Theme</title>
 <defs id="defs7386">
  <filter id="filter7554" style="color-interpolation-filters:sRGB">
   <feBlend id="feBlend7556" in2="BackgroundImage" mode="darken"/>
  </filter>
 </defs>
 <g id="layer12" transform="translate(-765 -65)">
  <path id="rect5922-5" d="m769.5 76 3 3s0.5 0.5 1 0l3-3z" style="enable-background:new;fill:#4d4d4d"/>
  <path id="path8887" d="m773.14 67.014c-2.6781-0.0394-5.2581 1.0069-7.1523 2.9004l-0.70117 0.70117c-0.38825 0.38825-0.38825 1.0141 0 1.4024l2.1035 2.1016c0.38823 0.38824 1.0121 0.38824 1.4004 0l1.2051-1.2031v-2.2578l0.19727-0.082c1.7867-0.78535 3.8215-0.7818 5.6055 0.01l0.19727 0.0723v2.2578l0.50391 0.50195 0.70117 0.70117c0.38825 0.38824 1.0122 0.38824 1.4004 0l2.1035-2.1016c0.38825-0.38825 0.38825-1.0141 0-1.4024l-0.70117-0.70117c-1.8234-1.8227-4.2854-2.8631-6.8633-2.9004z" style="fill:#f44336"/>
 </g>
</svg>
