<?xml version="1.0" encoding="UTF-8"?>
<!-- Created with Inkscape (http://www.inkscape.org/) -->
<svg id="svg7384" width="16" height="16" style="enable-background:new" version="1.1" xmlns="http://www.w3.org/2000/svg" xmlns:cc="http://creativecommons.org/ns#" xmlns:dc="http://purl.org/dc/elements/1.1/" xmlns:osb="http://www.openswatchbook.org/uri/2009/osb" xmlns:rdf="http://www.w3.org/1999/02/22-rdf-syntax-ns#">
 <metadata id="metadata90">
  <rdf:RDF>
   <cc:Work rdf:about="">
    <dc:format>image/svg+xml</dc:format>
    <dc:type rdf:resource="http://purl.org/dc/dcmitype/StillImage"/>
    <dc:title>Paper Symbolic Icon Theme</dc:title>
   </cc:Work>
  </rdf:RDF>
 </metadata>
 <title id="title8473">Paper Symbolic Icon Theme</title>
 <defs id="defs7386">
  <filter id="filter7554" color-interpolation-filters="sRGB">
   <feBlend id="feBlend7556" in2="BackgroundImage" mode="darken"/>
  </filter>
 </defs>
 <g id="layer12" transform="translate(-546 19.01)">
  <g id="g4946" transform="matrix(1 0 0 -1 546 -3.0034)">
   <path id="path4948" transform="translate(-200,-477)" d="m203 478s-1 0-1 1l2e-4 3.0034-2e-4 8.9966c0 1 1 1 1 1h10s1 0 1-1l2e-4 -3.9966-2.0002-3e-3 -2e-4 2.9966-8-3.6e-4 2e-4 -9.9968 8 1.8e-4v3.0004l2.0002 3e-3 -2e-4 -4.0034c0-1-1-1-1-1z" style="color:#555555;enable-background:accumulate;fill:#555"/>
  </g>
  <path id="path4952" d="m557-8.0034v-2h4v-2h-4v-2l-4.5 3z" style="fill:#555"/>
 </g>
</svg>
