<?xml version="1.0" encoding="UTF-8"?>
<!-- Created with Inkscape (http://www.inkscape.org/) -->
<svg id="svg7384" width="16" height="16" style="enable-background:new" version="1.1" xmlns="http://www.w3.org/2000/svg" xmlns:cc="http://creativecommons.org/ns#" xmlns:dc="http://purl.org/dc/elements/1.1/" xmlns:osb="http://www.openswatchbook.org/uri/2009/osb" xmlns:rdf="http://www.w3.org/1999/02/22-rdf-syntax-ns#">
 <metadata id="metadata90">
  <rdf:RDF>
   <cc:Work rdf:about="">
    <dc:format>image/svg+xml</dc:format>
    <dc:type rdf:resource="http://purl.org/dc/dcmitype/StillImage"/>
    <dc:title>Paper Symbolic Icon Theme</dc:title>
   </cc:Work>
  </rdf:RDF>
 </metadata>
 <title id="title8473">Paper Symbolic Icon Theme</title>
 <defs id="defs7386">
  <filter id="filter7554" color-interpolation-filters="sRGB">
   <feBlend id="feBlend7556" in2="BackgroundImage" mode="darken"/>
  </filter>
 </defs>
 <g id="layer12" transform="translate(-485 59.007)">
  <path id="path27294" d="m489-58.007v2h8v-2zm-2 3c-0.5 0-1 0.5-1 1v4c0 0.5 0.5 1 1 1h1v-2h5.125c0.66316-0.63263 1.5507-1.0312 2.5312-1.0312 1.7815 0 3.2906 1.2798 3.625 2.9688 0.39275-0.13746 0.71875-0.53064 0.71875-0.9375v-4c0-0.5-0.5-1-1-1zm2 5v5h5.0938c-1.2537-0.5913-2.125-1.8752-2.125-3.3438 0-0.59537 0.15156-1.1564 0.40625-1.6562z" style="fill:#555"/>
  <path id="path27332" d="m495.66-51.069c-1.4956 0-2.7188 1.2232-2.7188 2.7188s1.2232 2.7188 2.7188 2.7188c0.4871 0 0.94729-0.14835 1.3438-0.375a0.75008 0.75008 0 0 0 0.15625 0.21875l1.8438 1.8125a0.7513 0.7513 0 1 0 1.0625-1.0625l-1.8438-1.8125a0.75008 0.75008 0 0 0-0.21875-0.15625c0.22665-0.39646 0.375-0.85664 0.375-1.3438 0-1.4956-1.2232-2.7188-2.7188-2.7188zm0 1c0.95516 0 1.7188 0.76359 1.7188 1.7188s-0.76359 1.7188-1.7188 1.7188-1.7188-0.76359-1.7188-1.7188 0.76359-1.7188 1.7188-1.7188z" style="block-progression:tb;color:#000000;enable-background:new;fill:#555;text-indent:0;text-transform:none"/>
 </g>
</svg>
