<?xml version="1.0" encoding="UTF-8"?>
<!-- Created with Inkscape (http://www.inkscape.org/) -->
<svg id="svg7384" width="16" height="16" style="enable-background:new" version="1.1" xmlns="http://www.w3.org/2000/svg" xmlns:cc="http://creativecommons.org/ns#" xmlns:dc="http://purl.org/dc/elements/1.1/" xmlns:osb="http://www.openswatchbook.org/uri/2009/osb" xmlns:rdf="http://www.w3.org/1999/02/22-rdf-syntax-ns#">
 <metadata id="metadata90">
  <rdf:RDF>
   <cc:Work rdf:about="">
    <dc:format>image/svg+xml</dc:format>
    <dc:type rdf:resource="http://purl.org/dc/dcmitype/StillImage"/>
    <dc:title>Paper Symbolic Icon Theme</dc:title>
   </cc:Work>
  </rdf:RDF>
 </metadata>
 <title id="title8473">Paper Symbolic Icon Theme</title>
 <defs id="defs7386">
  <filter id="filter7554" style="color-interpolation-filters:sRGB">
   <feBlend id="feBlend7556" in2="BackgroundImage" mode="darken"/>
  </filter>
 </defs>
 <g id="layer12" transform="translate(-385 -141)">
  <path id="path2986-2" d="m387.34 141.93 12.719 12.719-1.4062 1.4062-12.719-12.719z" style="color:#000000;enable-background:accumulate;fill:#555"/>
  <path id="path11113" d="m393 144c-0.52394 0-1.0064 0.0496-1.4707 0.11914l1.9199 1.9199a3 3 0 0 1 2.5156 2.5156l3.1094 3.1094c1.3737-1.3022 1.9258-2.6641 1.9258-2.6641s-2-5-8-5zm-3.666 0.73633c-3.1772 1.3876-4.334 4.2598-4.334 4.2598s2 5.0039 8 5.0039c1.8492 0 3.315-0.47765 4.4629-1.1348l-2.0664-2.0664a3 3 0 0 1-2.3965 1.2012 3 3 0 0 1-3-3 3 3 0 0 1 1.2012-2.3965l-1.8672-1.8672z" style="fill-rule:evenodd;fill:#555"/>
 </g>
</svg>
