<?xml version="1.0" encoding="UTF-8"?>
<!-- Created with Inkscape (http://www.inkscape.org/) -->
<svg id="svg7384" width="16" height="16" style="enable-background:new" version="1.1" xmlns="http://www.w3.org/2000/svg" xmlns:cc="http://creativecommons.org/ns#" xmlns:dc="http://purl.org/dc/elements/1.1/" xmlns:osb="http://www.openswatchbook.org/uri/2009/osb" xmlns:rdf="http://www.w3.org/1999/02/22-rdf-syntax-ns#">
 <metadata id="metadata90">
  <rdf:RDF>
   <cc:Work rdf:about="">
    <dc:format>image/svg+xml</dc:format>
    <dc:type rdf:resource="http://purl.org/dc/dcmitype/StillImage"/>
    <dc:title>Paper Symbolic Icon Theme</dc:title>
   </cc:Work>
  </rdf:RDF>
 </metadata>
 <title id="title8473">Paper Symbolic Icon Theme</title>
 <defs id="defs7386">
  <filter id="filter7554" color-interpolation-filters="sRGB">
   <feBlend id="feBlend7556" in2="BackgroundImage" mode="darken"/>
  </filter>
 </defs>
 <g id="layer12" transform="translate(-445 -141)">
  <rect id="rect44755" x="446" y="142" width="2" height="2" style="color:#000000;enable-background:new;fill:#555"/>
  <rect id="rect44757" x="448" y="142" width="2" height="2" style="color:#000000;enable-background:new;fill:#555"/>
  <rect id="rect44759" x="450" y="142" width="2" height="2" style="color:#000000;enable-background:new;fill:#555"/>
  <rect id="rect44761" x="450" y="144" width="2" height="2" style="color:#000000;enable-background:new;fill:#555"/>
  <rect id="rect44763" x="448" y="146" width="2" height="2" style="color:#000000;enable-background:new;fill:#555"/>
  <rect id="rect44765" x="446" y="148" width="2" height="2" style="color:#000000;enable-background:new;fill:#555"/>
  <rect id="rect44767" x="448" y="150" width="2" height="2" style="color:#000000;enable-background:new;fill:#555"/>
  <rect id="rect44769" x="450" y="148" width="2" height="2" style="color:#000000;enable-background:new;fill:#555"/>
  <rect id="rect44771" x="452" y="146" width="2" height="2" style="color:#000000;enable-background:new;fill:#555"/>
  <rect id="rect44773" x="454" y="146" width="2" height="2" style="color:#000000;enable-background:new;fill:#555"/>
  <rect id="rect44775" x="454" y="142" width="2" height="2" style="color:#000000;enable-background:new;fill:#555"/>
  <rect id="rect44777" x="456" y="144" width="2" height="2" style="color:#000000;enable-background:new;fill:#555"/>
  <rect id="rect44779" x="456" y="150" width="2" height="2" style="color:#000000;enable-background:new;fill:#555"/>
  <rect id="rect44781" x="452" y="152" width="2" height="2" style="color:#000000;enable-background:new;fill:#555"/>
  <rect id="rect44783" x="454" y="154" width="2" height="2" style="color:#000000;enable-background:new;fill:#555"/>
  <rect id="rect44785" x="448" y="154" width="2" height="2" style="color:#000000;enable-background:new;fill:#555"/>
  <rect id="rect44787" x="458" y="152" width="2" height="2" style="color:#000000;enable-background:new;fill:#555"/>
  <rect id="rect44789" x="458" y="154" width="2" height="2" style="color:#000000;enable-background:new;fill:#555"/>
  <rect id="rect44791" x="458" y="154" width="2" height="2" style="color:#000000;enable-background:new;fill:#555"/>
 </g>
</svg>
