<?xml version="1.0" encoding="UTF-8"?>
<!-- Created with Inkscape (http://www.inkscape.org/) -->
<svg id="svg7384" width="16" height="16" style="enable-background:new" version="1.1" xmlns="http://www.w3.org/2000/svg" xmlns:cc="http://creativecommons.org/ns#" xmlns:dc="http://purl.org/dc/elements/1.1/" xmlns:osb="http://www.openswatchbook.org/uri/2009/osb" xmlns:rdf="http://www.w3.org/1999/02/22-rdf-syntax-ns#">
 <metadata id="metadata90">
  <rdf:RDF>
   <cc:Work rdf:about="">
    <dc:format>image/svg+xml</dc:format>
    <dc:type rdf:resource="http://purl.org/dc/dcmitype/StillImage"/>
    <dc:title>Paper Symbolic Icon Theme</dc:title>
   </cc:Work>
  </rdf:RDF>
 </metadata>
 <title id="title8473">Paper Symbolic Icon Theme</title>
 <defs id="defs7386">
  <filter id="filter7554" style="color-interpolation-filters:sRGB">
   <feBlend id="feBlend7556" in2="BackgroundImage" mode="darken"/>
  </filter>
 </defs>
 <g id="g71291" transform="translate(-665 139)">
  <path id="path8008" d="m666-138 0.90625 3.5938c-0.17544 0.31076-0.3421 0.62736-0.46875 0.96875v0.0312c-0.0154 0.0421-0.0479 0.0825-0.0625 0.125-0.0417 0.12169-0.0587 0.25038-0.0937 0.375-0.0384 0.1348-0.0632 0.26821-0.0937 0.40625-0.0113 0.0516-0.0211 0.10425-0.0312 0.15625-0.0123 0.0626-0.0206 0.1244-0.0312 0.1875-0.0246 0.14763-0.0784 0.2869-0.0937 0.4375-3e-3 0.0306 3e-3 0.0634 0 0.0937-0.0181 0.20546-0.0312 0.41483-0.0312 0.625 0 3.866 3.134 7 7 7 0.24162 0 0.48363-7e-3 0.71875-0.0312 3.5295-0.35842 6.2812-3.3444 6.2812-6.9688 0-0.39665-0.061-0.77692-0.125-1.1562-0.0104-0.0627-0.019-0.1253-0.0312-0.1875-0.0104-0.0532-0.0195-0.10345-0.0312-0.15625-0.0293-0.13406-0.0568-0.27519-0.0937-0.40625-0.0347-0.12169-0.0528-0.25621-0.0937-0.375-0.0154-0.0448-0.0463-0.0806-0.0625-0.125-0.12937-0.35332-0.29014-0.67806-0.46875-1l0.90575-3.5937-2.8125 1.4062c-0.20531-0.15552-0.4295-0.30443-0.65625-0.4375-0.26073-0.15301-0.53162-0.28745-0.8125-0.40625-0.24827-0.10627-0.48817-0.20365-0.75-0.28125-0.33157-0.0966-0.68132-0.17195-1.0312-0.21875-0.31045-0.0432-0.61484-0.0625-0.9375-0.0625-0.48325 0-0.95027 0.0629-1.4062 0.15625-0.18504 0.0388-0.38316 0.0718-0.5625 0.125-0.26121 0.0761-0.50238 0.17652-0.75 0.28125-0.28088 0.1188-0.55177 0.25324-0.8125 0.40625-0.22675 0.13307-0.45094 0.28198-0.65625 0.4375l-2.8125-1.4062zm1.875 4.4375c0.0413-0.0146 0.0913-5e-3 0.0937 0 4e-3 0.0214 3.6998 0.53125 3.7188 0.53125 0.3278 0.2889 0.2495 0.74705 0.0625 1.0312-2e-3 4e-3 -0.42875 1e-3 -0.77734 0 8.9e-4 1e-3 9e-4 3e-3 2e-3 4e-3l-0.97461-9e-5c0.55407 0 1 0.44945 1 1 0 0.55064-0.44593 1-1 1-0.55424 0-1-0.44936-1-1 0-0.55055 0.44576-1 1-1h-0.97461c8.9e-4 -1e-3 9e-4 -3e-3 2e-3 -4e-3 -0.54001-4.3e-4 -1.1523 0-1.1523 0s-0.47225-0.44095-0.40625-0.96875c0.0494-0.3957 0.28242-0.54989 0.40625-0.59375zm10.156 0c0.01-0.022 0.4341 0.0661 0.5 0.59375 0.066 0.5278-0.40625 0.96875-0.40625 0.96875s-0.61233-4.3e-4 -1.1523 0c8.9e-4 1e-3 9e-4 3e-3 2e-3 4e-3l-0.97466-9e-5c0.55415 0 1 0.44945 1 1 0 0.55064-0.44585 1-1 1-0.55407 0-1-0.44936-1-1 0-0.55055 0.44593-1 1-1h-0.97461c8.9e-4 -1e-3 9e-4 -3e-3 2e-3 -4e-3 -0.34859 1e-3 -0.77521 4e-3 -0.77734 0-0.1871-0.2842-0.2654-0.74235 0.0625-1.0312 0.019 0 3.7144-0.50985 3.7188-0.53125zm-7.8574 5.3926c0.74922 0.75042 1.7658 1.1728 2.8262 1.1738 1.0604-1e-3 2.077-0.42341 2.8262-1.1738l0.70703 0.70703c-0.93673 0.93797-2.2076 1.4658-3.5332 1.4668-1.3256-1e-3 -2.5965-0.52883-3.5332-1.4668l0.70703-0.70703z" style="color:#bebebe;enable-background:accumulate;fill:#555"/>
 </g>
</svg>
