<?xml version="1.0" encoding="UTF-8"?>
<!-- Created with Inkscape (http://www.inkscape.org/) -->
<svg id="svg7384" width="16.094" height="16" style="enable-background:new" version="1.1" xmlns="http://www.w3.org/2000/svg" xmlns:cc="http://creativecommons.org/ns#" xmlns:dc="http://purl.org/dc/elements/1.1/" xmlns:osb="http://www.openswatchbook.org/uri/2009/osb" xmlns:rdf="http://www.w3.org/1999/02/22-rdf-syntax-ns#">
 <metadata id="metadata90">
  <rdf:RDF>
   <cc:Work rdf:about="">
    <dc:format>image/svg+xml</dc:format>
    <dc:type rdf:resource="http://purl.org/dc/dcmitype/StillImage"/>
    <dc:title>Paper Symbolic Icon Theme</dc:title>
   </cc:Work>
  </rdf:RDF>
 </metadata>
 <title id="title8473">Paper Symbolic Icon Theme</title>
 <defs id="defs7386">
  <filter id="filter7554" style="color-interpolation-filters:sRGB">
   <feBlend id="feBlend7556" in2="BackgroundImage" mode="darken"/>
  </filter>
 </defs>
 <g id="g71291" transform="translate(-724.91 119)">
  <path id="path9123" d="m732.75-118.94c-1.2273 0.73385-1.0624 1.6325-0.90625 2.0312-1.8073 0.26848-3.5488 1.3112-4.125 3.1875-0.28347-0.21168-0.58797-0.34375-0.9375-0.34375-1.0338 0-1.875 1.0827-1.875 2.375s0.84115 2.3438 1.875 2.3438c0.46667 0 0.88574-0.21164 1.2188-0.5625 2.719-1.2736 7.0925-1.4662 9.875 0.0312 0.31962 0.32225 0.71112 0.53125 1.1562 0.53125 1.0338 0 1.875-1.0514 1.875-2.3438s-0.84115-2.375-1.875-2.375c-0.42839 0-0.81111 0.19311-1.125 0.5-0.50745-1.702-1.8398-2.9102-3.8125-3.2812-0.17036-0.63874-0.28432-1.9159 1.625-1.7812-2.1695-0.79311-2.7188 1.625-2.7188 1.625-0.26551-0.11722-0.96537-0.6383-0.25-1.9375zm-1.75 4.9414c0.55407 0 1 0.44945 1 1 0 0.55064-0.44593 1-1 1-0.55424 0-1-0.44936-1-1 0-0.55055 0.44576-1 1-1zm4 0c0.55415 0 1 0.44945 1 1 0 0.55064-0.44585 1-1 1-0.55407 0-1-0.44936-1-1 0-0.55055 0.44593-1 1-1zm-8.0938 0.99609c0.25587 0 0.47396 0.14945 0.65625 0.34375-0.0332 0.52908-0.0185 1.1183 0.125 1.75-0.19168 0.29374-0.45209 0.5-0.78125 0.5-0.57176 0-1.0312-0.56655-1.0312-1.2812s0.45949-1.3125 1.0312-1.3125zm12.031 0c0.57182 0 1.0625 0.59772 1.0625 1.3125s-0.49068 1.2812-1.0625 1.2812c-0.37247 0-0.65921-0.26193-0.84375-0.625 0.055-0.48001 0.0368-0.93512 0-1.375 0.18776-0.35024 0.48432-0.59375 0.84375-0.59375z" style="fill:#555"/>
  <path id="path8939" d="m733-110c-3.311 0-6 1.3368-6 2.9863 0 1.6495 2.689 2.9863 6 2.9863s6-1.3368 6-2.9863c0-1.6495-2.689-2.9863-6-2.9863zm-2.8262 1.8125c0.74922 0.75042 1.7658 1.1728 2.8262 1.1738 1.0604-1e-3 2.077-0.42341 2.8262-1.1738l0.70703 0.70703c-0.93673 0.93797-2.2076 1.4658-3.5332 1.4668-1.3256-1e-3 -2.5965-0.52883-3.5332-1.4668l0.70703-0.70703z" style="color:#000000;fill:#555"/>
 </g>
</svg>
