<?xml version="1.0" encoding="UTF-8"?>
<!-- Created with Inkscape (http://www.inkscape.org/) -->
<svg id="svg7384" width="16" height="16" style="enable-background:new" version="1.1" xmlns="http://www.w3.org/2000/svg" xmlns:cc="http://creativecommons.org/ns#" xmlns:dc="http://purl.org/dc/elements/1.1/" xmlns:osb="http://www.openswatchbook.org/uri/2009/osb" xmlns:rdf="http://www.w3.org/1999/02/22-rdf-syntax-ns#">
 <metadata id="metadata90">
  <rdf:RDF>
   <cc:Work rdf:about="">
    <dc:format>image/svg+xml</dc:format>
    <dc:type rdf:resource="http://purl.org/dc/dcmitype/StillImage"/>
    <dc:title>Paper Symbolic Icon Theme</dc:title>
   </cc:Work>
  </rdf:RDF>
 </metadata>
 <title id="title8473">Paper Symbolic Icon Theme</title>
 <defs id="defs7386">
  <filter id="filter7554" color-interpolation-filters="sRGB">
   <feBlend id="feBlend7556" in2="BackgroundImage" mode="darken"/>
  </filter>
 </defs>
 <g id="layer15" transform="translate(-725 230.97)">
  <path id="path8675" d="m741-223h-2c0-2.7624-1.8654-5.0836-4.4062-5.7812-0.0316-9e-3 -0.0621-0.023-0.0937-0.0312-0.25518-0.0655-0.51414-0.0934-0.78125-0.125-0.23328-0.0276-0.47806-0.0625-0.71875-0.0625-0.6163 6.4e-4 -1.2289 0.0951-1.8125 0.28125v0.0312c-0.84159 0.26706-1.6136 0.69432-2.25 1.2812l1.1875 1.5938c0.502-0.51324 1.1581-0.84637 1.875-1.0312v-0.0312c0.38012-0.0893 0.78962-0.12172 1.1875-0.0937 0.1818 0.0128 0.34929 0.0286 0.53125 0.0625 1.8671 0.33781 3.2812 1.9418 3.2812 3.9062h-2l3 4 3-4zm-3.9375 4.4062-1.1875-1.5938c-0.502 0.51324-1.1581 0.84637-1.875 1.0312v0.0312c-0.38012 0.0893-0.78962 0.12172-1.1875 0.0937-0.1818-0.0128-0.34929-0.0286-0.53125-0.0625-1.8671-0.33781-3.2812-1.9418-3.2812-3.9062h2l-3-4-3 4h2c0 2.7624 1.8654 5.0836 4.4062 5.7812 0.0322 9e-3 0.0613 0.0229 0.0937 0.0312 0.25518 0.0655 0.51414 0.0934 0.78125 0.125 0.23328 0.0276 0.47806 0.0625 0.71875 0.0625 0.6163-6.4e-4 1.2289-0.0951 1.8125-0.28125v-0.0312c0.84159-0.26706 1.6136-0.69432 2.25-1.2812z" style="fill:#555"/>
 </g>
</svg>
