<?xml version="1.0" encoding="UTF-8"?>
<!-- Created with Inkscape (http://www.inkscape.org/) -->
<svg id="svg7384" width="16" height="16" style="enable-background:new" version="1.1" xmlns="http://www.w3.org/2000/svg" xmlns:cc="http://creativecommons.org/ns#" xmlns:dc="http://purl.org/dc/elements/1.1/" xmlns:osb="http://www.openswatchbook.org/uri/2009/osb" xmlns:rdf="http://www.w3.org/1999/02/22-rdf-syntax-ns#">
 <metadata id="metadata90">
  <rdf:RDF>
   <cc:Work rdf:about="">
    <dc:format>image/svg+xml</dc:format>
    <dc:type rdf:resource="http://purl.org/dc/dcmitype/StillImage"/>
    <dc:title>Paper Symbolic Icon Theme</dc:title>
    <cc:license rdf:resource="http://creativecommons.org/licenses/by-sa/3.0/"/>
   </cc:Work>
   <cc:License rdf:about="http://creativecommons.org/licenses/by-sa/3.0/">
    <cc:permits rdf:resource="http://creativecommons.org/ns#Reproduction"/>
    <cc:permits rdf:resource="http://creativecommons.org/ns#Distribution"/>
    <cc:requires rdf:resource="http://creativecommons.org/ns#Notice"/>
    <cc:requires rdf:resource="http://creativecommons.org/ns#Attribution"/>
    <cc:permits rdf:resource="http://creativecommons.org/ns#DerivativeWorks"/>
    <cc:requires rdf:resource="http://creativecommons.org/ns#ShareAlike"/>
   </cc:License>
  </rdf:RDF>
 </metadata>
 <title id="title8473">Paper Symbolic Icon Theme</title>
 <defs id="defs7386">
  <filter id="filter7554" style="color-interpolation-filters:sRGB">
   <feBlend id="feBlend7556" in2="BackgroundImage" mode="darken"/>
  </filter>
 </defs>
 <g id="layer9" transform="translate(-404 295)">
  <path id="path9016" d="m412-294 1.793 1.793-1.793 1.793-3-3-1.4141 1.4141 3.707 3.707a1.0001 1.0001 0 0 0 1.4141 0l2.5-2.5 1.793 1.793v-5h-5z" style="block-progression:tb;color-rendering:auto;color:#000000;enable-background:accumulate;fill-rule:evenodd;fill:#525252;image-rendering:auto;isolation:auto;mix-blend-mode:normal;opacity:.35;shape-rendering:auto;solid-color:#000000;text-decoration-color:#000000;text-decoration-line:none;text-decoration-style:solid;text-indent:0;text-transform:none;white-space:normal"/>
  <path id="path8887-1" d="m412.14-286.99c-2.6781-0.0394-5.2581 1.0069-7.1523 2.9004l-0.70117 0.70117c-0.38825 0.38825-0.38825 1.0141 0 1.4024l2.1035 2.1016c0.38823 0.38824 1.0121 0.38824 1.4004 0l1.2051-1.2031v-2.2578l0.19727-0.082c1.7867-0.78535 3.8215-0.7818 5.6055 0.01l0.19727 0.0723v2.2578l0.50391 0.50195 0.70117 0.70117c0.38825 0.38825 1.0122 0.38824 1.4004 0l2.1035-2.1016c0.38825-0.38825 0.38825-1.0141 0-1.4024l-0.70117-0.70117c-1.8234-1.8227-4.2854-2.8631-6.8633-2.9004z" style="fill:#4d4d4d"/>
 </g>
</svg>
