<?xml version="1.0" encoding="UTF-8"?>
<!-- Created with Inkscape (http://www.inkscape.org/) -->
<svg id="svg7384" width="16" height="16" style="enable-background:new" version="1.1" xmlns="http://www.w3.org/2000/svg" xmlns:cc="http://creativecommons.org/ns#" xmlns:dc="http://purl.org/dc/elements/1.1/" xmlns:osb="http://www.openswatchbook.org/uri/2009/osb" xmlns:rdf="http://www.w3.org/1999/02/22-rdf-syntax-ns#">
 <metadata id="metadata90">
  <rdf:RDF>
   <cc:Work rdf:about="">
    <dc:format>image/svg+xml</dc:format>
    <dc:type rdf:resource="http://purl.org/dc/dcmitype/StillImage"/>
    <dc:title>Paper Symbolic Icon Theme</dc:title>
    <cc:license rdf:resource="http://creativecommons.org/licenses/by-sa/3.0/"/>
   </cc:Work>
   <cc:License rdf:about="http://creativecommons.org/licenses/by-sa/3.0/">
    <cc:permits rdf:resource="http://creativecommons.org/ns#Reproduction"/>
    <cc:permits rdf:resource="http://creativecommons.org/ns#Distribution"/>
    <cc:requires rdf:resource="http://creativecommons.org/ns#Notice"/>
    <cc:requires rdf:resource="http://creativecommons.org/ns#Attribution"/>
    <cc:permits rdf:resource="http://creativecommons.org/ns#DerivativeWorks"/>
    <cc:requires rdf:resource="http://creativecommons.org/ns#ShareAlike"/>
   </cc:License>
  </rdf:RDF>
 </metadata>
 <title id="title8473">Paper Symbolic Icon Theme</title>
 <defs id="defs7386">
  <filter id="filter7554" style="color-interpolation-filters:sRGB">
   <feBlend id="feBlend7556" in2="BackgroundImage" mode="darken"/>
  </filter>
 </defs>
 <g id="layer9" transform="translate(-425 495)">
  <path id="path7810" d="m433-494.28c-0.73799 0.72824-1.4448 1.5568-2.1914 2.2812h-2.8086v2.8086c-0.72459 0.74666-1.5529 1.4534-2.2812 2.1914 0.72849 0.73824 1.5566 1.4735 2.2812 2.2227v2.7773h2.8066c0.74736 0.725 1.4547 1.5523 2.1934 2.2812 0.73886-0.7291 1.4748-1.5562 2.2246-2.2812h2.7754v-2.7773c0.72474-0.74912 1.5527-1.4844 2.2812-2.2227-0.72829-0.73805-1.5567-1.4447-2.2812-2.1914v-2.8086h-2.7773c-0.74913-0.72473-1.4844-1.5527-2.2227-2.2812zm0 3.2812c2.2091 0 4 1.7909 4 4s-1.7909 4-4 4-4-1.7909-4-4 1.7909-4 4-4z" style="fill:#4d4d4d;opacity:.35"/>
  <path id="path7814" d="m433-490c-1.6568 0-3 1.3432-3 3s1.3432 3 3 3z" style="fill:#4d4d4d;opacity:.35"/>
 </g>
</svg>
