<?xml version="1.0" encoding="UTF-8"?>
<!-- Created with Inkscape (http://www.inkscape.org/) -->
<svg id="svg7384" width="16" height="16" style="enable-background:new" version="1.1" xmlns="http://www.w3.org/2000/svg" xmlns:cc="http://creativecommons.org/ns#" xmlns:dc="http://purl.org/dc/elements/1.1/" xmlns:osb="http://www.openswatchbook.org/uri/2009/osb" xmlns:rdf="http://www.w3.org/1999/02/22-rdf-syntax-ns#">
 <metadata id="metadata90">
  <rdf:RDF>
   <cc:Work rdf:about="">
    <dc:format>image/svg+xml</dc:format>
    <dc:type rdf:resource="http://purl.org/dc/dcmitype/StillImage"/>
    <dc:title>Paper Symbolic Icon Theme</dc:title>
    <cc:license rdf:resource="http://creativecommons.org/licenses/by-sa/3.0/"/>
   </cc:Work>
   <cc:License rdf:about="http://creativecommons.org/licenses/by-sa/3.0/">
    <cc:permits rdf:resource="http://creativecommons.org/ns#Reproduction"/>
    <cc:permits rdf:resource="http://creativecommons.org/ns#Distribution"/>
    <cc:requires rdf:resource="http://creativecommons.org/ns#Notice"/>
    <cc:requires rdf:resource="http://creativecommons.org/ns#Attribution"/>
    <cc:permits rdf:resource="http://creativecommons.org/ns#DerivativeWorks"/>
    <cc:requires rdf:resource="http://creativecommons.org/ns#ShareAlike"/>
   </cc:License>
  </rdf:RDF>
 </metadata>
 <title id="title8473">Paper Symbolic Icon Theme</title>
 <defs id="defs7386">
  <filter id="filter7554" style="color-interpolation-filters:sRGB">
   <feBlend id="feBlend7556" in2="BackgroundImage" mode="darken"/>
  </filter>
 </defs>
 <g id="layer9" transform="translate(-505 295)">
  <path id="path6718" class="success" d="m512.88-294c-1.3453 0.0265-2.6952 0.44583-3.8828 1.2774-3.1668 2.2174-3.9323 6.5597-1.7148 9.7266 2.2174 3.1668 6.5578 3.9323 9.7246 1.7148 2.2774-1.5946 3.312-4.2822 2.8906-6.8535-0.0982-0.6008-0.285-1.16-0.52734-1.7012l-6.3516 7.2578-0.6875 0.8125-0.78124-0.75-3-3c-0.37639-0.37633-0.37636-1.0611 0-1.4375 0.37636-0.37635 1.0612-0.37638 1.4375 0l2.25 2.25 6.0234-6.8926c-1.0768-1.2413-2.5092-2.0303-4.043-2.3008-0.44106-0.0778-0.88946-0.11236-1.3379-0.10352z" style="color:#000000;enable-background:accumulate;fill:#1ea362"/>
 </g>
</svg>
