<?xml version="1.0" encoding="UTF-8"?>
<!-- Created with Inkscape (http://www.inkscape.org/) -->
<svg id="svg7384" width="16.002" height="16.005" style="enable-background:new" version="1.1" xmlns="http://www.w3.org/2000/svg" xmlns:cc="http://creativecommons.org/ns#" xmlns:dc="http://purl.org/dc/elements/1.1/" xmlns:osb="http://www.openswatchbook.org/uri/2009/osb" xmlns:rdf="http://www.w3.org/1999/02/22-rdf-syntax-ns#">
 <metadata id="metadata90">
  <rdf:RDF>
   <cc:Work rdf:about="">
    <dc:format>image/svg+xml</dc:format>
    <dc:type rdf:resource="http://purl.org/dc/dcmitype/StillImage"/>
    <dc:title>Paper Symbolic Icon Theme</dc:title>
    <cc:license rdf:resource="http://creativecommons.org/licenses/by-sa/3.0/"/>
   </cc:Work>
   <cc:License rdf:about="http://creativecommons.org/licenses/by-sa/3.0/">
    <cc:permits rdf:resource="http://creativecommons.org/ns#Reproduction"/>
    <cc:permits rdf:resource="http://creativecommons.org/ns#Distribution"/>
    <cc:requires rdf:resource="http://creativecommons.org/ns#Notice"/>
    <cc:requires rdf:resource="http://creativecommons.org/ns#Attribution"/>
    <cc:permits rdf:resource="http://creativecommons.org/ns#DerivativeWorks"/>
    <cc:requires rdf:resource="http://creativecommons.org/ns#ShareAlike"/>
   </cc:License>
  </rdf:RDF>
 </metadata>
 <title id="title8473">Paper Symbolic Icon Theme</title>
 <defs id="defs7386">
  <filter id="filter7554" style="color-interpolation-filters:sRGB">
   <feBlend id="feBlend7556" in2="BackgroundImage" mode="darken"/>
  </filter>
 </defs>
 <g id="layer9" transform="translate(-425 395.01)">
  <path id="path6240" d="m432.75-393.97c-2.7628 0.10144-5.3087 1.8046-6.3125 4.5625-1.2638 3.4723 0.36867 7.3246 3.6875 8.8125-0.0932-0.33746-0.14688-0.70692-0.125-1.0625 0.0277-1.0012 0.58397-1.8874 1.375-2.4688-1.5669-1.7332-2.1356-4.2465-1.2812-6.5938 0.51416-1.4126 1.4744-2.5084 2.6562-3.25z" style="color:#bebebe;enable-background:accumulate;fill:#555"/>
  <circle id="path6317" transform="matrix(.93969 .34202 -.34202 .93969 0 0)" cx="274.52" cy="-511.76" r="7" style="color:#bebebe;enable-background:accumulate;opacity:0"/>
  <path id="path6258" d="m436-386c-1.3117 0-2.4048 0.85843-2.8125 2.0312-1.2308 0.15597-2.1875 1.1956-2.1875 2.4688 0 1.3807 1.1193 2.5 2.5 2.5h2.5 2.5c1.3807 0 2.5-1.1193 2.5-2.5 0-1.2732-0.95667-2.3128-2.1875-2.4688-0.40768-1.1728-1.5008-2.0312-2.8125-2.0312z" style="fill:#555"/>
 </g>
</svg>
