<?xml version="1.0" encoding="UTF-8"?>
<!-- Created with Inkscape (http://www.inkscape.org/) -->
<svg id="svg7384" width="16" height="16.003" style="enable-background:new" version="1.1" xmlns="http://www.w3.org/2000/svg" xmlns:cc="http://creativecommons.org/ns#" xmlns:dc="http://purl.org/dc/elements/1.1/" xmlns:osb="http://www.openswatchbook.org/uri/2009/osb" xmlns:rdf="http://www.w3.org/1999/02/22-rdf-syntax-ns#">
 <metadata id="metadata90">
  <rdf:RDF>
   <cc:Work rdf:about="">
    <dc:format>image/svg+xml</dc:format>
    <dc:type rdf:resource="http://purl.org/dc/dcmitype/StillImage"/>
    <dc:title>Paper Symbolic Icon Theme</dc:title>
    <cc:license rdf:resource="http://creativecommons.org/licenses/by-sa/3.0/"/>
   </cc:Work>
   <cc:License rdf:about="http://creativecommons.org/licenses/by-sa/3.0/">
    <cc:permits rdf:resource="http://creativecommons.org/ns#Reproduction"/>
    <cc:permits rdf:resource="http://creativecommons.org/ns#Distribution"/>
    <cc:requires rdf:resource="http://creativecommons.org/ns#Notice"/>
    <cc:requires rdf:resource="http://creativecommons.org/ns#Attribution"/>
    <cc:permits rdf:resource="http://creativecommons.org/ns#DerivativeWorks"/>
    <cc:requires rdf:resource="http://creativecommons.org/ns#ShareAlike"/>
   </cc:License>
  </rdf:RDF>
 </metadata>
 <title id="title8473">Paper Symbolic Icon Theme</title>
 <defs id="defs7386">
  <filter id="filter7554" style="color-interpolation-filters:sRGB">
   <feBlend id="feBlend7556" in2="BackgroundImage" mode="darken"/>
  </filter>
 </defs>
 <g id="layer9" transform="translate(-405 395)">
  <path id="path6258-7" d="m416-386c-1.3117 0-2.4048 0.85843-2.8125 2.0312-1.2308 0.15597-2.1875 1.1956-2.1875 2.4688 0 1.3807 1.1193 2.5 2.5 2.5h2.5 2.5c1.3807 0 2.5-1.1193 2.5-2.5 0-1.2732-0.95667-2.3128-2.1875-2.4688-0.40768-1.1728-1.5008-2.0312-2.8125-2.0312z" style="enable-background:new;fill:#555"/>
  <path id="path6096" d="m412-395-0.5 1.0312c0.16191-0.0133 0.3348-0.0312 0.5-0.0312h0.5l-0.5-1zm0 2c-2.7614 0-5 2.2386-5 5 0 2.2518 1.5098 4.122 3.5566 4.748 0.22062-0.32 0.49551-0.60066 0.81445-0.83399 0.0327-0.025 0.0642-0.0503 0.0977-0.0742 0.0738-0.0504 0.15099-0.0951 0.22852-0.14062 0.26263-0.16036 0.5375-0.29826 0.83007-0.38477 0.0699-0.14241 0.14873-0.28003 0.23243-0.41406 0.46726-0.74825 1.146-1.3451 1.9688-1.6582a3 3 0 0 0 0-2e-3c3e-3 -1e-3 6e-3 -3e-3 0.01-4e-3 0.16572-0.0625 0.33666-0.11275 0.51367-0.15039 0.0425-0.01 0.0841-0.0213 0.12696-0.0293 0.20075-0.0349 0.40729-0.0565 0.62081-0.0565 0.15224-2e-3 0.29866 0.0119 0.44336 0.0352 0.14869 0.0183 0.29191 0.0482 0.43359 0.084 0.0836-0.36249 0.12305-0.73127 0.12305-1.1192 0-2.7614-2.2386-5-5-5zm-4.9375 0.0625 0.34375 1.0625c0.21905-0.25922 0.45953-0.4997 0.71875-0.71875l-1.0625-0.34375zm9.875 0-1.0938 0.375h-0.0625c0.13917 0.11095 0.27498 0.22511 0.40625 0.34375s0.25799 0.24175 0.375 0.375l0.375-1.0938zm-10.938 4.4375-1 0.5 1.0312 0.5c-0.0148-0.16931-0.0312-0.3264-0.0312-0.5 0-0.0275-2e-3 -0.0836 0-0.15625 6e-3 -0.11583 0.0223-0.23224 0.0312-0.34375h-0.0312zm11.969 0c0.0148 0.16931 0.0312 0.3264 0.0312 0.5 0 0.0275 2e-3 0.0836 0 0.15625-6e-3 0.11583-0.0223 0.23224-0.0312 0.34375h0.0312l1-0.5-1.0312-0.5zm-10.531 4.3438-0.375 1.0938 1.0938-0.375h0.0625c-0.13917-0.11095-0.27498-0.22511-0.40625-0.34375s-0.25799-0.24175-0.375-0.375z" style="color:#bebebe;enable-background:accumulate;fill:#555"/>
 </g>
</svg>
