<?xml version="1.0" encoding="UTF-8"?>
<!-- Created with Inkscape (http://www.inkscape.org/) -->
<svg id="svg7384" width="16" height="16" style="enable-background:new" version="1.1" xmlns="http://www.w3.org/2000/svg" xmlns:cc="http://creativecommons.org/ns#" xmlns:dc="http://purl.org/dc/elements/1.1/" xmlns:osb="http://www.openswatchbook.org/uri/2009/osb" xmlns:rdf="http://www.w3.org/1999/02/22-rdf-syntax-ns#">
 <metadata id="metadata90">
  <rdf:RDF>
   <cc:Work rdf:about="">
    <dc:format>image/svg+xml</dc:format>
    <dc:type rdf:resource="http://purl.org/dc/dcmitype/StillImage"/>
    <dc:title>Paper Symbolic Icon Theme</dc:title>
    <cc:license rdf:resource="http://creativecommons.org/licenses/by-sa/3.0/"/>
   </cc:Work>
   <cc:License rdf:about="http://creativecommons.org/licenses/by-sa/3.0/">
    <cc:permits rdf:resource="http://creativecommons.org/ns#Reproduction"/>
    <cc:permits rdf:resource="http://creativecommons.org/ns#Distribution"/>
    <cc:requires rdf:resource="http://creativecommons.org/ns#Notice"/>
    <cc:requires rdf:resource="http://creativecommons.org/ns#Attribution"/>
    <cc:permits rdf:resource="http://creativecommons.org/ns#DerivativeWorks"/>
    <cc:requires rdf:resource="http://creativecommons.org/ns#ShareAlike"/>
   </cc:License>
  </rdf:RDF>
 </metadata>
 <title id="title8473">Paper Symbolic Icon Theme</title>
 <defs id="defs7386">
  <filter id="filter7554" style="color-interpolation-filters:sRGB">
   <feBlend id="feBlend7556" in2="BackgroundImage" mode="darken"/>
  </filter>
 </defs>
 <g id="layer9" transform="translate(-505 395)">
  <path id="path5970" d="m513-395c-2.0711 0-3.8347 1.2679-4.5938 3.0625-1.9278 0.2866-3.4062 1.9299-3.4062 3.9375 0 0.73091 0.19587 1.4126 0.53711 2h-0.0176c0.56448 0.96993 1.5187 1.6797 2.6504 1.9121l2.3301-2.3301 1.748 1.748c0.18413-0.49004 0.44246-0.93856 0.79492-1.291l2.457-2.457 2.457 2.457c0.43889 0.4389 0.77466 1.0083 0.93555 1.6504 4e-3 -2e-3 9e-3 -2e-3 0.0137-4e-3v2e-3c5e-3 -2e-3 0.0103-5e-3 0.0156-8e-3 9.9e-4 -6e-4 3e-3 -9.6e-4 4e-3 -2e-3 5e-3 -2e-3 9e-3 -6e-3 0.0137-8e-3 1.2165-0.547 2.0604-1.7483 2.0604-3.1694 0-1.7965-1.3508-3.2687-3.0938-3.4688-0.45457-2.2934-2.4794-4.0312-4.9062-4.0312zm2.5 9.4102-1.043 1.043c-0.16304 0.16305-0.28196 0.34735-0.35937 0.54688h2.8047c-0.0774-0.19953-0.19633-0.38383-0.35937-0.54688l-1.043-1.043z" style="fill:#555"/>
  <path id="path7625" d="m515.5-387-0.34375 0.34375-1.4062 1.4062c-0.45315 0.45315-0.75 1.0626-0.75 1.75 0 1.3748 1.1252 2.5 2.5 2.5s2.5-1.1252 2.5-2.5c0-0.6874-0.29685-1.2968-0.75-1.75l-1.4062-1.4062zm-5 2-0.34375 0.34375-1.4062 1.4062c-0.45315 0.45315-0.75 1.0626-0.75 1.75 0 1.3748 1.1252 2.5 2.5 2.5s2.5-1.1252 2.5-2.5c0-0.6874-0.29685-1.2968-0.75-1.75l-1.4062-1.4062z" style="block-progression:tb;color:#000000;enable-background:accumulate;fill:#555;text-decoration-line:none;text-indent:0;text-transform:none"/>
 </g>
</svg>
