<?xml version="1.0" encoding="UTF-8"?>
<!-- Created with Inkscape (http://www.inkscape.org/) -->
<svg id="svg7384" width="16" height="16" style="enable-background:new" version="1.1" xmlns="http://www.w3.org/2000/svg" xmlns:cc="http://creativecommons.org/ns#" xmlns:dc="http://purl.org/dc/elements/1.1/" xmlns:osb="http://www.openswatchbook.org/uri/2009/osb" xmlns:rdf="http://www.w3.org/1999/02/22-rdf-syntax-ns#">
 <metadata id="metadata90">
  <rdf:RDF>
   <cc:Work rdf:about="">
    <dc:format>image/svg+xml</dc:format>
    <dc:type rdf:resource="http://purl.org/dc/dcmitype/StillImage"/>
    <dc:title>Paper Symbolic Icon Theme</dc:title>
    <cc:license rdf:resource="http://creativecommons.org/licenses/by-sa/3.0/"/>
   </cc:Work>
   <cc:License rdf:about="http://creativecommons.org/licenses/by-sa/3.0/">
    <cc:permits rdf:resource="http://creativecommons.org/ns#Reproduction"/>
    <cc:permits rdf:resource="http://creativecommons.org/ns#Distribution"/>
    <cc:requires rdf:resource="http://creativecommons.org/ns#Notice"/>
    <cc:requires rdf:resource="http://creativecommons.org/ns#Attribution"/>
    <cc:permits rdf:resource="http://creativecommons.org/ns#DerivativeWorks"/>
    <cc:requires rdf:resource="http://creativecommons.org/ns#ShareAlike"/>
   </cc:License>
  </rdf:RDF>
 </metadata>
 <title id="title8473">Paper Symbolic Icon Theme</title>
 <g id="layer12" transform="translate(-645 39.003)">
  <path id="path5673" d="m647.34-38.067-1.4062 1.4062 2.1133 2.1133c-2.2008 1.4746-3.0508 3.543-3.0508 3.543s2 5.0039 8 5.0039c1.1823 0 2.1922-0.20695 3.0781-0.51953l2.5781 2.5781 1.4062-1.4062-12.719-12.719zm5.6562 2.0664c-0.52394 0-1.0064 0.0496-1.4707 0.11914l1.9199 1.9199a3 3 0 0 1 2.5156 2.5156l3.1094 3.1094c1.3737-1.3022 1.9258-2.6641 1.9258-2.6641s-2-5-8-5zm-2.6992 3.7031 3.998 3.998a3 3 0 0 1-1.2988 0.29883 3 3 0 0 1-3-3 3 3 0 0 1 0.30078-1.2969z" style="color:#000000;enable-background:accumulate;fill-opacity:.49804"/>
 </g>
</svg>
