<?xml version="1.0" encoding="UTF-8"?>
<!-- Created with Inkscape (http://www.inkscape.org/) -->
<svg id="svg6530" width="22" height="22" version="1.1" viewBox="0 0 22 22" xmlns="http://www.w3.org/2000/svg" xmlns:cc="http://creativecommons.org/ns#" xmlns:dc="http://purl.org/dc/elements/1.1/" xmlns:rdf="http://www.w3.org/1999/02/22-rdf-syntax-ns#" xmlns:xlink="http://www.w3.org/1999/xlink">
 <defs id="defs6532">
  <linearGradient id="linearGradient3816" x1="5.875" x2="3.875" y1="31.125" y2="4.125" gradientTransform="matrix(-.5 .86603 .86603 .5 551.44 387.65)" gradientUnits="userSpaceOnUse">
   <stop id="stop3770" style="stop-color:#dbdee0" offset="0"/>
   <stop id="stop3772" style="stop-color:#dbdee0;stop-opacity:0" offset="1"/>
  </linearGradient>
  <linearGradient id="linearGradient3819" x1="12" x2="23" y1="6" y2="10" gradientTransform="matrix(.5 -.86603 .86603 .5 539.61 408.39)" gradientUnits="userSpaceOnUse">
   <stop id="stop4949" style="stop-color:#dbdee0" offset="0"/>
   <stop id="stop4951" style="stop-color:#dbdee0;stop-opacity:0" offset="1"/>
  </linearGradient>
 </defs>
 <metadata id="metadata6535">
  <rdf:RDF>
   <cc:Work rdf:about="">
    <dc:format>image/svg+xml</dc:format>
    <dc:type rdf:resource="http://purl.org/dc/dcmitype/StillImage"/>
    <dc:title/>
   </cc:Work>
  </rdf:RDF>
 </metadata>
 <g id="layer2" transform="translate(-545 -393)">
  <path id="path5170" d="m549.07 400c-2.2032 3.8161-0.88787 8.725 2.9282 10.928 3.8161 2.2032 8.725 0.88787 10.928-2.9282l-1.732-1c-1.6628 2.88-5.3162 3.8589-8.1962 2.1962-2.88-1.6628-3.8589-5.3161-2.1962-8.1962 0.27615-0.47829 0.11228-1.0899-0.36601-1.366-0.4783-0.27616-1.0899-0.11227-1.366 0.36602z" style="block-progression:tb;color:#000000;fill:url(#linearGradient3819);text-indent:0;text-transform:none"/>
  <path id="path5172" d="m549.07 400c2.2032-3.8161 7.1121-5.1314 10.928-2.9282 3.8161 2.2032 5.1314 7.1121 2.9282 10.928l-1.732-1c1.6628-2.88 0.68386-6.5334-2.1962-8.1962-2.88-1.6628-6.5334-0.68386-8.1962 2.1962z" style="block-progression:tb;color:#000000;fill:url(#linearGradient3816);text-indent:0;text-transform:none"/>
  <rect id="rect5174" x="545" y="393" width="22" height="22" style="color:#bebebe;fill:none"/>
 </g>
</svg>
