<?xml version="1.0" encoding="UTF-8"?>
<!-- Created with Inkscape (http://www.inkscape.org/) -->
<svg id="svg6530" width="22" height="22" version="1.1" viewBox="0 0 22 22" xmlns="http://www.w3.org/2000/svg" xmlns:cc="http://creativecommons.org/ns#" xmlns:dc="http://purl.org/dc/elements/1.1/" xmlns:rdf="http://www.w3.org/1999/02/22-rdf-syntax-ns#" xmlns:xlink="http://www.w3.org/1999/xlink">
 <defs id="defs6532">
  <linearGradient id="linearGradient3816" x1="5.875" x2="3.875" y1="31.125" y2="4.125" gradientTransform="matrix(-1 0 0 1 471.88 367.88)" gradientUnits="userSpaceOnUse">
   <stop id="stop3770" style="stop-color:#dbdee0" offset="0"/>
   <stop id="stop3772" style="stop-color:#dbdee0;stop-opacity:0" offset="1"/>
  </linearGradient>
  <linearGradient id="linearGradient3819" x1="12" x2="23" y1="6" y2="10" gradientTransform="translate(448,368)" gradientUnits="userSpaceOnUse">
   <stop id="stop4949" style="stop-color:#dbdee0" offset="0"/>
   <stop id="stop4951" style="stop-color:#dbdee0;stop-opacity:0" offset="1"/>
  </linearGradient>
 </defs>
 <metadata id="metadata6535">
  <rdf:RDF>
   <cc:Work rdf:about="">
    <dc:format>image/svg+xml</dc:format>
    <dc:type rdf:resource="http://purl.org/dc/dcmitype/StillImage"/>
    <dc:title/>
   </cc:Work>
  </rdf:RDF>
 </metadata>
 <g id="layer2" transform="translate(-449 -369)">
  <path id="path2990" d="m460 372c-4.4064 0-8 3.5936-8 8s3.5936 8 8 8v-2c-3.3256 0-6-2.6744-6-6s2.6744-6 6-6c0.55228 0 1-0.44772 1-1s-0.44772-1-1-1z" style="block-progression:tb;color:#000000;fill:url(#linearGradient3819);text-indent:0;text-transform:none"/>
  <path id="path3785" d="m460 372c4.4064 0 8 3.5936 8 8s-3.5936 8-8 8v-2c3.3256 0 6-2.6744 6-6s-2.6744-6-6-6z" style="block-progression:tb;color:#000000;fill:url(#linearGradient3816);text-indent:0;text-transform:none"/>
  <rect id="rect4910" x="449" y="369" width="22" height="22" style="color:#bebebe;fill:none"/>
 </g>
</svg>
