<?xml version="1.0" encoding="UTF-8"?>
<!-- Created with Inkscape (http://www.inkscape.org/) -->
<svg id="svg7384" width="16" height="16" style="enable-background:new" version="1.1" xmlns="http://www.w3.org/2000/svg" xmlns:cc="http://creativecommons.org/ns#" xmlns:dc="http://purl.org/dc/elements/1.1/" xmlns:osb="http://www.openswatchbook.org/uri/2009/osb" xmlns:rdf="http://www.w3.org/1999/02/22-rdf-syntax-ns#">
 <metadata id="metadata90">
  <rdf:RDF>
   <cc:Work rdf:about="">
    <dc:format>image/svg+xml</dc:format>
    <dc:type rdf:resource="http://purl.org/dc/dcmitype/StillImage"/>
    <dc:title>Paper Symbolic Icon Theme</dc:title>
   </cc:Work>
  </rdf:RDF>
 </metadata>
 <title id="title8473">Paper Symbolic Icon Theme</title>
 <defs id="defs7386">
  <filter id="filter7554" style="color-interpolation-filters:sRGB">
   <feBlend id="feBlend7556" in2="BackgroundImage" mode="darken"/>
  </filter>
 </defs>
 <g id="layer10" transform="translate(-405 139)" style="filter:url(#filter7554)">
  <path id="path6698" d="m420-135c0-2-2-2-2-2l-10 9e-5c-2 0-2 2-2 2v8s0 2 2 2l10-9e-5 2-2zm-4.0015 5.9981 1e-3 1.0019c0 1-1 1-1 1l-1.0015-2e-3v-2zm1e-3 -4.9981-5e-3 0.99809h-2v-2l1.0055 2e-3s1 0 1 1zm-5e-3 1.9981v2h-2v-2zm-2.996-3v8h-2v-8zm-2.9961 6v2l-1.0024 2e-3c-1 0-1-1-1-1l2e-3 -1.0019zm-4e-3 -6v2h-2l2e-3 -0.99809c0-1 1-1 1-1zm0 3v2h-2v-2z" style="fill:#555"/>
 </g>
</svg>
