<?xml version="1.0" encoding="UTF-8"?>
<!-- Created with Inkscape (http://www.inkscape.org/) -->
<svg id="svg6530" width="16" height="16" version="1.1" viewBox="0 0 16 16" xmlns="http://www.w3.org/2000/svg" xmlns:cc="http://creativecommons.org/ns#" xmlns:dc="http://purl.org/dc/elements/1.1/" xmlns:rdf="http://www.w3.org/1999/02/22-rdf-syntax-ns#">
 <metadata id="metadata6535">
  <rdf:RDF>
   <cc:Work rdf:about="">
    <dc:format>image/svg+xml</dc:format>
    <dc:type rdf:resource="http://purl.org/dc/dcmitype/StillImage"/>
    <dc:title/>
   </cc:Work>
  </rdf:RDF>
 </metadata>
 <g id="layer1" transform="translate(-56 -892.36)">
  <path id="rect6069-5-5" d="m58 894.37s-2 0-2 2v8c0 2 2 2 2 2h11s2 0 2-2v-8c0-2-2-2-2-2h-11zm0.25 2h1.5c0.1385 0 0.25 0.1115 0.25 0.25v1.5c0 0.1385-0.1115 0.25-0.25 0.25h-1.5c-0.1385 0-0.25-0.1115-0.25-0.25v-1.5c0-0.1385 0.1115-0.25 0.25-0.25zm3 0h1.5c0.1385 0 0.25 0.1115 0.25 0.25v1.5c0 0.1385-0.1115 0.25-0.25 0.25h-1.5c-0.1385 0-0.25-0.1115-0.25-0.25v-1.5c0-0.1385 0.1115-0.25 0.25-0.25zm3 0h1.5c0.1385 0 0.25 0.1115 0.25 0.25v1.5c0 0.1385-0.1115 0.25-0.25 0.25h-1.5c-0.1385 0-0.25-0.1115-0.25-0.25v-1.5c0-0.1385 0.1115-0.25 0.25-0.25zm3 0h1.5c0.1385 0 0.25 0.1115 0.25 0.25v1.5c0 0.1385-0.1115 0.25-0.25 0.25h-1.5c-0.1385 0-0.25-0.1115-0.25-0.25v-1.5c0-0.1385 0.1115-0.25 0.25-0.25zm-9 3h1.5c0.1385 0 0.25 0.1115 0.25 0.25v1.5c0 0.1385-0.1115 0.25-0.25 0.25h-1.5c-0.1385 0-0.25-0.1115-0.25-0.25v-1.5c0-0.1385 0.1115-0.25 0.25-0.25zm3 0h1.5c0.1385 0 0.25 0.1115 0.25 0.25v1.5c0 0.1385-0.1115 0.25-0.25 0.25h-1.5c-0.1385 0-0.25-0.1115-0.25-0.25v-1.5c0-0.1385 0.1115-0.25 0.25-0.25zm3 0h1.5c0.1385 0 0.25 0.1115 0.25 0.25v1.5c0 0.1385-0.1115 0.25-0.25 0.25h-1.5c-0.1385 0-0.25-0.1115-0.25-0.25v-1.5c0-0.1385 0.1115-0.25 0.25-0.25zm3 0h1.5c0.1385 0 0.25 0.1115 0.25 0.25v1.5c0 0.1385-0.1115 0.25-0.25 0.25h-1.5c-0.1385 0-0.25-0.1115-0.25-0.25v-1.5c0-0.1385 0.1115-0.25 0.25-0.25zm-7 3h6.5c0.1385 0 0.25 0.1115 0.25 0.25v1.5c0 0.1385-0.1115 0.25-0.25 0.25h-6.5c-0.1385 0-0.25-0.1115-0.25-0.25v-1.5c0-0.1385 0.1115-0.25 0.25-0.25z" style="fill:#555"/>
 </g>
</svg>
