<?xml version="1.0" encoding="UTF-8"?>
<!-- Created with Inkscape (http://www.inkscape.org/) -->
<svg id="svg6530" width="16" height="16.001" version="1.1" viewBox="0 0 16 16.001" xmlns="http://www.w3.org/2000/svg" xmlns:cc="http://creativecommons.org/ns#" xmlns:dc="http://purl.org/dc/elements/1.1/" xmlns:rdf="http://www.w3.org/1999/02/22-rdf-syntax-ns#">
 <metadata id="metadata6535">
  <rdf:RDF>
   <cc:Work rdf:about="">
    <dc:format>image/svg+xml</dc:format>
    <dc:type rdf:resource="http://purl.org/dc/dcmitype/StillImage"/>
    <dc:title/>
   </cc:Work>
  </rdf:RDF>
 </metadata>
 <g id="layer1" transform="translate(-128 -748.36)">
  <path id="path10690" d="m137 748.36c-1 0-1 1-1 1v14s0 1 1 1h6c1 0 1-1 1-1v-14s0-1-1-1zm0.9998 2.0034h4v11h-4z" style="fill:#555"/>
  <path id="path10692" d="m130.5 748.36c-0.277 4.1e-4 -0.5 0.22301-0.5 0.50001v0.5l-2-2e-3v-2.6e-4l-1e-5 14.502c0 0.277 0.22299 0.5001 0.49999 0.5l5-2e-3c0.277-1e-4 0.5-0.223 0.5-0.5l1e-5 -14.501-0.50001 2e-3h-1.5v-0.5c0-0.277-0.223-0.50042-0.5-0.50001z" style="color:#bebebe;fill:#e74c3c;opacity:.35"/>
  <path id="path10694" d="m128 761.36v2.5c0 0.277 0.22299 0.5001 0.49999 0.5l5-2e-3c0.277-1e-4 0.49103-0.22315 0.5-0.5v-2.5z" style="color:#bebebe;fill:#e74c3c"/>
 </g>
</svg>
