<?xml version="1.0" encoding="UTF-8"?>
<!-- Created with Inkscape (http://www.inkscape.org/) -->
<svg id="svg6530" width="16" height="16" version="1.1" viewBox="0 0 16 16" xmlns="http://www.w3.org/2000/svg" xmlns:cc="http://creativecommons.org/ns#" xmlns:dc="http://purl.org/dc/elements/1.1/" xmlns:rdf="http://www.w3.org/1999/02/22-rdf-syntax-ns#">
 <metadata id="metadata6535">
  <rdf:RDF>
   <cc:Work rdf:about="">
    <dc:format>image/svg+xml</dc:format>
    <dc:type rdf:resource="http://purl.org/dc/dcmitype/StillImage"/>
    <dc:title/>
   </cc:Work>
  </rdf:RDF>
 </metadata>
 <g id="layer1" transform="translate(-72 -936.33)">
  <path id="path6124" d="m74.977 948.32a0.50005 0.50005 0 0 0-0.42383 0.28125l-1 2a0.50006 0.50006 0 1 0 0.89453 0.44726l1-2a0.50005 0.50005 0 0 0-0.4707-0.72851z" style="block-progression:tb;color-rendering:auto;color:#000000;fill:#555;image-rendering:auto;isolation:auto;mix-blend-mode:normal;shape-rendering:auto;solid-color:#000000;text-decoration-color:#000000;text-decoration-line:none;text-decoration-style:solid;text-indent:0;text-transform:none;white-space:normal"/>
  <path id="path6128" d="m77.477 948.32a0.50005 0.50005 0 0 0-0.42383 0.28125l-1 2a0.50006 0.50006 0 1 0 0.89453 0.44726l1-2a0.50005 0.50005 0 0 0-0.4707-0.72851z" style="block-progression:tb;color-rendering:auto;color:#000000;fill:#555;image-rendering:auto;isolation:auto;mix-blend-mode:normal;shape-rendering:auto;solid-color:#000000;text-decoration-color:#000000;text-decoration-line:none;text-decoration-style:solid;text-indent:0;text-transform:none;white-space:normal"/>
  <path id="path6132" d="m79.977 948.32a0.50005 0.50005 0 0 0-0.42383 0.28125l-1 2a0.50006 0.50006 0 1 0 0.89453 0.44726l1-2a0.50005 0.50005 0 0 0-0.4707-0.72851z" style="block-progression:tb;color-rendering:auto;color:#000000;fill:#555;image-rendering:auto;isolation:auto;mix-blend-mode:normal;shape-rendering:auto;solid-color:#000000;text-decoration-color:#000000;text-decoration-line:none;text-decoration-style:solid;text-indent:0;text-transform:none;white-space:normal"/>
  <path id="path6136" d="m82.477 948.32a0.50005 0.50005 0 0 0-0.42383 0.28125l-1 2a0.50006 0.50006 0 1 0 0.89453 0.44726l1-2a0.50005 0.50005 0 0 0-0.4707-0.72851z" style="block-progression:tb;color-rendering:auto;color:#000000;fill:#555;image-rendering:auto;isolation:auto;mix-blend-mode:normal;shape-rendering:auto;solid-color:#000000;text-decoration-color:#000000;text-decoration-line:none;text-decoration-style:solid;text-indent:0;text-transform:none;white-space:normal"/>
  <path id="path6140" d="m84.977 948.32a0.50005 0.50005 0 0 0-0.42383 0.28125l-1 2a0.50006 0.50006 0 1 0 0.89453 0.44726l1-2a0.50005 0.50005 0 0 0-0.4707-0.72851z" style="block-progression:tb;color-rendering:auto;color:#000000;fill:#555;image-rendering:auto;isolation:auto;mix-blend-mode:normal;shape-rendering:auto;solid-color:#000000;text-decoration-color:#000000;text-decoration-line:none;text-decoration-style:solid;text-indent:0;text-transform:none;white-space:normal"/>
  <path id="path5884" d="m80 936.33c-2.0711 0-3.8347 1.2679-4.5938 3.0625-1.9278 0.2866-3.4062 1.9299-3.4062 3.9375 0 2.2091 1.7909 4 4 4h8.5c1.933 0 3.5-1.567 3.5-3.5 0-1.7965-1.3508-3.2687-3.0938-3.4688-0.45457-2.2934-2.4794-4.0312-4.9062-4.0312z" style="fill:#555"/>
 </g>
</svg>
