<?xml version="1.0" encoding="UTF-8"?>
<!-- Created with Inkscape (http://www.inkscape.org/) -->
<svg id="svg7384" width="48" height="48" style="enable-background:new" version="1.1" xmlns="http://www.w3.org/2000/svg" xmlns:cc="http://creativecommons.org/ns#" xmlns:dc="http://purl.org/dc/elements/1.1/" xmlns:osb="http://www.openswatchbook.org/uri/2009/osb" xmlns:rdf="http://www.w3.org/1999/02/22-rdf-syntax-ns#">
 <metadata id="metadata90">
  <rdf:RDF>
   <cc:Work rdf:about="">
    <dc:format>image/svg+xml</dc:format>
    <dc:type rdf:resource="http://purl.org/dc/dcmitype/StillImage"/>
    <dc:title>Paper Symbolic Icon Theme</dc:title>
   </cc:Work>
  </rdf:RDF>
 </metadata>
 <title id="title8473">Paper Symbolic Icon Theme</title>
 <g id="layer12" transform="translate(-265 -2)">
  <path id="rect2388-2-2-5" d="m285 12v2h8v-2zm-4.3125 2c-0.5625 0.0938-1.6875 0.5-1.6875 2v22c0 2 2 2 2 2h16c2 0 2-2 2-2v-22s0-2-2-2h-16s-0.125-0.0312-0.3125 0z" style="fill:#f44336;opacity:.35"/>
  <path id="path3931" d="m279 32v6c0 2 2 2 2 2h16s2 0 2-2v-6z" style="fill:#f44336"/>
  <rect id="rect5830" x="265" y="2" width="48" height="48" style="color:#bebebe;fill:none;opacity:.1"/>
 </g>
</svg>
