<?xml version="1.0" encoding="UTF-8"?>
<!-- Created with Inkscape (http://www.inkscape.org/) -->
<svg id="svg6530" width="16" height="16" version="1.1" viewBox="0 0 16 16" xmlns="http://www.w3.org/2000/svg" xmlns:cc="http://creativecommons.org/ns#" xmlns:dc="http://purl.org/dc/elements/1.1/" xmlns:rdf="http://www.w3.org/1999/02/22-rdf-syntax-ns#">
 <metadata id="metadata6535">
  <rdf:RDF>
   <cc:Work rdf:about="">
    <dc:format>image/svg+xml</dc:format>
    <dc:type rdf:resource="http://purl.org/dc/dcmitype/StillImage"/>
    <dc:title/>
   </cc:Work>
  </rdf:RDF>
 </metadata>
 <g id="layer1" transform="translate(-248 -528.36)">
  <path id="path11130" d="m250 529.36s-2 0-2 2.0625v9.9375c0 2 2 2 2 2l12 2e-3c2 3.2e-4 2-2 2-2v-10.002s0-2-2-2zm2 2.002h3v2h-3v2h2v2h-2v2h3v2h-3s-2 0-2-2v-6c0-2 2-2 2-2zm4 0h2v8h2v-8h2v8s0 2-2 2h-2s-2 0-2-2z" style="color:#bebebe;fill:#555"/>
 </g>
</svg>
