<?xml version="1.0" encoding="UTF-8"?>
<!-- Created with Inkscape (http://www.inkscape.org/) -->
<svg id="svg6530" width="16" height="16" version="1.1" viewBox="0 0 16 16" xmlns="http://www.w3.org/2000/svg" xmlns:cc="http://creativecommons.org/ns#" xmlns:dc="http://purl.org/dc/elements/1.1/" xmlns:rdf="http://www.w3.org/1999/02/22-rdf-syntax-ns#">
 <metadata id="metadata6535">
  <rdf:RDF>
   <cc:Work rdf:about="">
    <dc:format>image/svg+xml</dc:format>
    <dc:type rdf:resource="http://purl.org/dc/dcmitype/StillImage"/>
    <dc:title/>
   </cc:Work>
  </rdf:RDF>
 </metadata>
 <g id="layer1" transform="translate(-80 -868.36)">
  <rect id="rect11041" x="87" y="869.36" width="1.9998" height="7.0034" rx=".9999" ry=".9999" style="color:#bebebe;fill:#e74c3c"/>
  <path id="path11043" d="m90.939 871.35a1.0001 1.0001 0 0 0-0.54297 1.8086c1.3779 1.0307 1.941 2.8163 1.4043 4.4512-0.53674 1.6348-2.0489 2.7386-3.7695 2.752s-3.2504-1.0671-3.8125-2.6934-0.02571-3.4187 1.3359-4.4707a1.0005 1.0005 0 1 0-1.2227-1.584c-2.035 1.5722-2.8421 4.2785-2.002 6.709 0.84011 2.4305 3.1453 4.0591 5.7168 4.0391 2.5715-0.02 4.8521-1.6837 5.6543-4.127 0.80216-2.4433-0.0482-5.1374-2.1074-6.6777a1.0001 1.0001 0 0 0-0.6543-0.20703z" style="block-progression:tb;color-rendering:auto;color:#000000;fill:#e74c3c;image-rendering:auto;isolation:auto;mix-blend-mode:normal;shape-rendering:auto;solid-color:#000000;text-decoration-color:#000000;text-decoration-line:none;text-decoration-style:solid;text-indent:0;text-transform:none;white-space:normal"/>
 </g>
</svg>
