<?xml version="1.0" encoding="UTF-8"?>
<!-- Created with Inkscape (http://www.inkscape.org/) -->
<svg id="svg7384" width="16" height="16" style="enable-background:new" version="1.1" xmlns="http://www.w3.org/2000/svg" xmlns:cc="http://creativecommons.org/ns#" xmlns:dc="http://purl.org/dc/elements/1.1/" xmlns:osb="http://www.openswatchbook.org/uri/2009/osb" xmlns:rdf="http://www.w3.org/1999/02/22-rdf-syntax-ns#">
 <metadata id="metadata90">
  <rdf:RDF>
   <cc:Work rdf:about="">
    <dc:format>image/svg+xml</dc:format>
    <dc:type rdf:resource="http://purl.org/dc/dcmitype/StillImage"/>
    <dc:title>Paper Symbolic Icon Theme</dc:title>
   </cc:Work>
  </rdf:RDF>
 </metadata>
 <title id="title8473">Paper Symbolic Icon Theme</title>
 <defs id="defs7386">
  <filter id="filter7554" style="color-interpolation-filters:sRGB">
   <feBlend id="feBlend7556" in2="BackgroundImage" mode="darken"/>
  </filter>
 </defs>
 <g id="layer1" transform="translate(-564 -162)">
  <path id="path4158" d="m571 162v2h-1c-0.554 0-1 0.446-1 1v4l0.53906 0.53906-3.4082 5.9648-0.13086 2.4961 1.8691-1.5039 0.72265-1.2656c1.0655 0.5045 2.2293 0.76727 3.4082 0.76953 1.1784-3e-3 2.3415-0.26659 3.4062-0.77148l0.72461 1.2676 1.8691 1.5039-0.13086-2.4961-0.76758-1.3438c1.8352-1.5193 2.8978-3.7776 2.8984-6.1602h-2c-2e-3 1.6635-0.69447 3.2514-1.9121 4.3848l-1.627-2.8457 0.53906-0.53906v-4c0-0.554-0.446-1-1-1h-1v-2zm1 4c0.554 0 1 0.446 1 1s-0.446 1-1 1-1-0.446-1-1 0.446-1 1-1zm-0.99219 5.0039c0.62793 0.3068 1.2652 0.53165 1.9863 0l1.418 2.4824c-0.75979 0.3364-1.5812 0.51132-2.4121 0.51367-0.83027-3e-3 -1.651-0.17753-2.4102-0.51367z" style="fill:#555"/>
 </g>
</svg>
