<?xml version="1.0" encoding="UTF-8"?>
<!-- Created with Inkscape (http://www.inkscape.org/) -->
<svg id="svg7384" width="16" height="16" style="enable-background:new" version="1.1" xmlns="http://www.w3.org/2000/svg" xmlns:cc="http://creativecommons.org/ns#" xmlns:dc="http://purl.org/dc/elements/1.1/" xmlns:osb="http://www.openswatchbook.org/uri/2009/osb" xmlns:rdf="http://www.w3.org/1999/02/22-rdf-syntax-ns#">
 <metadata id="metadata90">
  <rdf:RDF>
   <cc:Work rdf:about="">
    <dc:format>image/svg+xml</dc:format>
    <dc:type rdf:resource="http://purl.org/dc/dcmitype/StillImage"/>
    <dc:title>Paper Symbolic Icon Theme</dc:title>
   </cc:Work>
  </rdf:RDF>
 </metadata>
 <title id="title8473">Paper Symbolic Icon Theme</title>
 <defs id="defs7386">
  <filter id="filter7554" style="color-interpolation-filters:sRGB">
   <feBlend id="feBlend7556" in2="BackgroundImage" mode="darken"/>
  </filter>
 </defs>
 <g id="layer1" transform="translate(-604 -162)">
  <path id="path8770" d="m606 163c-1.0312 0.0625-1 1-1 1v8 4s-0.0312 0.9375 1 1h12c1 0 1-1 1-1v-4-8s0-1-1-1h-5.5312l0.3125 0.375 1.3125 1.625h2.9062v7h-1-0.15625-0.84375-1c0 1.108-0.892 2-2 2s-2-0.892-2-2h-1-0.84375-1.1562v-7h2.9062l1.3125-1.625 0.3125-0.375h-5.5312z" style="fill-rule:evenodd;fill:#555"/>
  <path id="path8772" d="m610 171v-2h-2l4-5 4 5h-2v2z" style="fill:#555"/>
 </g>
</svg>
