<?xml version="1.0" encoding="UTF-8"?>
<!-- Created with Inkscape (http://www.inkscape.org/) -->
<svg id="svg7384" width="48" height="48" style="enable-background:new" version="1.1" xmlns="http://www.w3.org/2000/svg" xmlns:cc="http://creativecommons.org/ns#" xmlns:dc="http://purl.org/dc/elements/1.1/" xmlns:osb="http://www.openswatchbook.org/uri/2009/osb" xmlns:rdf="http://www.w3.org/1999/02/22-rdf-syntax-ns#">
 <metadata id="metadata90">
  <rdf:RDF>
   <cc:Work rdf:about="">
    <dc:format>image/svg+xml</dc:format>
    <dc:type rdf:resource="http://purl.org/dc/dcmitype/StillImage"/>
    <dc:title>Paper Symbolic Icon Theme</dc:title>
   </cc:Work>
  </rdf:RDF>
 </metadata>
 <title id="title8473">Paper Symbolic Icon Theme</title>
 <g id="layer12" transform="translate(-409 -121)">
  <path id="path2986-2-78" d="m421.69 130.88 25.438 25.438-2.8125 2.8125-25.438-25.438z" style="color:#000000;enable-background:accumulate;fill:#fff"/>
  <path id="path11510" d="m433 129c-1.1046 0-2 0.89544-2 2 0 0.0666 4e-3 0.133 0.012 0.1992-1.2867 0.25778-2.4648 0.7827-3.5195 1.4805l15.508 15.508v-3.1875-4c3.4e-4 -4.8583-3.4311-8.8831-8.0117-9.8008 8e-3 -0.0662 0.012-0.1326 0.012-0.1992 0-1.1046-0.89544-2-2-2zm-8.3164 6.4961c-1.0468 1.5806-1.6835 3.4578-1.6836 5.5039v9l-4 4v1h4 20 1.1875l-19.504-19.504zm4.8555 21.504c0.71396 1.2366 2.033 1.9989 3.4609 2 1.4265-2e-3 2.7438-0.76458 3.457-2h-6.918z" style="fill:#fff"/>
  <rect id="rect11512" x="409" y="121" width="48" height="48" style="color:#bebebe;enable-background:new;fill:none"/>
 </g>
</svg>
