<?xml version="1.0" encoding="UTF-8"?>
<!-- Created with Inkscape (http://www.inkscape.org/) -->
<svg id="svg7384" width="16" height="16" style="enable-background:new" version="1.1" xmlns="http://www.w3.org/2000/svg" xmlns:cc="http://creativecommons.org/ns#" xmlns:dc="http://purl.org/dc/elements/1.1/" xmlns:osb="http://www.openswatchbook.org/uri/2009/osb" xmlns:rdf="http://www.w3.org/1999/02/22-rdf-syntax-ns#">
 <metadata id="metadata90">
  <rdf:RDF>
   <cc:Work rdf:about="">
    <dc:format>image/svg+xml</dc:format>
    <dc:type rdf:resource="http://purl.org/dc/dcmitype/StillImage"/>
    <dc:title>Paper Symbolic Icon Theme</dc:title>
    <cc:license rdf:resource="http://creativecommons.org/licenses/by-sa/3.0/"/>
   </cc:Work>
   <cc:License rdf:about="http://creativecommons.org/licenses/by-sa/3.0/">
    <cc:permits rdf:resource="http://creativecommons.org/ns#Reproduction"/>
    <cc:permits rdf:resource="http://creativecommons.org/ns#Distribution"/>
    <cc:requires rdf:resource="http://creativecommons.org/ns#Notice"/>
    <cc:requires rdf:resource="http://creativecommons.org/ns#Attribution"/>
    <cc:permits rdf:resource="http://creativecommons.org/ns#DerivativeWorks"/>
    <cc:requires rdf:resource="http://creativecommons.org/ns#ShareAlike"/>
   </cc:License>
  </rdf:RDF>
 </metadata>
 <title id="title8473">Paper Symbolic Icon Theme</title>
 <g id="layer1" transform="translate(-44 -61)">
  <path id="path5086" d="m50 62v2h-2c-1.6447 0-3 1.3553-3 3v4c0 1.6447 1.3553 3 3 3h1 0.65625 1.625c-0.16854-0.47255-0.28125-0.96957-0.28125-1.5 0-0.17178 0.0438-0.33323 0.0625-0.5h-1.4062-0.65625-1c-0.5713 0-1-0.4287-1-1v-4c0-0.5713 0.4287-1 1-1h2v2l4-3-4-3zm5 2v0.5 1 0.5h1c0.5713 0 1 0.4287 1 1v1.2812c0.79448 0.28335 1.4829 0.76028 2 1.4062v-2.6875c0-1.6447-1.3553-3-3-3h-1zm0.5 5c-1.933 0-3.5 1.567-3.5 3.5s1.567 3.5 3.5 3.5 3.5-1.567 3.5-3.5-1.567-3.5-3.5-3.5zm-0.5 1h1v5h-1v-3.5h-1v-0.5c1 0 1-1 1-1z" style="block-progression:tb;color:#000000;fill-opacity:.49804;text-indent:0;text-transform:none"/>
 </g>
</svg>
