<?xml version="1.0" encoding="UTF-8"?>
<!-- Created with Inkscape (http://www.inkscape.org/) -->
<svg id="svg7384" width="16" height="16" style="enable-background:new" version="1.1" xmlns="http://www.w3.org/2000/svg" xmlns:cc="http://creativecommons.org/ns#" xmlns:dc="http://purl.org/dc/elements/1.1/" xmlns:osb="http://www.openswatchbook.org/uri/2009/osb" xmlns:rdf="http://www.w3.org/1999/02/22-rdf-syntax-ns#">
 <metadata id="metadata90">
  <rdf:RDF>
   <cc:Work rdf:about="">
    <dc:format>image/svg+xml</dc:format>
    <dc:type rdf:resource="http://purl.org/dc/dcmitype/StillImage"/>
    <dc:title>Paper Symbolic Icon Theme</dc:title>
    <cc:license rdf:resource="http://creativecommons.org/licenses/by-sa/3.0/"/>
   </cc:Work>
   <cc:License rdf:about="http://creativecommons.org/licenses/by-sa/3.0/">
    <cc:permits rdf:resource="http://creativecommons.org/ns#Reproduction"/>
    <cc:permits rdf:resource="http://creativecommons.org/ns#Distribution"/>
    <cc:requires rdf:resource="http://creativecommons.org/ns#Notice"/>
    <cc:requires rdf:resource="http://creativecommons.org/ns#Attribution"/>
    <cc:permits rdf:resource="http://creativecommons.org/ns#DerivativeWorks"/>
    <cc:requires rdf:resource="http://creativecommons.org/ns#ShareAlike"/>
   </cc:License>
  </rdf:RDF>
 </metadata>
 <title id="title8473">Paper Symbolic Icon Theme</title>
 <defs id="defs7386">
  <filter id="filter7554" style="color-interpolation-filters:sRGB">
   <feBlend id="feBlend7556" in2="BackgroundImage" mode="darken"/>
  </filter>
 </defs>
 <g id="layer9" transform="translate(-265 395)">
  <path id="path6273" d="m271.5-394c-0.79399 9.7e-4 -0.78072 0.0333-0.53125 1.0312l1.625 4.9688h-4.5l-1.2188-1.7812c-0.13926-0.20883-0.1227-0.21873-0.34375-0.21875h-0.21875c-0.42773 0-0.28125 0.4375-0.28125 0.4375l0.28125 2.5625-0.28125 2.5625s-0.13986 0.43749 0.25 0.4375h0.25c0.21159 0 0.20422-9e-3 0.34375-0.21875l1.2188-1.7812h4.5l-1.625 4.9375c-0.26171 1.0469-0.2647 1.0625 0.53125 1.0625 0.43199 0 0.43388-0.0117 0.71875-0.5l3.6875-5.5h3.0938c0.554 0 1-0.446 1-1s-0.446-1-1-1h-3.0938l-3.6875-5.5c-0.2665-0.45685-0.28331-0.49822-0.65625-0.5h-0.0625z" style="fill:#555"/>
 </g>
</svg>
