<?xml version="1.0" encoding="UTF-8"?>
<!-- Created with Inkscape (http://www.inkscape.org/) -->
<svg id="svg7384" width="16" height="16.03" style="enable-background:new" version="1.1" xmlns="http://www.w3.org/2000/svg" xmlns:cc="http://creativecommons.org/ns#" xmlns:dc="http://purl.org/dc/elements/1.1/" xmlns:osb="http://www.openswatchbook.org/uri/2009/osb" xmlns:rdf="http://www.w3.org/1999/02/22-rdf-syntax-ns#">
 <metadata id="metadata90">
  <rdf:RDF>
   <cc:Work rdf:about="">
    <dc:format>image/svg+xml</dc:format>
    <dc:type rdf:resource="http://purl.org/dc/dcmitype/StillImage"/>
    <dc:title>Paper Symbolic Icon Theme</dc:title>
    <cc:license rdf:resource="http://creativecommons.org/licenses/by-sa/3.0/"/>
   </cc:Work>
   <cc:License rdf:about="http://creativecommons.org/licenses/by-sa/3.0/">
    <cc:permits rdf:resource="http://creativecommons.org/ns#Reproduction"/>
    <cc:permits rdf:resource="http://creativecommons.org/ns#Distribution"/>
    <cc:requires rdf:resource="http://creativecommons.org/ns#Notice"/>
    <cc:requires rdf:resource="http://creativecommons.org/ns#Attribution"/>
    <cc:permits rdf:resource="http://creativecommons.org/ns#DerivativeWorks"/>
    <cc:requires rdf:resource="http://creativecommons.org/ns#ShareAlike"/>
   </cc:License>
  </rdf:RDF>
 </metadata>
 <title id="title8473">Paper Symbolic Icon Theme</title>
 <defs id="defs7386">
  <filter id="filter7554" style="color-interpolation-filters:sRGB">
   <feBlend id="feBlend7556" in2="BackgroundImage" mode="darken"/>
  </filter>
 </defs>
 <g id="layer9" transform="translate(-462 276)">
  <path id="path7722-0" d="m466.5-276a3.5 3.5 0 0 0-3.5 3.5 3.5 3.5 0 0 0 0.23438 1.248 8 8 0 0 1 5.7812-3.6777 3.5 3.5 0 0 0-2.5156-1.0703zm7 0a3.5 3.5 0 0 0-2.5156 1.0684 8 8 0 0 1 5.7852 3.6758 3.5 3.5 0 0 0 0.23047-1.2441 3.5 3.5 0 0 0-3.5-3.5zm-3.5 2c-3.866 0-7 3.134-7 7 3e-3 1.753 0.66381 3.4411 1.8516 4.7305l-0.55859 0.55859c-0.98181 0.94251 0.47155 2.3959 1.4141 1.4141l0.70313-0.70312c1.0843 0.65158 2.3248 0.99716 3.5898 1 1.265-3e-3 2.5056-0.34842 3.5898-1l0.70313 0.70312c0.94251 0.98181 2.3959-0.47155 1.4141-1.4141l-0.55859-0.55859c1.1878-1.2894 1.8485-2.9774 1.8516-4.7305 0-3.866-3.134-7-7-7zm0 2c2.7614 0 5 2.2386 5 5s-2.2386 5-5 5-5-2.2386-5-5 2.2386-5 5-5zm2.3086 2.1836c-0.0964 0.0256-0.18476 0.0808-0.25 0.15625l-2.1562 2.1562-1.6562-1.6562c-0.15718-0.25698-0.56824-0.30683-0.78125-0.0937-0.21301 0.21301-0.16316 0.62407 0.0937 0.78125l2 2c0.1835 0.1737 0.504 0.1737 0.6875 0l2.5-2.5c0.29287-0.29845-0.0248-0.91114-0.4375-0.84375z" style="fill:#4d4d4d"/>
 </g>
</svg>
