<?xml version="1.0" encoding="UTF-8"?>
<!-- Created with Inkscape (http://www.inkscape.org/) -->
<svg id="svg7384" width="16" height="16.003" style="enable-background:new" version="1.1" xmlns="http://www.w3.org/2000/svg" xmlns:cc="http://creativecommons.org/ns#" xmlns:dc="http://purl.org/dc/elements/1.1/" xmlns:osb="http://www.openswatchbook.org/uri/2009/osb" xmlns:rdf="http://www.w3.org/1999/02/22-rdf-syntax-ns#">
 <metadata id="metadata90">
  <rdf:RDF>
   <cc:Work rdf:about="">
    <dc:format>image/svg+xml</dc:format>
    <dc:type rdf:resource="http://purl.org/dc/dcmitype/StillImage"/>
    <dc:title>Paper Symbolic Icon Theme</dc:title>
    <cc:license rdf:resource="http://creativecommons.org/licenses/by-sa/3.0/"/>
   </cc:Work>
   <cc:License rdf:about="http://creativecommons.org/licenses/by-sa/3.0/">
    <cc:permits rdf:resource="http://creativecommons.org/ns#Reproduction"/>
    <cc:permits rdf:resource="http://creativecommons.org/ns#Distribution"/>
    <cc:requires rdf:resource="http://creativecommons.org/ns#Notice"/>
    <cc:requires rdf:resource="http://creativecommons.org/ns#Attribution"/>
    <cc:permits rdf:resource="http://creativecommons.org/ns#DerivativeWorks"/>
    <cc:requires rdf:resource="http://creativecommons.org/ns#ShareAlike"/>
   </cc:License>
  </rdf:RDF>
 </metadata>
 <title id="title8473">Paper Symbolic Icon Theme</title>
 <defs id="defs7386">
  <filter id="filter7554" style="color-interpolation-filters:sRGB">
   <feBlend id="feBlend7556" in2="BackgroundImage" mode="darken"/>
  </filter>
 </defs>
 <g id="layer9" transform="translate(-385 295)">
  <path id="path6442" d="m387.5-294c-0.831 0-1.5 0.669-1.5 1.5v12c0 0.831 0.669 1.5 1.5 1.5h12c0.831 0 1.5-0.669 1.5-1.5v-12c0-0.831-0.669-1.5-1.5-1.5h-12zm5.5 2h1c1.662 0 3 1.338 3 3v2c0.554 0 1 0.446 1 1v4c0 0.554-0.446 1-1 1h-7c-0.554 0-1-0.446-1-1v-4c0-1 1-1 1-1h1 2 3v-2c0-1.108-0.892-2-2-2h-1c-1.108 0-2.0182 0.89215-2 2h-1c0-1.662 1.338-3 3-3zm0.5 6c-0.82843 0-1.5 0.67157-1.5 1.5 8.9e-4 0.6349 0.40141 1.2005 1 1.4121v1.0879h1v-1.0879c0.59859-0.21163 0.99911-0.77721 1-1.4121 0-0.82843-0.67157-1.5-1.5-1.5z" style="fill:#555;opacity:.35"/>
 </g>
</svg>
