<?xml version="1.0" encoding="UTF-8"?>
<!-- Created with Inkscape (http://www.inkscape.org/) -->
<svg id="svg7384" width="16" height="16" style="enable-background:new" version="1.1" xmlns="http://www.w3.org/2000/svg" xmlns:cc="http://creativecommons.org/ns#" xmlns:dc="http://purl.org/dc/elements/1.1/" xmlns:osb="http://www.openswatchbook.org/uri/2009/osb" xmlns:rdf="http://www.w3.org/1999/02/22-rdf-syntax-ns#">
 <metadata id="metadata90">
  <rdf:RDF>
   <cc:Work rdf:about="">
    <dc:format>image/svg+xml</dc:format>
    <dc:type rdf:resource="http://purl.org/dc/dcmitype/StillImage"/>
    <dc:title>Paper Symbolic Icon Theme</dc:title>
   </cc:Work>
  </rdf:RDF>
 </metadata>
 <title id="title8473">Paper Symbolic Icon Theme</title>
 <defs id="defs7386">
  <filter id="filter7554" style="color-interpolation-filters:sRGB">
   <feBlend id="feBlend7556" in2="BackgroundImage" mode="darken"/>
  </filter>
 </defs>
 <g id="layer9" transform="translate(-485 275)">
  <path id="path8126" d="m487-275c-1.9998 0-2 2-2 2v9s2e-4 2 2 2h12s2 0 2-2c2e-4 -3e-3 0-5.6671 0-8.9999 0 0 2e-4 -2-2-2zm-2.1e-4 1.9999h12v8.0004l-12-3.6e-4zm1 13 2e-4 0.99664h10l-2e-4 -0.99664c0-1-1-1-1-1h-8.0218s-0.97823 0-0.97823 1z" style="fill:#555"/>
  <path id="rect5735" d="m490-272v2h1v-2zm5 0v2h1v-2zm-5 4v1h1 4 1v-1h-1-4zm6 1v1h1v-1zm-6 0h-1v1h1z" style="enable-background:new;fill:#555"/>
 </g>
</svg>
