<?xml version="1.0" encoding="UTF-8"?>
<!-- Created with Inkscape (http://www.inkscape.org/) -->
<svg id="svg6530" width="24" height="24" version="1.1" viewBox="0 0 24 24" xmlns="http://www.w3.org/2000/svg" xmlns:cc="http://creativecommons.org/ns#" xmlns:dc="http://purl.org/dc/elements/1.1/" xmlns:rdf="http://www.w3.org/1999/02/22-rdf-syntax-ns#">
 <metadata id="metadata6535">
  <rdf:RDF>
   <cc:Work rdf:about="">
    <dc:format>image/svg+xml</dc:format>
    <dc:type rdf:resource="http://purl.org/dc/dcmitype/StillImage"/>
    <dc:title/>
   </cc:Work>
  </rdf:RDF>
 </metadata>
 <g id="layer1" transform="translate(-56 -860.36)">
  <path id="path4077-8" d="m76.219 864.49c-0.0741 0.0356-0.13911 0.0898-0.1875 0.15625l-0.5 0.5-0.15625-0.15625-6 6 0.15625 0.15625-0.5 0.5-0.0312 0.71875 0.71875-0.0312 0.5-0.5 0.15625 0.15625 6-6-0.15625-0.15625 0.5-0.5c0.29288-0.29845-0.0248-0.91114-0.4375-0.84375-0.0208-1e-3 -0.0417-1e-3 -0.0625 0zm-14.219 1.875c-0.554 0-1 0.446-1 1v9c0 0.554 0.446 1 1 1h12c0.554 0 1-0.446 1-1v-7.5625l-3.9062 3.9062-0.71875 0.6875-0.15625-0.15625-0.0625 0.0625-0.40625 0.0312-0.71875 0.0312-1.0625 0.0312 0.0312-1.0625 0.0312-0.71875 0.0312-0.40625 0.0625-0.0625-0.15625-0.15625 0.6875-0.71875 3.9062-3.9062h-10.562zm-1 11v1c0 0.554 0.446 1 1 1h12c0.554 0 1-0.446 1-1v-1c0 0.554-0.446 1-1 1h-12c-0.554 0-1-0.446-1-1z" style="color:#000000;fill:#dbdee0"/>
 </g>
</svg>
