<?xml version="1.0" encoding="UTF-8"?>
<!-- Created with Inkscape (http://www.inkscape.org/) -->
<svg id="svg6530" width="24" height="24" version="1.1" viewBox="0 0 24 24" xmlns="http://www.w3.org/2000/svg" xmlns:cc="http://creativecommons.org/ns#" xmlns:dc="http://purl.org/dc/elements/1.1/" xmlns:rdf="http://www.w3.org/1999/02/22-rdf-syntax-ns#">
 <metadata id="metadata6535">
  <rdf:RDF>
   <cc:Work rdf:about="">
    <dc:format>image/svg+xml</dc:format>
    <dc:type rdf:resource="http://purl.org/dc/dcmitype/StillImage"/>
    <dc:title/>
   </cc:Work>
  </rdf:RDF>
 </metadata>
 <g id="layer1" transform="translate(-32 -908.36)">
  <path id="rect2989" d="m39 913.36c-1.108 0-2 0.892-2 2v10c0 1.108 0.892 2 2 2h10c1.108 0 2-0.892 2-2v-10c0-1.108-0.892-2-2-2h-10zm0 1h10c0.554 0 1 0.446 1 1v9c0 0.554-0.446 1-1 1h-10c-0.554 0-1-0.446-1-1v-9c0-0.554 0.446-1 1-1zm2.4961 0.9668c-0.77769 1e-5 -1.3899 0.22367-1.834 0.66992-0.44192 0.44625-0.66211 1.0613-0.66211 1.8477 0 0.78419 0.22019 1.3994 0.66211 1.8457 0.44408 0.44625 1.0563 0.66992 1.834 0.66992 0.77985 0 1.3901-0.22367 1.832-0.66992s0.66211-1.0615 0.66211-1.8457c0-0.78635-0.22019-1.4014-0.66211-1.8477-0.44191-0.44625-1.0522-0.66991-1.832-0.66992zm0 0.90625c0.38343 1e-5 0.6805 0.14026 0.89063 0.42187 0.21013 0.28162 0.31444 0.67823 0.31445 1.1895-1e-5 0.50907-0.10432 0.90588-0.31445 1.1875-0.21013 0.2816-0.5072 0.42187-0.89063 0.42187-0.38126 0-0.6766-0.14026-0.88671-0.42187-0.21013-0.28161-0.31641-0.67844-0.31641-1.1875 0-0.51124 0.10627-0.90784 0.31641-1.1895 0.21011-0.28161 0.50545-0.42186 0.88671-0.42187zm3.5684 3.2754v4.8516h2.0762c0.64554 0 1.1271-0.11413 1.4434-0.34375 0.31627-0.22963 0.4746-0.57897 0.47461-1.0469-1e-5 -0.30545-0.0734-0.56332-0.2207-0.77344-0.14731-0.21013-0.35639-0.35364-0.625-0.43164 0.21012-0.0802 0.36999-0.20256 0.48047-0.36719 0.11052-0.1668 0.16601-0.36935 0.16602-0.60547-1e-5 -0.44841-0.15181-0.77489-0.45508-0.97852-0.30111-0.20362-0.78724-0.30468-1.4609-0.30468h-1.8789zm1.252 0.85156h0.6914c0.19713 0 0.34545 0.044 0.44727 0.13281 0.10182 0.0867 0.1543 0.21406 0.1543 0.38086-1e-5 0.16897-0.0525 0.29611-0.1543 0.38281-0.10182 0.0867-0.25014 0.13086-0.44727 0.13086h-0.6914v-1.0273zm-2e-3 1.8789h0.73438c0.25346 0 0.44466 0.0521 0.57031 0.1582 0.12566 0.10398 0.1875 0.26057 0.1875 0.4707 0 0.21446-0.0636 0.37627-0.19141 0.48242-0.12565 0.10612-0.31511 0.15821-0.5664 0.15821h-0.73438v-1.2695z" style="color:#000000;fill:#dbdee0"/>
 </g>
</svg>
