<?xml version="1.0" encoding="UTF-8"?>
<!-- Created with Inkscape (http://www.inkscape.org/) -->
<svg id="svg7384" width="16" height="16" style="enable-background:new" version="1.1" xmlns="http://www.w3.org/2000/svg" xmlns:cc="http://creativecommons.org/ns#" xmlns:dc="http://purl.org/dc/elements/1.1/" xmlns:osb="http://www.openswatchbook.org/uri/2009/osb" xmlns:rdf="http://www.w3.org/1999/02/22-rdf-syntax-ns#">
 <metadata id="metadata90">
  <rdf:RDF>
   <cc:Work rdf:about="">
    <dc:format>image/svg+xml</dc:format>
    <dc:type rdf:resource="http://purl.org/dc/dcmitype/StillImage"/>
    <dc:title>Paper Symbolic Icon Theme</dc:title>
   </cc:Work>
  </rdf:RDF>
 </metadata>
 <title id="title8473">Paper Symbolic Icon Theme</title>
 <defs id="defs7386">
  <filter id="filter7554" style="color-interpolation-filters:sRGB">
   <feBlend id="feBlend7556" in2="BackgroundImage" mode="darken"/>
  </filter>
 </defs>
 <g id="layer12" transform="translate(-566 39.01)">
  <path id="path7076" d="m579-24s1 0 1-1l-2e-4 -3.0034 2e-4 -8.9966c0-1-1-1-1-1h-10s-1 0-1 1l-2e-4 3.9966 2.0002 3e-3 2e-4 -2.9966 8 3.6e-4 -2e-4 9.9968-8-1.8e-4 -2.0002-3e-3 2e-4 1.003c0 1 1 1 1 1z" style="color:#bebebe;enable-background:accumulate;fill:#555"/>
  <path id="path7080" d="m572-28.003v-2l-0.9998 0.0034c-1 0-1 1-1 1v4h-2v-4c0-3 3-3 3-3l0.9998-0.0034v-2l4.5 3z" style="fill:#555"/>
 </g>
</svg>
