<?xml version="1.0" encoding="UTF-8"?>
<!-- Created with Inkscape (http://www.inkscape.org/) -->
<svg id="svg7384" width="16" height="16" style="enable-background:new" version="1.1" xmlns="http://www.w3.org/2000/svg" xmlns:cc="http://creativecommons.org/ns#" xmlns:dc="http://purl.org/dc/elements/1.1/" xmlns:osb="http://www.openswatchbook.org/uri/2009/osb" xmlns:rdf="http://www.w3.org/1999/02/22-rdf-syntax-ns#">
 <metadata id="metadata90">
  <rdf:RDF>
   <cc:Work rdf:about="">
    <dc:format>image/svg+xml</dc:format>
    <dc:type rdf:resource="http://purl.org/dc/dcmitype/StillImage"/>
    <dc:title>Paper Symbolic Icon Theme</dc:title>
   </cc:Work>
  </rdf:RDF>
 </metadata>
 <title id="title8473">Paper Symbolic Icon Theme</title>
 <defs id="defs7386">
  <filter id="filter7554" color-interpolation-filters="sRGB">
   <feBlend id="feBlend7556" in2="BackgroundImage" mode="darken"/>
  </filter>
 </defs>
 <g id="layer12" transform="translate(-405 19.003)">
  <path id="path9228" d="m413.03-17.941c-3.8533 0-6.9688 3.1154-6.9688 6.9688s3.1154 6.9688 6.9688 6.9688 6.9688-3.1154 6.9688-6.9688-3.1154-6.9688-6.9688-6.9688zm-3.0314 3.9409h1c0.27614 0 0.53779 0.10028 0.71875 0.28125l1.2814 1.2779 1.2811-1.2779c0.18096-0.18097 0.44261-0.28125 0.71875-0.28125h1v1c0 0.27614-0.10029 0.53778-0.28125 0.71875l-1.2811 1.2779 1.2811 1.2846c0.18096 0.18097 0.28262 0.44261 0.28125 0.71875v1h-1c-0.27614 0-0.53779-0.10028-0.71875-0.28125l-1.2811-1.2846-1.2814 1.2846c-0.18096 0.18097-0.44261 0.28125-0.71875 0.28125h-1v-1c0-0.27614 0.10029-0.53778 0.28125-0.71875l1.2814-1.2846-1.2814-1.2779c-0.18096-0.18097-0.28125-0.44261-0.28125-0.71875z" style="block-progression:tb;color:#555555;enable-background:new;fill:#555;text-indent:0;text-transform:none"/>
 </g>
</svg>
