<?xml version="1.0" encoding="UTF-8"?>
<!-- Created with Inkscape (http://www.inkscape.org/) -->
<svg id="svg7384" width="16" height="16" style="enable-background:new" version="1.1" xmlns="http://www.w3.org/2000/svg" xmlns:cc="http://creativecommons.org/ns#" xmlns:dc="http://purl.org/dc/elements/1.1/" xmlns:osb="http://www.openswatchbook.org/uri/2009/osb" xmlns:rdf="http://www.w3.org/1999/02/22-rdf-syntax-ns#">
 <metadata id="metadata90">
  <rdf:RDF>
   <cc:Work rdf:about="">
    <dc:format>image/svg+xml</dc:format>
    <dc:type rdf:resource="http://purl.org/dc/dcmitype/StillImage"/>
    <dc:title>Paper Symbolic Icon Theme</dc:title>
   </cc:Work>
  </rdf:RDF>
 </metadata>
 <title id="title8473">Paper Symbolic Icon Theme</title>
 <defs id="defs7386">
  <filter id="filter7554" style="color-interpolation-filters:sRGB">
   <feBlend id="feBlend7556" in2="BackgroundImage" mode="darken"/>
  </filter>
 </defs>
 <g id="layer12" transform="translate(-365 -.99666)">
  <path id="rect6867" d="m370 3-5 6 5 6h11v-12zm2 3h1c0.277 0 0.52628 0.11222 0.70703 0.29297l1.293 1.293 1.293-1.293c0.18075-0.18075 0.43003-0.29297 0.70703-0.29297h1v1c0 0.277-0.11222 0.52628-0.29297 0.70703l-1.293 1.293 1.293 1.293c0.18075 0.18075 0.29297 0.43003 0.29297 0.70703v1h-1c-0.277 0-0.52628-0.11222-0.70703-0.29297l-1.293-1.293-1.293 1.293c-0.18075 0.18075-0.43003 0.29297-0.70703 0.29297h-1v-1c0-0.277 0.11222-0.52628 0.29297-0.70703l1.293-1.293-1.293-1.293c-0.18075-0.18075-0.29297-0.43003-0.29297-0.70703z" style="fill:#555"/>
 </g>
</svg>
