<?xml version="1.0" encoding="UTF-8"?>
<!-- Created with Inkscape (http://www.inkscape.org/) -->
<svg id="svg7384" width="16" height="16" style="enable-background:new" version="1.1" xmlns="http://www.w3.org/2000/svg" xmlns:cc="http://creativecommons.org/ns#" xmlns:dc="http://purl.org/dc/elements/1.1/" xmlns:osb="http://www.openswatchbook.org/uri/2009/osb" xmlns:rdf="http://www.w3.org/1999/02/22-rdf-syntax-ns#">
 <metadata id="metadata90">
  <rdf:RDF>
   <cc:Work rdf:about="">
    <dc:format>image/svg+xml</dc:format>
    <dc:type rdf:resource="http://purl.org/dc/dcmitype/StillImage"/>
    <dc:title>Paper Symbolic Icon Theme</dc:title>
   </cc:Work>
  </rdf:RDF>
 </metadata>
 <title id="title8473">Paper Symbolic Icon Theme</title>
 <defs id="defs7386">
  <filter id="filter7554" color-interpolation-filters="sRGB">
   <feBlend id="feBlend7556" in2="BackgroundImage" mode="darken"/>
  </filter>
 </defs>
 <g id="layer12" transform="translate(-566 -41)">
  <path id="path8662" d="m582 46v6l-4-3z" style="fill:#555"/>
  <path id="path11643-3-2-67" d="m572 44v2h2.9062c-0.05518 0 0.09375 0.17104 0.09375 0.09375v0.9375h-1c-1.7159 0-3.0379 1.1099-3.0625 2.4688-0.0123 0.67944 0.3195 1.3532 0.875 1.8125s1.3096 0.71875 2.1875 0.71875h2 1v-1-4.9375c0-1.1608-0.88179-2.0778-2.0625-2.0938h-0.0312-2.9063zm2 5.0312h1v1h-1c-0.51941 0-0.78011-0.14571-0.90625-0.25s-0.15755-0.17804-0.15625-0.25c3e-3 -0.14392 0.0927-0.5 1.0625-0.5z" style="block-progression:tb;color:#000000;enable-background:accumulate;fill:#555;text-indent:0;text-transform:none"/>
  <path id="path8656" d="m566 46v6l4-3z" style="fill:#555"/>
 </g>
</svg>
