<?xml version="1.0" encoding="UTF-8"?>
<!-- Created with Inkscape (http://www.inkscape.org/) -->
<svg id="svg7384" width="16" height="16" style="enable-background:new" version="1.1" xmlns="http://www.w3.org/2000/svg" xmlns:cc="http://creativecommons.org/ns#" xmlns:dc="http://purl.org/dc/elements/1.1/" xmlns:osb="http://www.openswatchbook.org/uri/2009/osb" xmlns:rdf="http://www.w3.org/1999/02/22-rdf-syntax-ns#">
 <metadata id="metadata90">
  <rdf:RDF>
   <cc:Work rdf:about="">
    <dc:format>image/svg+xml</dc:format>
    <dc:type rdf:resource="http://purl.org/dc/dcmitype/StillImage"/>
    <dc:title>Paper Symbolic Icon Theme</dc:title>
   </cc:Work>
  </rdf:RDF>
 </metadata>
 <title id="title8473">Paper Symbolic Icon Theme</title>
 <defs id="defs7386">
  <filter id="filter7554" style="color-interpolation-filters:sRGB">
   <feBlend id="feBlend7556" in2="BackgroundImage" mode="darken"/>
  </filter>
 </defs>
 <g id="layer12" transform="translate(-485 -40.997)">
  <path id="path6844" d="m487.34 41.934 12.719 12.719-1.4062 1.4062-12.719-12.719z" style="color:#000000;enable-background:accumulate;fill:#555"/>
  <path id="path6857" d="m491.41 43.996 2 2h1.5938c0.42816 0 1 0.61414 1 1v1h-0.59375l2.5938 2.5938v-3.5938c9e-5 -1.6343-1.3198-3-3-3h-3.5938zm-2.4062 0.40625v1.5938h1.5938l-1.5938-1.5938zm2 3.5938c-0.91927 0-1.7356 0.38396-2.25 0.96875s-0.75639 1.3106-0.75 2.0312c6e-3 0.72062 0.26893 1.4527 0.78125 2.0312s1.3105 0.96875 2.2188 0.96875h5 1 1v-0.59375l-2-2v0.59375h-5c-0.39787 0-0.56691-0.10979-0.71875-0.28125s-0.27877-0.43937-0.28125-0.71875c-2e-3 -0.27938 0.10467-0.55354 0.25-0.71875s0.32764-0.28125 0.75-0.28125h3.5938l-2-2h-1.5938z" style="fill:#555"/>
 </g>
</svg>
