<?xml version="1.0" encoding="UTF-8"?>
<!-- Created with Inkscape (http://www.inkscape.org/) -->
<svg id="svg7384" width="16" height="16" style="enable-background:new" version="1.1" xmlns="http://www.w3.org/2000/svg" xmlns:cc="http://creativecommons.org/ns#" xmlns:dc="http://purl.org/dc/elements/1.1/" xmlns:osb="http://www.openswatchbook.org/uri/2009/osb" xmlns:rdf="http://www.w3.org/1999/02/22-rdf-syntax-ns#">
 <metadata id="metadata90">
  <rdf:RDF>
   <cc:Work rdf:about="">
    <dc:format>image/svg+xml</dc:format>
    <dc:type rdf:resource="http://purl.org/dc/dcmitype/StillImage"/>
    <dc:title>Paper Symbolic Icon Theme</dc:title>
   </cc:Work>
  </rdf:RDF>
 </metadata>
 <title id="title8473">Paper Symbolic Icon Theme</title>
 <defs id="defs7386">
  <filter id="filter7554" style="color-interpolation-filters:sRGB">
   <feBlend id="feBlend7556" in2="BackgroundImage" mode="darken"/>
  </filter>
 </defs>
 <g id="layer12" transform="translate(-285 -121)">
  <path id="path6444" d="m292 122.5-6.4688 4.5 6.4688 4.5v-2.5h2c0.19015 0 0.37643 0.0205 0.55859 0.0527 0.36102-0.40679 0.86438-0.69917 1.4238-0.83593l0.12891-0.43164c0.23712-0.79262 0.86395-1.4208 1.6543-1.668-0.84444-0.71268-1.9597-1.1172-3.2656-1.1172h-2.5v-2.5zm4.5 7.5c-0.055 0-0.10384 0.0128-0.15234 0.0273 0.22406 0.24317 0.40126 0.51607 0.52148 0.8125 0.0802-0.0878 0.13086-0.20385 0.13086-0.33984 0-0.28799-0.21201-0.5-0.5-0.5z" style="block-progression:tb;color:#bebebe;enable-background:accumulate;fill:#555;text-decoration-line:none;text-indent:0;text-transform:none"/>
  <path id="path6174-4" d="m298.5 127c-0.67876 0-1.2446 0.45371-1.4297 1.0723 0.91422 0.21867 1.6395 0.94489 1.8574 1.8594 0.61885-0.18488 1.0723-0.75268 1.0723-1.4316 0-0.82843-0.67157-1.5-1.5-1.5zm-2 2c-0.82843 0-1.5 0.67157-1.5 1.5 0 0.82842 0.67157 1.5 1.5 1.5s1.5-0.67158 1.5-1.5c0-0.82843-0.67157-1.5-1.5-1.5zm2.4356 2.0332c-0.11623 0.49107-0.38564 0.92212-0.74805 1.2617 0.48659 0.17835 0.87803 0.4185 1.1582 0.70508h1.6543v-0.5s-0.0278-1.294-2.0644-1.4668zm-2.4356 1.9668c-2.5 0-2.5 1.5-2.5 1.5v0.5h5v-0.5s0-1.5-2.5-1.5z" style="block-progression:tb;color:#000000;enable-background:accumulate;fill:#555;text-decoration-line:none;text-indent:0;text-transform:none"/>
 </g>
</svg>
