<?xml version="1.0" encoding="UTF-8"?>
<!-- Created with Inkscape (http://www.inkscape.org/) -->
<svg id="svg7384" width="16" height="16" style="enable-background:new" version="1.1" xmlns="http://www.w3.org/2000/svg" xmlns:cc="http://creativecommons.org/ns#" xmlns:dc="http://purl.org/dc/elements/1.1/" xmlns:osb="http://www.openswatchbook.org/uri/2009/osb" xmlns:rdf="http://www.w3.org/1999/02/22-rdf-syntax-ns#">
 <metadata id="metadata90">
  <rdf:RDF>
   <cc:Work rdf:about="">
    <dc:format>image/svg+xml</dc:format>
    <dc:type rdf:resource="http://purl.org/dc/dcmitype/StillImage"/>
    <dc:title>Paper Symbolic Icon Theme</dc:title>
   </cc:Work>
  </rdf:RDF>
 </metadata>
 <title id="title8473">Paper Symbolic Icon Theme</title>
 <defs id="defs7386">
  <filter id="filter7554" color-interpolation-filters="sRGB">
   <feBlend id="feBlend7556" in2="BackgroundImage" mode="darken"/>
  </filter>
 </defs>
 <g id="layer12" transform="translate(-525 19.003)">
  <path id="path6545-7" d="m534-18 1.2188 1.9062-4.4062 2.75c-0.51544-0.41091-1.1508-0.65629-1.8125-0.65625-1.5709 9e-5 -3 1.4293-3 3s1.4291 2.9999 3 3c0.66168 4e-5 1.2971-0.27659 1.8125-0.6875l4.4062 2.7812-1.2188 1.9062h6l-2.5-5.5-1.2188 1.9375-4.375-2.7812c0.0545-0.21463 0.0937-0.43211 0.0937-0.65625s-0.0393-0.44162-0.0937-0.65625l4.375-2.7812 1.2188 1.9375 2.5-5.5h-6z" style="color:#000000;enable-background:new;fill:#555"/>
 </g>
</svg>
