<?xml version="1.0" encoding="UTF-8"?>
<!-- Created with Inkscape (http://www.inkscape.org/) -->
<svg id="svg7384" width="16" height="16" style="enable-background:new" version="1.1" xmlns="http://www.w3.org/2000/svg" xmlns:cc="http://creativecommons.org/ns#" xmlns:dc="http://purl.org/dc/elements/1.1/" xmlns:osb="http://www.openswatchbook.org/uri/2009/osb" xmlns:rdf="http://www.w3.org/1999/02/22-rdf-syntax-ns#">
 <metadata id="metadata90">
  <rdf:RDF>
   <cc:Work rdf:about="">
    <dc:format>image/svg+xml</dc:format>
    <dc:type rdf:resource="http://purl.org/dc/dcmitype/StillImage"/>
    <dc:title>Paper Symbolic Icon Theme</dc:title>
   </cc:Work>
  </rdf:RDF>
 </metadata>
 <title id="title8473">Paper Symbolic Icon Theme</title>
 <defs id="defs7386">
  <filter id="filter7554" style="color-interpolation-filters:sRGB">
   <feBlend id="feBlend7556" in2="BackgroundImage" mode="darken"/>
  </filter>
 </defs>
 <g id="layer12" transform="translate(-285 -20.997)">
  <path id="path10500-6-2" d="m292.76 26.99-0.11022 1.317a3.9286 3.9286 0 0 0-1.1482 0.66406l-1.197-0.56362-1.25 2.1652 1.0868 0.75475a3.9286 3.9286 0 0 0-0.06 0.66266 3.9286 3.9286 0 0 0 0.0572 0.66546l-1.084 0.75196 1.25 2.1652 1.1942-0.56222a3.9286 3.9286 0 0 0 1.1509 0.65987l0.11022 1.3198h2.5l0.11021-1.317a3.9286 3.9286 0 0 0 1.1482-0.66406l1.197 0.56362 1.25-2.1652-1.0868-0.75475a3.9286 3.9286 0 0 0 0.06-0.66266 3.9286 3.9286 0 0 0-0.0572-0.66546l1.084-0.75196-1.25-2.1652-1.1942 0.56222a3.9286 3.9286 0 0 0-1.1509-0.65987l-0.1102-1.3198h-2.5zm1.25 3.5714a1.4286 1.4286 0 0 1 1.4286 1.4286 1.4286 1.4286 0 0 1-1.4286 1.4286 1.4286 1.4286 0 0 1-1.4286-1.4286 1.4286 1.4286 0 0 1 1.4286-1.4286z" style="enable-background:new;fill:#555"/>
  <path id="path6984" d="m292.19 27.26-0.33784-0.71736a2.3571 2.3571 0 0 0 0.39738-0.6895l0.79106-0.0662-3e-5 -1.5001-0.79113-0.0661a2.3571 2.3571 0 0 0-0.16762-0.36233 2.3571 2.3571 0 0 0-0.22934-0.32863l0.3377-0.7159-1.2991-0.75006-0.45184 0.65041a2.3571 2.3571 0 0 0-0.796 2e-3l-0.45317-0.65272-1.299 0.75 0.33783 0.71737a2.3571 2.3571 0 0 0-0.39738 0.6895l-0.79106 0.0662 4e-5 1.5001 0.79113 0.0661a2.3571 2.3571 0 0 0 0.16763 0.36233 2.3571 2.3571 0 0 0 0.22934 0.32863l-0.3377 0.7159 1.2991 0.75006 0.45184-0.65041a2.3571 2.3571 0 0 0 0.796-2e-3l0.45317 0.65272 1.299-0.75zm-1.7209-1.4808a0.85714 0.85714 0 0 1-1.1709-0.31374 0.85714 0.85714 0 0 1 0.31373-1.1709 0.85714 0.85714 0 0 1 1.1709 0.31374 0.85714 0.85714 0 0 1-0.31373 1.1709z" style="enable-background:new;fill:#555"/>
 </g>
</svg>
