<?xml version="1.0" encoding="UTF-8"?>
<!-- Created with Inkscape (http://www.inkscape.org/) -->
<svg id="svg7384" width="16" height="16" style="enable-background:new" version="1.1" xmlns="http://www.w3.org/2000/svg" xmlns:cc="http://creativecommons.org/ns#" xmlns:dc="http://purl.org/dc/elements/1.1/" xmlns:osb="http://www.openswatchbook.org/uri/2009/osb" xmlns:rdf="http://www.w3.org/1999/02/22-rdf-syntax-ns#">
 <metadata id="metadata90">
  <rdf:RDF>
   <cc:Work rdf:about="">
    <dc:format>image/svg+xml</dc:format>
    <dc:type rdf:resource="http://purl.org/dc/dcmitype/StillImage"/>
    <dc:title>Paper Symbolic Icon Theme</dc:title>
   </cc:Work>
  </rdf:RDF>
 </metadata>
 <title id="title8473">Paper Symbolic Icon Theme</title>
 <defs id="defs7386">
  <filter id="filter7554" style="color-interpolation-filters:sRGB">
   <feBlend id="feBlend7556" in2="BackgroundImage" mode="darken"/>
  </filter>
 </defs>
 <g id="layer12" transform="translate(-325 -20.997)">
  <rect id="rect5820" x="332" y="21.997" width="1.9998" height="7.0034" rx=".9999" ry=".9999" style="color:#bebebe;fill:#555"/>
  <path id="path6796" d="m335.94 23.988a1.0001 1.0001 0 0 0-0.54297 1.8086c1.3779 1.0307 1.941 2.8163 1.4043 4.4512-0.53674 1.6348-2.0489 2.7386-3.7695 2.752-1.7206 0.0134-3.2504-1.0671-3.8125-2.6934s-0.0257-3.4206 1.3359-4.4727a1.0001 1.0001 0 1 0-1.2227-1.582c-2.035 1.5722-2.8421 4.2785-2.002 6.709 0.84011 2.4305 3.1453 4.0591 5.7168 4.0391 2.5715-0.02002 4.8521-1.6856 5.6543-4.1289 0.80217-2.4433-0.0482-5.1354-2.1074-6.6758a1.0001 1.0001 0 0 0-0.6543-0.20703z" style="block-progression:tb;color-rendering:auto;color:#000000;enable-background:accumulate;fill:#555;image-rendering:auto;isolation:auto;mix-blend-mode:normal;shape-rendering:auto;solid-color:#000000;text-decoration-color:#000000;text-decoration-line:none;text-decoration-style:solid;text-indent:0;text-transform:none;white-space:normal"/>
 </g>
</svg>
