<?xml version="1.0" encoding="UTF-8"?>
<!-- Created with Inkscape (http://www.inkscape.org/) -->
<svg id="svg6530" width="22" height="22" version="1.1" viewBox="0 0 22 22" xmlns="http://www.w3.org/2000/svg" xmlns:cc="http://creativecommons.org/ns#" xmlns:dc="http://purl.org/dc/elements/1.1/" xmlns:osb="http://www.openswatchbook.org/uri/2009/osb" xmlns:rdf="http://www.w3.org/1999/02/22-rdf-syntax-ns#">
 <metadata id="metadata6535">
  <rdf:RDF>
   <cc:Work rdf:about="">
    <dc:format>image/svg+xml</dc:format>
    <dc:type rdf:resource="http://purl.org/dc/dcmitype/StillImage"/>
    <dc:title/>
   </cc:Work>
  </rdf:RDF>
 </metadata>
 <g id="layer1" transform="translate(-105 -373.36)">
  <rect id="rect10708" transform="matrix(0,1,1,0,0,0)" x="373.36" y="105" width="22" height="22" style="color:#dddddd;fill:none"/>
  <path id="path10710" d="m118 377.36v1h3s-3e-5 0.446-3e-5 1v11c0 0.554-0.446 1-1 1h-8c-0.554 0-1-0.446-1-1v-11c0-0.554 3e-5 -1 3e-5 -1h3v-1z" style="fill:#dbdee0;opacity:.35"/>
  <path id="path10712" d="m121 386.36v4c0 0.554-0.446 1-1 1h-8c-0.554 0-1-0.446-1-1v-4z" style="fill:#dbdee0"/>
 </g>
</svg>
