<?xml version="1.0" encoding="UTF-8"?>
<!-- Created with Inkscape (http://www.inkscape.org/) -->
<svg id="svg6530" width="22" height="22" version="1.1" viewBox="0 0 22 22" xmlns="http://www.w3.org/2000/svg" xmlns:cc="http://creativecommons.org/ns#" xmlns:dc="http://purl.org/dc/elements/1.1/" xmlns:osb="http://www.openswatchbook.org/uri/2009/osb" xmlns:rdf="http://www.w3.org/1999/02/22-rdf-syntax-ns#">
 <metadata id="metadata6535">
  <rdf:RDF>
   <cc:Work rdf:about="">
    <dc:format>image/svg+xml</dc:format>
    <dc:type rdf:resource="http://purl.org/dc/dcmitype/StillImage"/>
    <dc:title/>
   </cc:Work>
  </rdf:RDF>
 </metadata>
 <g id="layer1" transform="translate(-57 -541.36)">
  <path id="path10987" d="m68 544.36c0.55228 0 1 0.44772 1 1-2.9e-4 0.0333-2e-3 0.0665-6e-3 0.0996 2.2903 0.45883 4.006 2.4712 4.0059 4.9004l-1.4e-4 2v2.5l2 2v0.5h-2-10-2v-0.5l2-2 1.4e-4 -4.5c8e-5 -2.4292 1.7157-4.4416 4.0059-4.9004-4e-3 -0.0331-6e-3 -0.0663-6e-3 -0.0996 0-0.55228 0.44772-1 1-1zm1.7284 14c-0.35663 0.61771-1.0152 0.99874-1.7285 1-0.71397-5.6e-4 -1.3735-0.38169-1.7305-1z" style="fill:#03a9f4"/>
  <rect id="rect10989" x="57" y="541.36" width="22" height="22" style="color:#bebebe;enable-background:new;fill:none"/>
 </g>
</svg>
