<?xml version="1.0" encoding="UTF-8"?>
<!-- Created with Inkscape (http://www.inkscape.org/) -->
<svg id="svg6530" width="22" height="22" version="1.1" viewBox="0 0 22 22" xmlns="http://www.w3.org/2000/svg" xmlns:cc="http://creativecommons.org/ns#" xmlns:dc="http://purl.org/dc/elements/1.1/" xmlns:osb="http://www.openswatchbook.org/uri/2009/osb" xmlns:rdf="http://www.w3.org/1999/02/22-rdf-syntax-ns#">
 <metadata id="metadata6535">
  <rdf:RDF>
   <cc:Work rdf:about="">
    <dc:format>image/svg+xml</dc:format>
    <dc:type rdf:resource="http://purl.org/dc/dcmitype/StillImage"/>
    <dc:title/>
   </cc:Work>
  </rdf:RDF>
 </metadata>
 <g id="layer1" transform="translate(-57 -229.36)">
  <rect id="rect10128" transform="rotate(-90)" x="-251.36" y="57" width="22" height="22" style="color:#bebebe;fill:none"/>
  <path id="path10130" d="m68 235.36c-3.0344 0-5.7659 1.0782-8.0312 2.75l8.0312 8.75 1-1.1016v-1.3984h1.0137c0.01961-1.6316 1.3374-2.9924 2.9766-2.998l2.9785-3.2832c-2.2566-1.6533-4.9577-2.7188-7.9688-2.7188z" style="color:#000000;fill:#dbdee0;opacity:.35"/>
  <path id="path10132" d="m73 242.36c-1.108 0-2 0.91085-2 2.0312v0.96875h-1v1 2 1h1 4 1v-1-2-1h-1v-0.96875c0-1.1199-0.892-2.0312-2-2.0312zm0 1c0.554 0 1 0.4424 1 1v1h-2v-1c0-0.5576 0.446-1 1-1z" style="color:#000000;fill:#dbdee0"/>
  <path id="path10435" d="m68 238.36c-2.2428 0-4.2611 0.79748-5.9355 2.0332l5.9355 6.4668 0.99414-1.0957v-1.3672h0.0059l-4.1e-5 -0.0371h0.99609c0.0099-0.40425 0.10165-0.79042 0.25781-1.1426 0.45306-1.079 1.5032-1.8541 2.7383-1.8574l0.89844-0.99023c-1.6679-1.222-3.6651-2.0098-5.8906-2.0098z" style="color:#000000;fill:#dbdee0"/>
 </g>
</svg>
