<?xml version="1.0" encoding="UTF-8"?>
<!-- Created with Inkscape (http://www.inkscape.org/) -->
<svg id="svg6530" width="22" height="22" version="1.1" viewBox="0 0 22 22" xmlns="http://www.w3.org/2000/svg" xmlns:cc="http://creativecommons.org/ns#" xmlns:dc="http://purl.org/dc/elements/1.1/" xmlns:osb="http://www.openswatchbook.org/uri/2009/osb" xmlns:rdf="http://www.w3.org/1999/02/22-rdf-syntax-ns#">
 <metadata id="metadata6535">
  <rdf:RDF>
   <cc:Work rdf:about="">
    <dc:format>image/svg+xml</dc:format>
    <dc:type rdf:resource="http://purl.org/dc/dcmitype/StillImage"/>
    <dc:title/>
   </cc:Work>
  </rdf:RDF>
 </metadata>
 <g id="layer1" transform="translate(-129 -253.36)">
  <rect id="rect10247" transform="rotate(-90)" x="-275.36" y="129" width="22" height="22" style="color:#bebebe;fill:none"/>
  <path id="path6575" d="m134 258.36s-1 0-1 1v9c0 1 1 1 1 1h2l1 1h6v-3l-1 1h-4l-1-1h-2v-7h10v1h2v-2c0-1-1-1-1-1h-12z" style="fill:#dbdee0;opacity:.35"/>
  <path id="path6053-9" class="error" d="m144 262.36-1e-5 4 0.25 2h1.5l0.25-2 1e-5 -4zm0 7v2h2v-2z" style="color:#444444;fill:#e74c3c"/>
 </g>
</svg>
