<?xml version="1.0" encoding="UTF-8"?>
<!-- Created with Inkscape (http://www.inkscape.org/) -->
<svg id="svg6530" width="22" height="22" version="1.1" viewBox="0 0 22 22" xmlns="http://www.w3.org/2000/svg" xmlns:cc="http://creativecommons.org/ns#" xmlns:dc="http://purl.org/dc/elements/1.1/" xmlns:osb="http://www.openswatchbook.org/uri/2009/osb" xmlns:rdf="http://www.w3.org/1999/02/22-rdf-syntax-ns#">
 <metadata id="metadata6535">
  <rdf:RDF>
   <cc:Work rdf:about="">
    <dc:format>image/svg+xml</dc:format>
    <dc:type rdf:resource="http://purl.org/dc/dcmitype/StillImage"/>
    <dc:title/>
   </cc:Work>
  </rdf:RDF>
 </metadata>
 <g id="layer1" transform="translate(-57 -277.36)">
  <path id="path5810" d="m64.5 284.36c-1.0631 0-2.0268 0.38353-2.7969 1h5.5996c-0.77946-0.62546-1.7558-0.99853-2.8027-1zm-3.7383 7c0.8074 1.2051 2.1787 2 3.7383 2 1.5212-2e-3 2.8998-0.77661 3.7207-2h-7.459zm11.238 0v0.99609h3v-0.99609h-3z" style="enable-background:new;fill:#dbdee0;opacity:.35"/>
  <path id="rect8040-5-9-7" d="m63 286.36c-1.108 0-2 0.892-2 2s0.892 2 2 2 2-0.892 2-2-0.892-2-2-2zm5 0c-1.108 0-2 0.892-2 2s0.892 2 2 2 2-0.892 2-2-0.892-2-2-2zm5 0c-1.108 0-2 0.892-2 2s0.892 2 2 2 2-0.892 2-2-0.892-2-2-2z" style="color:#000000;enable-background:new;fill:#dbdee0"/>
  <rect id="rect10319" transform="rotate(-90)" x="-299.36" y="57" width="22" height="22" style="color:#bebebe;fill:none"/>
 </g>
</svg>
