<?xml version="1.0" encoding="UTF-8"?>
<!-- Created with Inkscape (http://www.inkscape.org/) -->
<svg id="svg6530" width="22" height="22" version="1.1" viewBox="0 0 22 22" xmlns="http://www.w3.org/2000/svg" xmlns:cc="http://creativecommons.org/ns#" xmlns:dc="http://purl.org/dc/elements/1.1/" xmlns:osb="http://www.openswatchbook.org/uri/2009/osb" xmlns:rdf="http://www.w3.org/1999/02/22-rdf-syntax-ns#">
 <metadata id="metadata6535">
  <rdf:RDF>
   <cc:Work rdf:about="">
    <dc:format>image/svg+xml</dc:format>
    <dc:type rdf:resource="http://purl.org/dc/dcmitype/StillImage"/>
    <dc:title/>
   </cc:Work>
  </rdf:RDF>
 </metadata>
 <g id="layer1" transform="translate(-105 -813.27)">
  <path id="path3526" d="m121.35 816.27c-1.9737 0.0295-5.7394 0.85776-6.75 2.25-0.71194 1.2065-0.4664 5.7293-0.28125 5.4375 1.526-2.4048 5.3571-5.538 7.6875-6.8438 1.0802-0.60527 0.52796-0.86143-0.65625-0.84375zm-8.5625 2.6875c-0.52117 0.0888-2.6072 1.5317-2.125 4.125 0.45775 1.324 3.382 3.0806 3.2812 2.75-0.83292-2.7342-1.125-4.5118-1.0312-6.8438 2e-3 -0.0432-0.0505-0.0439-0.125-0.0312zm6.6875 1.6875c-1.3972 0.10081-3.8766 2.4808-3.5312 2.4688 2.8566-0.0996 4.6461 0.0892 6.875 0.78125 0.33002 0.10247-0.33812-3.018-3.3437-3.25zm-10.125 2.7812c-0.27981 0.14749-0.77373 2.932 1.6562 4.375 1.2974 0.5285 4.5337-0.51408 4.2188-0.65625-2.6052-1.176-4.1207-2.1111-5.8125-3.7188-0.0157-0.0149-0.0439-0.01-0.0625 0zm8.0312 0.15625c-0.0738 4e-3 -0.0872 0.0271-0.0625 0.0625 1.6336 2.3455 2.4345 3.9398 3.0625 6.1875 0.093 0.33282 2.3422-1.9119 0.90625-4.5625-0.73745-0.97912-3.3899-1.7141-3.9062-1.6875zm0.625 2.125c-0.0163-4e-3 -0.0258 0.0104-0.0312 0.0312-0.72156 2.7657-1.4182 4.4372-2.7188 6.375-0.19257 0.28693 2.9806 0.50125 4.0625-2.3125 0.28407-1.2822-1.0687-4.031-1.3125-4.0938zm-1.0312 1.3125c-2.5785 1.2334-4.2741 1.8057-6.5938 2.0625-0.34346 0.038 1.5273 2.5828 4.375 1.5938 1.2404-0.65104 2.5305-3.8054 2.2188-3.6562z" style="fill:#dbdee0"/>
  <rect id="rect9068" x="105" y="813.27" width="22" height="22" style="color:#bebebe;enable-background:new;fill:none"/>
 </g>
</svg>
