<?xml version="1.0" encoding="UTF-8"?>
<!-- Created with Inkscape (http://www.inkscape.org/) -->
<svg id="svg6530" width="22" height="22" version="1.1" viewBox="0 0 22 22" xmlns="http://www.w3.org/2000/svg" xmlns:cc="http://creativecommons.org/ns#" xmlns:dc="http://purl.org/dc/elements/1.1/" xmlns:osb="http://www.openswatchbook.org/uri/2009/osb" xmlns:rdf="http://www.w3.org/1999/02/22-rdf-syntax-ns#">
 <metadata id="metadata6535">
  <rdf:RDF>
   <cc:Work rdf:about="">
    <dc:format>image/svg+xml</dc:format>
    <dc:type rdf:resource="http://purl.org/dc/dcmitype/StillImage"/>
    <dc:title/>
   </cc:Work>
  </rdf:RDF>
 </metadata>
 <g id="layer1" transform="translate(-201 -789.27)">
  <path id="path5250" d="m211 792.36s-3 0-3 3v1 6h-2v-6h-2v6c0 2 2 2 2 2h2v1c0 3 3 3 3 3h6c3 0 3-3 3-3v-4.4531-1.5469h-4v1 1h2l-4 5-4-5h2v-6h4v2h4v-2c0.0783 0.52713 0-3-3-3z" style="color:#bebebe;enable-background:new;fill:#dbdee0;opacity:.35"/>
  <rect id="rect5252" x="201" y="789.27" width="22" height="22" style="color:#bebebe;enable-background:new;fill:none"/>
 </g>
</svg>
