<?xml version="1.0" encoding="UTF-8"?>
<!-- Created with Inkscape (http://www.inkscape.org/) -->
<svg id="svg6530" width="22" height="22" version="1.1" viewBox="0 0 22 22" xmlns="http://www.w3.org/2000/svg" xmlns:cc="http://creativecommons.org/ns#" xmlns:dc="http://purl.org/dc/elements/1.1/" xmlns:osb="http://www.openswatchbook.org/uri/2009/osb" xmlns:rdf="http://www.w3.org/1999/02/22-rdf-syntax-ns#">
 <metadata id="metadata6535">
  <rdf:RDF>
   <cc:Work rdf:about="">
    <dc:format>image/svg+xml</dc:format>
    <dc:type rdf:resource="http://purl.org/dc/dcmitype/StillImage"/>
    <dc:title/>
   </cc:Work>
  </rdf:RDF>
 </metadata>
 <g id="layer1" transform="translate(-129 -681.29)">
  <rect id="rect6216" x="129" y="681.29" width="22" height="22" style="color:#bebebe;enable-background:new;fill:none"/>
  <path id="path6124" d="m134.98 696.28a0.50005 0.50005 0 0 0-0.42579 0.2832l-1 2a0.50006 0.50006 0 1 0 0.89454 0.44727l1-2a0.50005 0.50005 0 0 0-0.46875-0.73047zm2.5 0a0.50005 0.50005 0 0 0-0.42579 0.2832l-1 2a0.50006 0.50006 0 1 0 0.89454 0.44727l1-2a0.50005 0.50005 0 0 0-0.46875-0.73047zm2.5 0a0.50005 0.50005 0 0 0-0.42579 0.2832l-1 2a0.50006 0.50006 0 1 0 0.89454 0.44727l1-2a0.50005 0.50005 0 0 0-0.46875-0.73047zm2.5 0a0.50005 0.50005 0 0 0-0.42579 0.2832l-1 2a0.50006 0.50006 0 1 0 0.89454 0.44727l1-2a0.50005 0.50005 0 0 0-0.46875-0.73047zm2.5 0a0.50005 0.50005 0 0 0-0.42579 0.2832l-1 2a0.50006 0.50006 0 1 0 0.89454 0.44727l1-2a0.50005 0.50005 0 0 0-0.46875-0.73047z" style="block-progression:tb;color-rendering:auto;color:#000000;fill:#dbdee0;image-rendering:auto;isolation:auto;mix-blend-mode:normal;shape-rendering:auto;solid-color:#000000;text-decoration-color:#000000;text-decoration-line:none;text-decoration-style:solid;text-indent:0;text-transform:none;white-space:normal"/>
  <path id="path5884" d="m140 684.29c-2.0711 0-3.8347 1.2679-4.5938 3.0625-1.9278 0.2866-3.4062 1.9299-3.4062 3.9375 0 2.2091 1.7909 4 4 4h8.5c1.933 0 3.5-1.567 3.5-3.5 0-1.7965-1.3508-3.2687-3.0938-3.4688-0.45457-2.2934-2.4794-4.0312-4.9062-4.0312z" style="fill:#dbdee0"/>
 </g>
</svg>
