<?xml version="1.0" encoding="UTF-8"?>
<!-- Created with Inkscape (http://www.inkscape.org/) -->
<svg id="svg7384" width="16" height="16.035" style="enable-background:new" version="1.1" xmlns="http://www.w3.org/2000/svg" xmlns:cc="http://creativecommons.org/ns#" xmlns:dc="http://purl.org/dc/elements/1.1/" xmlns:osb="http://www.openswatchbook.org/uri/2009/osb" xmlns:rdf="http://www.w3.org/1999/02/22-rdf-syntax-ns#">
 <metadata id="metadata90">
  <rdf:RDF>
   <cc:Work rdf:about="">
    <dc:format>image/svg+xml</dc:format>
    <dc:type rdf:resource="http://purl.org/dc/dcmitype/StillImage"/>
    <dc:title>Paper Symbolic Icon Theme</dc:title>
   </cc:Work>
  </rdf:RDF>
 </metadata>
 <title id="title8473">Paper Symbolic Icon Theme</title>
 <defs id="defs7386">
  <filter id="filter7554" style="color-interpolation-filters:sRGB">
   <feBlend id="feBlend7556" in2="BackgroundImage" mode="darken"/>
  </filter>
 </defs>
 <g id="g6058" transform="translate(-604 -527.96)">
  <path id="path10434" d="m611 527.96s-2 0-2 2v2.0098l4 0.0254s1.4589 4e-3 2.3418 1.0234h1.8047c0.47486-0.0141 0.89987 0.179 1.1602 0.48242 0.26032 0.30343 0.36662 0.68529 0.35352 1.0527-0.0131 0.36743-0.14431 0.7365-0.41602 1.0234s-0.69851 0.46479-1.1641 0.42969h-1.0801v1.0195l1.9922-0.0312 0.0156 1-2.0078 0.0312v0.95898l2 0.01s2 0 2-2v-7c0-2-2-2-2-2l-7-0.0352zm3 3.0352h1v1h-1v-1zm2 0h1v1h-1v-1zm-0.12695 3.0234c0.07982 0.2841 0.12695 0.60703 0.12695 0.97656v0.0117h1.1348l0.0195 2e-3c0.20015 0.0151 0.28468-0.0361 0.36328-0.11914 0.0786-0.083 0.13758-0.22558 0.14258-0.37305 5e-3 -0.14748-0.0416-0.28393-0.11133-0.36523-0.0697-0.0813-0.15297-0.13981-0.37305-0.13281h-8e-3 -1.2949z" style="fill:#555;opacity:.35"/>
  <path id="path10432" d="m606 532.96s-2 0-2 2v7s0 2 2 2l7 0.03516s2 0 2-2v-7c0-2-2-2-2-2l-7-0.0352zm7.3633 2.0606 0.31641 0.94922-3 1-0.31641-0.94922zm-0.77539 2.9531 0.0234 2e-3c0.36741 0.0283 0.72246 0.14366 0.99805 0.39258 0.27556 0.24891 0.43554 0.63055 0.43554 1.0332v4e-3l-0.04488 2.5897c0 1-1 1-1 1l-2.4902 1.4e-4c-0.47486 0.0141-0.89987-0.179-1.1602-0.48242-0.26032-0.30343-0.36662-0.6853-0.35352-1.0527 0.0131-0.36743 0.14431-0.73649 0.41602-1.0234s0.69851-0.46479 1.1641-0.42969h2.4609l8e-3 -0.60547c0-0.17187-0.0405-0.23052-0.10742-0.29102-0.0657-0.0593-0.19608-0.11941-0.39648-0.13671l-2.8789 0.0449-0.0137-1 2.9394-0.0449zm-2.0859 3.0312c-0.20015-0.0151-0.28468 0.0361-0.36328 0.11914-0.0786 0.083-0.13758 0.22557-0.14258 0.37304-5e-3 0.14748 0.0416 0.28394 0.11133 0.36524 0.0697 0.0813 0.15297 0.13981 0.37305 0.13281h8e-3 2.5195l0.0137-0.98828h-2.502l-0.0176-2e-3z" style="fill:#555"/>
 </g>
</svg>
