<?xml version="1.0" encoding="UTF-8"?>
<!-- Created with Inkscape (http://www.inkscape.org/) -->
<svg id="svg7384" width="16" height="16" style="enable-background:new" version="1.1" xmlns="http://www.w3.org/2000/svg" xmlns:cc="http://creativecommons.org/ns#" xmlns:dc="http://purl.org/dc/elements/1.1/" xmlns:osb="http://www.openswatchbook.org/uri/2009/osb" xmlns:rdf="http://www.w3.org/1999/02/22-rdf-syntax-ns#">
 <metadata id="metadata90">
  <rdf:RDF>
   <cc:Work rdf:about="">
    <dc:format>image/svg+xml</dc:format>
    <dc:type rdf:resource="http://purl.org/dc/dcmitype/StillImage"/>
    <dc:title>Paper Symbolic Icon Theme</dc:title>
   </cc:Work>
  </rdf:RDF>
 </metadata>
 <title id="title8473">Paper Symbolic Icon Theme</title>
 <g id="g6058" transform="translate(-40 -100)">
  <path id="path10041" d="m50 116h5s0.33504-1 0-2c-0.18036 0.15698-1.5656 1-2.5 1s-2.1393-0.68603-2.5-1c-0.31243 1.2258 0 2 0 2z" style="fill-opacity:.99608;fill:#555"/>
  <path id="rect22385" d="m41 102v12c0 2 2 2 2 2h5v-2h-5v-12h10v4h2v-4c0-2-2-2-2-2h-10c-2 0-2 2-2 2zm4 3.0039c-0.55424 0-1 0.44945-1 1 0 0.55064 0.44576 1 1 1 0.55407 0 1-0.44936 1-1 0-0.55055-0.44593-1-1-1zm6 0c-0.55273 0-0.99785 0.44736-1 0.99609h2c-2e-3 -0.54873-0.44719-0.99609-1-0.99609zm-5.8262 4.8262-0.70703 0.70703c0.93673 0.93797 2.2076 1.4658 3.5332 1.4668v-1c-1.0604-1e-3 -2.077-0.42341-2.8262-1.1738z" style="fill-opacity:.99608;fill:#555"/>
  <path id="path22411" d="m52.5 107c-1.933 0-3.5 1.567-3.5 3.5s1.567 3.5 3.5 3.5 3.5-1.567 3.5-3.5-1.567-3.5-3.5-3.5zm0 2c0.82955 0 1.5 0.67158 1.5 1.5s-0.67045 1.5-1.5 1.5-1.5-0.67158-1.5-1.5 0.67045-1.5 1.5-1.5z" style="fill-opacity:.99608;fill:#555"/>
 </g>
</svg>
