<?xml version="1.0" encoding="UTF-8"?>
<!-- Created with Inkscape (http://www.inkscape.org/) -->
<svg id="svg7384" width="16" height="16" style="enable-background:new" version="1.1" xmlns="http://www.w3.org/2000/svg" xmlns:cc="http://creativecommons.org/ns#" xmlns:dc="http://purl.org/dc/elements/1.1/" xmlns:osb="http://www.openswatchbook.org/uri/2009/osb" xmlns:rdf="http://www.w3.org/1999/02/22-rdf-syntax-ns#">
 <metadata id="metadata90">
  <rdf:RDF>
   <cc:Work rdf:about="">
    <dc:format>image/svg+xml</dc:format>
    <dc:type rdf:resource="http://purl.org/dc/dcmitype/StillImage"/>
    <dc:title>Paper Symbolic Icon Theme</dc:title>
   </cc:Work>
  </rdf:RDF>
 </metadata>
 <title id="title8473">Paper Symbolic Icon Theme</title>
 <g id="g6058" transform="translate(-40,-180)">
  <path id="rect4265" d="m48 182c-0.12967 3.6e-4 -0.2593 5e-3 -0.38867 0.0137 0.11275 0.38275 0.01807 0.82666-0.39062 1.1035-0.36006 0.24371-0.54736 0.45789-0.57031 0.49609-0.01408 0.0227-0.02907 0.0449-0.04492 0.0664-0.01382 0.0251-0.02022 0.0717-0.0332 0.0996l0.1543 0.15234c0.03565 0.0345 0.0383 0.0429 0.03711 0.0469 0.16922 0.028 0.33717 0.0448 0.50781 0.0351 0.20529-0.0117 0.40921 0.0401 0.58398 0.14844 0.18611 0.11582 0.4485 0.32797 0.55664 0.7168 0.08137 0.29255-0.03553 0.52712-0.12891 0.74218-7e-3 0.0234-0.02516 0.0449-0.0332 0.0684l0.02734-0.043c-0.02811 0.0617-0.0067 0.17335-0.03711 0.21875-0.03768 0.0556-0.08086 0.10733-0.12891 0.1543l-2e-3 2e-3 -0.0059 6e-3c-9e-3 9e-3 -0.01807 0.0171-0.02734 0.0254-0.12312 0.20554-0.27142 0.39064-0.46484 0.49415l0.02344-0.0117c-0.11885 0.0679-0.3281 0.2531-0.50586 0.39453 0.08139 0.34787 0.27255 0.67699 0.21094 1.0312-0.02178 0.12602-0.06753 0.24669-0.13477 0.35547 0.70553-0.30714 1.5153-0.39104 2.1895-0.0391 0.01119 6e-3 0.02226 0.0128 0.0332 0.0195 0.32179 0.18437 0.61802 0.41406 0.84961 0.73632 0.05274 0.0727 0.09544 0.15221 0.12695 0.23633 0.10317 0.27908 0.16378 0.74875-0.09961 1.1562-0.26339 0.40751-0.67284 0.53357-0.95508 0.57227-0.07055 0.01-0.14192 0.0114-0.21289 6e-3l-0.48047 0.31445c0.01686 1e-3 0.02985 8e-3 0.04687 8e-3 0.79862-0.0365 1.5507-0.48945 2.373-1.7324 0.12104-0.18276 0.29877-0.3207 0.50586-0.39258 0.0617-0.46041 0.10685-0.94573 0.02734-1.6035-0.04822-0.39616 0.14369-0.78307 0.48828-0.98438-0.02978-0.40098 0.08197-0.63389-0.04687-1.1387-0.05212-0.20633-0.03707-0.4239 0.04297-0.62109-0.15865-0.1823-0.13958-0.37121-0.38672-0.54493v-2e-3c-0.10025-0.068-0.17164-0.11619-0.22852-0.15039l-0.0078-6e-3 -0.01953-0.0117c-0.35099-0.20687-0.7815-0.4153-1.293-0.61914-0.41924-0.16723-0.67452-0.59455-0.62305-1.043-0.28137-0.0622-0.48052-0.21067-0.60938-0.39844-0.30604-0.05023-0.61556-0.07635-0.92571-0.07842zm-1.209 2.5273-0.06836 0.0488-0.02344 0.0274 0.01367-0.0137h2e-3c0.02435-0.0221 0.04977-0.0429 0.07617-0.0625zm0.14648 1.4668c0.09733 0.16672 0.04396 0.36958 0.11133 0.54883l0.02148-0.0488zm2.1406 3.0234c-0.0065 9e-4 -0.06624 0.0575-0.08594 0.0625 0.22626-2e-3 0.45361-0.0677 0.64453 0.0215z" style="enable-background:new;fill:#555;opacity:.35"/>
  <path id="path4774" d="m48 180c-1.9831 0-3.7823 0.72608-5.1758 1.9141 0.07845 0.28545 0.15383 0.42808 0.18164 0.47266 0.31095-0.0677 0.61426-0.0785 0.91602-0.0644a7 7 0 0 1 4.0781-1.3223 7 7 0 0 1 0.84961 0.0586c0.14526-0.31235 0.4477-0.5538 0.89062-0.55859 0.04418-6e-4 0.07348 0.0156 0.11719 0.0156v-0.01s0.10171 0.0246 0.11328 0.0254c0.37938 5e-3 0.73254 0.0419 1.0781 0.0859-0.94008-0.38795-1.9645-0.61691-3.0488-0.61691zm1.752 1.5s1.2407 0.13018 1.8242 1.0137c0 0-0.59782-0.14236-1.0488 0.0762 0.5495 0.21899 1.0261 0.4485 1.4316 0.6875l0.03516 0.0215c0.104 0.0625 0.19311 0.12595 0.28711 0.18945 0.749 0.526 1.4436 1.2762 1.3906 2.2441-0.16151-0.255-0.37684-0.42186-0.65234-0.50586 0.3395 1.33 0.37411 2.4284 0.09961 3.2949-0.1885-0.57701-0.36307-0.92293-0.51758-1.0449 0.2155 1.783-0.07465 3.1014-0.86914 3.9609 0.151-0.5245 0.21173-0.95397 0.17773-1.293-0.9335 1.411-1.997 2.1406-3.1875 2.1856-0.4705-4e-3 -0.91403-0.0749-1.332-0.21289-0.614-0.2075-1.1696-0.56146-1.6641-1.0645 0.772 0.0645 1.4772-0.0702 2.0977-0.38671l1.0156-0.66606-2e-3 -2e-3c0.132-0.05 0.25596-0.0469 0.37695 0.01 0.248-0.034 0.33495-0.16611 0.25195-0.39062-0.12-0.16699-0.30216-0.31963-0.53516-0.45313-0.5085-0.2655-1.0397-0.22263-1.5938 0.13086-0.5275 0.30001-1.0353 0.28771-1.5293-0.0312-0.3235-0.22349-0.6355-0.52438-0.9375-0.90039l-0.12105-0.17797v-4e-3c0.0145-0.372 0.16939-0.57705 0.46289-0.62305h2e-3c0.3315 0.0305 0.71163 0.10548 1.1406 0.23047 0.072-0.41399-0.02371-0.84652-0.2832-1.291v-8e-3c0.403-0.37601 0.7609-0.64971 1.0664-0.82421 0.1355-0.0725 0.21423-0.18158 0.24023-0.33008l0.01172-0.01 0.0039-4e-3 0.01367-0.0137c0.079-0.11801 0.05295-0.21287-0.08203-0.29687-0.2825 0.0155-0.56565-4e-3 -0.84766-0.0606l-0.0039 0.0117c-0.1165-0.034-0.26236-0.1375-0.44336-0.3125l-0.46289-0.45703-0.14062-0.10938v0.0156h-0.0039l0.0039-0.0156v-4e-3l-0.02539-0.0274 0.03711-0.0254c0.064-0.3455 0.16981-0.64343 0.32031-0.89843l0.0332-0.0312c0.151-0.25099 0.44169-0.52059 0.86719-0.8086-0.791 0.0985-1.5066 0.45577-2.1426 1.0723-0.52601-0.19296-1.1503-0.15235-1.8672 0.12305-0.4525-0.20803-0.7573-0.80671-0.9043-1.7832-0.576 0.5705-0.85639 1.59-0.83789 3.0606l-0.16406 0.24805-0.04297 0.0293-0.0117 0.012-0.0078 0.0176c-0.0875 0.137-0.20738 0.34308-0.35938 0.62109-0.2185 0.39299-0.29295 0.72422-0.31445 1.0117l-2e-3 4e-3 2e-3 0.01-0.0078 0.0742 0.01172-0.0195c0.0015 0.0665 0.0045 0.13336 0.02148 0.19336l0.46671-0.38266c-0.1695 0.42949-0.28284 0.8842-0.33984 1.3672l-0.01367 0.2207-0.14649-0.16602c0 1.714 0.54489 3.2976 1.4629 4.5996l0.02734 0.043 0.04297 0.0527c0.66 0.90651 1.5045 1.6694 2.4805 2.2324 0.7015 0.4155 1.4538 0.7059 2.2578 0.8789l0.16602 0.0371c0.1665 0.032 0.33682 0.0566 0.50781 0.0781 0.1265 0.0165 0.25286 0.032 0.38086 0.043l0.16992 0.0195h0.24219l0.26172 0.01372 0.20898-0.01 0.3457-0.0176c0.2045-0.014 0.40547-0.0374 0.60547-0.0664l0.12109-0.0176v-2e-3c3.807-0.61386 6.7188-3.9059 6.7188-7.8864l-0.07227 0.0898c0.11399-0.7565 0.09396-1.4296-0.0625-2.0176-0.056 0.4355-0.11819 0.69918-0.17969 0.80468-5.02e-4 -0.034-0.0078-0.48954-0.15234-1.123-0.06851-0.46199-0.16959-0.89538-0.30859-1.2969 0.03396 0.184 0.05441 0.33756 0.06445 0.47656-0.581-1.559-2.0126-3.4786-5.5371-3.4336zm-2.9609 3.0273-0.06836 0.0488-0.02344 0.0274 0.01367-0.0137h2e-3c0.02435-0.0221 0.04977-0.0429 0.07617-0.0625zm0.14648 1.4668c0.09733 0.16672 0.04396 0.36958 0.11133 0.54883l0.02148-0.0488-0.13281-0.5zm2.1406 3.0234c-0.0065 9e-4 -0.06624 0.0575-0.08594 0.0625 0.22626-2e-3 0.45361-0.0677 0.64453 0.0215l-0.55859-0.084z" style="enable-background:new;fill:#555"/>
 </g>
</svg>
