<?xml version="1.0" encoding="UTF-8"?>
<!-- Created with Inkscape (http://www.inkscape.org/) -->
<svg id="svg7384" width="16" height="16" style="enable-background:new" version="1.1" xmlns="http://www.w3.org/2000/svg" xmlns:cc="http://creativecommons.org/ns#" xmlns:dc="http://purl.org/dc/elements/1.1/" xmlns:osb="http://www.openswatchbook.org/uri/2009/osb" xmlns:rdf="http://www.w3.org/1999/02/22-rdf-syntax-ns#">
 <metadata id="metadata90">
  <rdf:RDF>
   <cc:Work rdf:about="">
    <dc:format>image/svg+xml</dc:format>
    <dc:type rdf:resource="http://purl.org/dc/dcmitype/StillImage"/>
    <dc:title>Paper Symbolic Icon Theme</dc:title>
   </cc:Work>
  </rdf:RDF>
 </metadata>
 <title id="title8473">Paper Symbolic Icon Theme</title>
 <g id="g6058" transform="translate(-256 -99.997)">
  <path id="path6119" d="m264.03 107-1 1h-2.0312c-0.46865 0.0651-1 0.5417-1 1v6c0 0.4583 0.52685 1 1 1h10c0.47315 0 1-0.5417 1-1v-6c0-0.4583-0.52685-1-1-1h-1.9688l-1-1h-4zm1.9688 2c1.6568 0 3 1.3432 3 3s-1.3432 3-3 3-3-1.3432-3-3 1.3432-3 3-3zm0 1c-1.1046 0-2 0.89543-2 2s0.89543 2 2 2 2-0.89543 2-2-0.89543-2-2-2z" style="color:#bebebe;enable-background:accumulate;fill:#555"/>
  <path id="path6070" d="m257 100c-1 0-1 1-1 1v10c0 1 1 1 1 1h2v-2h-1v-2.5l2.5-2.9375 2.1348 2.416 0.68945-0.68946 0.29297-0.29297h4.8281l1 1h0.55469v-5.9961c0-1-1-1-1-1h-12zm11 8.3789v0.17773c1.0155 0.59543 1.746 1.6153 1.9375 2.8184 0.03707-0.10717 0.0625-0.22755 0.0625-0.375v-2.0039h-1.3828l-0.61719-0.61718zm-7 1.6211v2h1v-4e-3c0-0.74072 0.2354-1.4098 0.59961-1.9961l-1.5996 9e-5zm5 0.99609c-0.56413 0-1 0.43587-1 1v4e-3h2v-4e-3c0-0.56413-0.43587-1-1-1z" style="block-progression:tb;color:#000000;enable-background:new;fill:#555;text-decoration-line:none;text-indent:0;text-transform:none"/>
 </g>
</svg>
