<?xml version="1.0" encoding="UTF-8"?>
<!-- Created with Inkscape (http://www.inkscape.org/) -->
<svg id="svg7384" width="16" height="16" style="enable-background:new" version="1.1" xmlns="http://www.w3.org/2000/svg" xmlns:cc="http://creativecommons.org/ns#" xmlns:dc="http://purl.org/dc/elements/1.1/" xmlns:osb="http://www.openswatchbook.org/uri/2009/osb" xmlns:rdf="http://www.w3.org/1999/02/22-rdf-syntax-ns#">
 <metadata id="metadata90">
  <rdf:RDF>
   <cc:Work rdf:about="">
    <dc:format>image/svg+xml</dc:format>
    <dc:type rdf:resource="http://purl.org/dc/dcmitype/StillImage"/>
    <dc:title>Paper Symbolic Icon Theme</dc:title>
   </cc:Work>
  </rdf:RDF>
 </metadata>
 <title id="title8473">Paper Symbolic Icon Theme</title>
 <defs id="defs7386">
  <filter id="filter7554" color-interpolation-filters="sRGB">
   <feBlend id="feBlend7556" in2="BackgroundImage" mode="darken"/>
  </filter>
 </defs>
 <g id="g6058" transform="translate(-584 -508)">
  <path id="path8272" d="m591.72 511c0.16927 0.47184 0.28125 0.97209 0.28125 1.5 0 2.4734-2.0266 4.5-4.5 4.5-0.92754 0-1.7814-0.29458-2.5-0.78125v3.7812c0 0.554 0.446 1 1 1h7l2 2 2-2h1c0.554 0 1-0.446 1-1v-8c0-0.554-0.446-1-1-1z" style="fill:#555;opacity:.35"/>
  <path id="path8295" d="m587.5 509c-1.933 0-3.5 1.567-3.5 3.5s1.567 3.5 3.5 3.5 3.5-1.567 3.5-3.5-1.567-3.5-3.5-3.5zm-0.5 1h1v3h-1zm0 4h1v1h-1z" style="fill:#555"/>
 </g>
</svg>
