<?xml version="1.0" encoding="UTF-8"?>
<!-- Created with Inkscape (http://www.inkscape.org/) -->
<svg id="svg7384" width="16" height="16" style="enable-background:new" version="1.1" xmlns="http://www.w3.org/2000/svg" xmlns:cc="http://creativecommons.org/ns#" xmlns:dc="http://purl.org/dc/elements/1.1/" xmlns:osb="http://www.openswatchbook.org/uri/2009/osb" xmlns:rdf="http://www.w3.org/1999/02/22-rdf-syntax-ns#">
 <metadata id="metadata90">
  <rdf:RDF>
   <cc:Work rdf:about="">
    <dc:format>image/svg+xml</dc:format>
    <dc:type rdf:resource="http://purl.org/dc/dcmitype/StillImage"/>
    <dc:title>Paper Symbolic Icon Theme</dc:title>
   </cc:Work>
  </rdf:RDF>
 </metadata>
 <title id="title8473">Paper Symbolic Icon Theme</title>
 <defs id="defs7386">
  <filter id="filter7554" style="color-interpolation-filters:sRGB">
   <feBlend id="feBlend7556" in2="BackgroundImage" mode="darken"/>
  </filter>
 </defs>
 <g id="g6058" transform="translate(-464 -528)">
  <path id="rect5771-9" d="m467.5 533s-0.5 0-0.5 0.5v4c0 0.5 0.5 0.5 0.5 0.5h4c0.5 0 0.5-0.5 0.5-0.5v-4c0-0.5-0.4373-0.5-0.5-0.5zm0.5002 1.9985h3v1.9999h-3z" style="color:#bebebe;enable-background:accumulate;fill:#555"/>
  <path id="rect7987-0" d="m473.5 531s-0.5 0-0.5 0.5v1.9985s0 0.50038 0.5 0.5l2-2e-3s0.5 0 0.5-0.5v-1.998s0-0.50038-0.5-0.5z" style="color:#bebebe;enable-background:accumulate;fill:#555"/>
  <path id="path10666" d="m466 528c-1.9996 0-2 2-2 2v9s0 2 2 2h12s1.9995 0 2-2v-9s4.1e-4 -2-2-2zm0 2h12v9l-12-0.024zm1 13 2e-4 0.99664h10l-2e-4 -0.99664c0-1-1-1-1-1h-8.0218s-0.97823 0-0.97823 1z" style="fill:#555"/>
 </g>
</svg>
