<?xml version="1.0" encoding="UTF-8"?>
<!-- Created with Inkscape (http://www.inkscape.org/) -->
<svg id="svg7384" width="16" height="16.035" style="enable-background:new" version="1.1" xmlns="http://www.w3.org/2000/svg" xmlns:cc="http://creativecommons.org/ns#" xmlns:dc="http://purl.org/dc/elements/1.1/" xmlns:osb="http://www.openswatchbook.org/uri/2009/osb" xmlns:rdf="http://www.w3.org/1999/02/22-rdf-syntax-ns#">
 <metadata id="metadata90">
  <rdf:RDF>
   <cc:Work rdf:about="">
    <dc:format>image/svg+xml</dc:format>
    <dc:type rdf:resource="http://purl.org/dc/dcmitype/StillImage"/>
    <dc:title>Paper Symbolic Icon Theme</dc:title>
   </cc:Work>
  </rdf:RDF>
 </metadata>
 <title id="title8473">Paper Symbolic Icon Theme</title>
 <defs id="defs7386">
  <filter id="filter7554" style="color-interpolation-filters:sRGB">
   <feBlend id="feBlend7556" in2="BackgroundImage" mode="darken"/>
  </filter>
 </defs>
 <g id="g6058" transform="translate(-564 -547.97)">
  <path id="path8244" d="m566 553c-2.0002 0-2 2-2 2v7c0 1.9654 2 2 2 2h8 1v-4h-2.5625c-0.01 0.14506-0.0241 0.29613-0.0312 0.4375h0.4375v0.5h-0.5c-0.08085 0.70707-0.35897 1.0625-0.8438 1.0625-0.12123 0-0.30903-0.0221-0.53125-0.0625l-0.0937-0.5c0.26262 0.0403 0.48358 0.0625 0.625 0.0625 0.1414 0 0.20959-0.19886 0.25-0.5625h-2.3438c0.0433-0.29198 0.0629-0.62438 0.0937-0.9375h-0.5-0.1875c-0.23211 0.67376-0.52496 1.3388-0.90625 1.9688l-0.5-0.40625c0.31891-0.51302 0.58792-1.0271 0.8125-1.5625h-0.21875v-1-1.4062c-0.0224-0.0185-0.0397-0.045-0.0625-0.0625l0.0625-0.0625v-1.7812c-0.0225-0.0186-0.0397-0.045-0.0625-0.0625l0.0625-0.0625v-2.5625zm0.0937 2.7188h1.5938v4.7812h-0.53125v-0.53125h-0.53125v0.78125h-0.53125zm0.53125 0.53125v3.2188h0.53125v-3.2188zm3.4688 3.75c-0.0195 0.14331-0.0413 0.30286-0.0625 0.4375h1.7812c0.0141-0.14844 0.0191-0.29032 0.0312-0.4375h-0.46875l-0.21875 0.28125c-0.096-0.10557-0.20726-0.1851-0.3125-0.28125z" style="fill:#555;opacity:.35"/>
  <path id="path8242" d="m569 548v11h1 8s2 0 2-2v-7s0-2-2-2zm4.5625 2h1.875l2.1875 7h-1.6562l-0.4375-1.6562h-2.125l-0.4375 1.6562h-1.5938zm0.875 1.1875c-0.17177 0.7408-0.33799 1.5834-0.53125 2.2812l-0.1875 0.625h1.5l-0.15625-0.625c-0.19326-0.69784-0.41124-1.5512-0.59375-2.2812z" style="fill:#555"/>
 </g>
</svg>
