<?xml version="1.0" encoding="UTF-8"?>
<!-- Created with Inkscape (http://www.inkscape.org/) -->
<svg id="svg7384" width="16" height="16" style="enable-background:new" version="1.1" xmlns="http://www.w3.org/2000/svg" xmlns:cc="http://creativecommons.org/ns#" xmlns:dc="http://purl.org/dc/elements/1.1/" xmlns:osb="http://www.openswatchbook.org/uri/2009/osb" xmlns:rdf="http://www.w3.org/1999/02/22-rdf-syntax-ns#">
 <metadata id="metadata90">
  <rdf:RDF>
   <cc:Work rdf:about="">
    <dc:format>image/svg+xml</dc:format>
    <dc:type rdf:resource="http://purl.org/dc/dcmitype/StillImage"/>
    <dc:title>Paper Symbolic Icon Theme</dc:title>
   </cc:Work>
  </rdf:RDF>
 </metadata>
 <title id="title8473">Paper Symbolic Icon Theme</title>
 <defs id="defs7386">
  <filter id="filter7554" style="color-interpolation-filters:sRGB">
   <feBlend id="feBlend7556" in2="BackgroundImage" mode="darken"/>
  </filter>
 </defs>
 <g id="g6058" transform="translate(-444 -528)">
  <path id="path10571" d="m446 528c-1.9996 0-2 2-2 2v9s0 2 2 2h12s1.9995 0 2-2v-9s4.1e-4 -2-2-2zm0 2h12v9l-12-0.024zm1 13 2e-4 0.99664h10l-2e-4 -0.99664c0-1-1-1-1-1h-8.0218s-0.97823 0-0.97823 1z" style="fill:#555"/>
  <path id="rect4262-0" d="m451 531v5.0001l-4 7e-5v1.9999h10v-6.9999z" style="color:#bebebe;enable-background:accumulate;fill:#555;opacity:.35"/>
  <path id="rect4262-6-8" d="m450 531-3 4h3z" style="color:#000000;enable-background:accumulate;fill:#555"/>
 </g>
</svg>
