<?xml version="1.0" encoding="UTF-8"?>
<!-- Created with Inkscape (http://www.inkscape.org/) -->
<svg id="svg7384" width="16" height="16.004" style="enable-background:new" version="1.1" xmlns="http://www.w3.org/2000/svg" xmlns:cc="http://creativecommons.org/ns#" xmlns:dc="http://purl.org/dc/elements/1.1/" xmlns:osb="http://www.openswatchbook.org/uri/2009/osb" xmlns:rdf="http://www.w3.org/1999/02/22-rdf-syntax-ns#">
 <metadata id="metadata90">
  <rdf:RDF>
   <cc:Work rdf:about="">
    <dc:format>image/svg+xml</dc:format>
    <dc:type rdf:resource="http://purl.org/dc/dcmitype/StillImage"/>
    <dc:title>Paper Symbolic Icon Theme</dc:title>
   </cc:Work>
  </rdf:RDF>
 </metadata>
 <title id="title8473">Paper Symbolic Icon Theme</title>
 <defs id="defs7386">
  <filter id="filter7554" style="color-interpolation-filters:sRGB">
   <feBlend id="feBlend7556" in2="BackgroundImage" mode="darken"/>
  </filter>
 </defs>
 <g id="g6058" transform="translate(-524 -568)">
  <path id="path10508-6" d="m528 584c-2 0-2-2-2-2v-11c0-2 1.8933-1.9964 2-2h8s2 4e-3 2 2v11c0 2-2 2-2 2zm7-0.75c0.69036 0 1.25-0.55964 1.25-1.25s-0.55964-1.25-1.25-1.25-1.25 0.55964-1.25 1.25 0.55964 1.25 1.25 1.25zm-3-4.25c2.2091 0 4-1.7909 4-4s-1.7909-4-4-4-4 1.7909-4 4 1.7909 4 4 4zm0-2c-1.1046 0-2-0.89543-2-2s0.89543-2 2-2 2 0.89543 2 2-0.89543 2-2 2z" style="fill:#555"/>
 </g>
</svg>
