<?xml version="1.0" encoding="UTF-8"?>
<!-- Created with Inkscape (http://www.inkscape.org/) -->
<svg id="svg7384" width="16" height="16.003" style="enable-background:new" version="1.1" xmlns="http://www.w3.org/2000/svg" xmlns:cc="http://creativecommons.org/ns#" xmlns:dc="http://purl.org/dc/elements/1.1/" xmlns:osb="http://www.openswatchbook.org/uri/2009/osb" xmlns:rdf="http://www.w3.org/1999/02/22-rdf-syntax-ns#">
 <metadata id="metadata90">
  <rdf:RDF>
   <cc:Work rdf:about="">
    <dc:format>image/svg+xml</dc:format>
    <dc:type rdf:resource="http://purl.org/dc/dcmitype/StillImage"/>
    <dc:title>Paper Symbolic Icon Theme</dc:title>
   </cc:Work>
  </rdf:RDF>
 </metadata>
 <title id="title8473">Paper Symbolic Icon Theme</title>
 <defs id="defs7386">
  <filter id="filter7554" style="color-interpolation-filters:sRGB">
   <feBlend id="feBlend7556" in2="BackgroundImage" mode="darken"/>
  </filter>
 </defs>
 <g id="layer12" transform="translate(-265 -101)">
  <path id="path6901-8" d="m270 113 3.0002 4 2.9998-4z" style="enable-background:new;fill:#555"/>
  <path id="rect6657" d="m265 105v2h4s1 0 1-1-1-1-1-1zm12 0s-1 0-1 1 1 1 1 1h4v-2z" style="fill:#555"/>
  <path id="rect6664" d="m271 102c-1.4683 0-2.7457 0.81149-3.4414 2h3.4414 1 2 1 3.4414c-0.69575-1.1885-1.9731-2-3.4414-2h-4zm-3.4414 6c0.69575 1.1885 1.9731 2 3.4414 2h4c1.4683 0 2.7457-0.81149 3.4414-2h-3.4414-1-2-1-3.4414z" style="block-progression:tb;color-rendering:auto;color:#000000;enable-background:accumulate;fill:#555;image-rendering:auto;isolation:auto;mix-blend-mode:normal;shape-rendering:auto;solid-color:#000000;text-decoration-color:#000000;text-decoration-line:none;text-decoration-style:solid;text-indent:0;text-transform:none;white-space:normal"/>
 </g>
</svg>
