<?xml version="1.0" encoding="UTF-8"?>
<!-- Created with Inkscape (http://www.inkscape.org/) -->
<svg id="svg7384" width="16" height="16" style="enable-background:new" version="1.1" xmlns="http://www.w3.org/2000/svg" xmlns:cc="http://creativecommons.org/ns#" xmlns:dc="http://purl.org/dc/elements/1.1/" xmlns:osb="http://www.openswatchbook.org/uri/2009/osb" xmlns:rdf="http://www.w3.org/1999/02/22-rdf-syntax-ns#">
 <metadata id="metadata90">
  <rdf:RDF>
   <cc:Work rdf:about="">
    <dc:format>image/svg+xml</dc:format>
    <dc:type rdf:resource="http://purl.org/dc/dcmitype/StillImage"/>
    <dc:title>Paper Symbolic Icon Theme</dc:title>
   </cc:Work>
  </rdf:RDF>
 </metadata>
 <title id="title8473">Paper Symbolic Icon Theme</title>
 <defs id="defs7386">
  <filter id="filter7554" color-interpolation-filters="sRGB">
   <feBlend id="feBlend7556" in2="BackgroundImage" mode="darken"/>
  </filter>
 </defs>
 <g id="layer12" transform="translate(-437 -80.997)">
  <path id="rect5700" d="m437 81.997v14c5.3333-2e-3 10.667 5e-3 16 3e-3v-14c-5.3333 2e-3 -10.667-5e-3 -16-3e-3zm1.9998 2.0034c1.6667-1e-3 3.3335-2e-3 5.0002-3e-3 -7e-5 3.3344-1.3e-4 6.6689-2e-4 10.003-1.6667 1e-3 -3.3335 2e-3 -5.0002 3e-3 7e-5 -3.3343 1.3e-4 -6.6687 2e-4 -10.003zm7 0h5c-7e-5 3.3344-1.3e-4 6.6689-2e-4 10.003h-5c7e-5 -3.3344 1.3e-4 -6.6689 2e-4 -10.003z" style="fill:#555"/>
 </g>
</svg>
