<?xml version="1.0" encoding="UTF-8"?>
<!-- Created with Inkscape (http://www.inkscape.org/) -->
<svg id="svg7384" width="16" height="16" style="enable-background:new" version="1.1" xmlns="http://www.w3.org/2000/svg" xmlns:cc="http://creativecommons.org/ns#" xmlns:dc="http://purl.org/dc/elements/1.1/" xmlns:osb="http://www.openswatchbook.org/uri/2009/osb" xmlns:rdf="http://www.w3.org/1999/02/22-rdf-syntax-ns#">
 <metadata id="metadata90">
  <rdf:RDF>
   <cc:Work rdf:about="">
    <dc:format>image/svg+xml</dc:format>
    <dc:type rdf:resource="http://purl.org/dc/dcmitype/StillImage"/>
    <dc:title>Paper Symbolic Icon Theme</dc:title>
    <cc:license rdf:resource="http://creativecommons.org/licenses/by-sa/3.0/"/>
   </cc:Work>
   <cc:License rdf:about="http://creativecommons.org/licenses/by-sa/3.0/">
    <cc:permits rdf:resource="http://creativecommons.org/ns#Reproduction"/>
    <cc:permits rdf:resource="http://creativecommons.org/ns#Distribution"/>
    <cc:requires rdf:resource="http://creativecommons.org/ns#Notice"/>
    <cc:requires rdf:resource="http://creativecommons.org/ns#Attribution"/>
    <cc:permits rdf:resource="http://creativecommons.org/ns#DerivativeWorks"/>
    <cc:requires rdf:resource="http://creativecommons.org/ns#ShareAlike"/>
   </cc:License>
  </rdf:RDF>
 </metadata>
 <title id="title8473">Paper Symbolic Icon Theme</title>
 <g id="layer12" transform="translate(-305 -40.997)">
  <path id="path5717" d="m307.34 41.933-1.4062 1.4062 4.6934 4.6934c-0.76451 0.08841-1.4375 0.42763-1.8809 0.93164-0.5144 0.58479-0.75639 1.3106-0.75 2.0312 6e-3 0.72062 0.26893 1.4527 0.78125 2.0312s1.3105 0.96875 2.2188 0.96875h5 0.59375l2.0625 2.0625 1.4062-1.4062-12.719-12.719zm4.0625 2.0625 2 2h1.5938c0.42816 0 1 0.61414 1 1v1h-0.59375l2.5938 2.5938v-3.5938c9e-5 -1.6343-1.3198-3-3-3h-3.5938zm-0.40625 6h1.5938l2 2h-3.5938c-0.39787 0-0.56691-0.10979-0.71875-0.28125s-0.27877-0.43937-0.28125-0.71875c-2e-3 -0.27938 0.10467-0.55354 0.25-0.71875s0.32764-0.28125 0.75-0.28125z" style="color:#000000;enable-background:accumulate;fill-opacity:.49804"/>
 </g>
</svg>
