<?xml version="1.0" encoding="UTF-8"?>
<!-- Created with Inkscape (http://www.inkscape.org/) -->
<svg id="svg7384" width="16" height="16" style="enable-background:new" version="1.1" xmlns="http://www.w3.org/2000/svg" xmlns:cc="http://creativecommons.org/ns#" xmlns:dc="http://purl.org/dc/elements/1.1/" xmlns:osb="http://www.openswatchbook.org/uri/2009/osb" xmlns:rdf="http://www.w3.org/1999/02/22-rdf-syntax-ns#">
 <metadata id="metadata90">
  <rdf:RDF>
   <cc:Work rdf:about="">
    <dc:format>image/svg+xml</dc:format>
    <dc:type rdf:resource="http://purl.org/dc/dcmitype/StillImage"/>
    <dc:title>Paper Symbolic Icon Theme</dc:title>
    <cc:license rdf:resource="http://creativecommons.org/licenses/by-sa/3.0/"/>
   </cc:Work>
   <cc:License rdf:about="http://creativecommons.org/licenses/by-sa/3.0/">
    <cc:permits rdf:resource="http://creativecommons.org/ns#Reproduction"/>
    <cc:permits rdf:resource="http://creativecommons.org/ns#Distribution"/>
    <cc:requires rdf:resource="http://creativecommons.org/ns#Notice"/>
    <cc:requires rdf:resource="http://creativecommons.org/ns#Attribution"/>
    <cc:permits rdf:resource="http://creativecommons.org/ns#DerivativeWorks"/>
    <cc:requires rdf:resource="http://creativecommons.org/ns#ShareAlike"/>
   </cc:License>
  </rdf:RDF>
 </metadata>
 <title id="title8473">Paper Symbolic Icon Theme</title>
 <g id="layer12" transform="translate(-465 59.003)">
  <path id="path5289" d="m474-57.5v2.5h-2.5c-1.3059 0-2.4212 0.40451-3.2656 1.1172 0.79034 0.24719 1.4172 0.87535 1.6543 1.668l0.12891 0.43164c0.55945 0.13676 1.0628 0.42914 1.4238 0.83593 0.18216-0.0322 0.36844-0.05273 0.55859-0.05273h2v2.5l6.4688-4.5-6.4688-4.5zm-6.5 4.5c-0.82843 0-1.5 0.67157-1.5 1.5 0 0.67896 0.45342 1.2468 1.0723 1.4316 0.21796-0.91448 0.9432-1.6407 1.8574-1.8594-0.18506-0.61856-0.75093-1.0723-1.4297-1.0723zm2 2c-0.82843 0-1.5 0.67157-1.5 1.5 0 0.82842 0.67157 1.5 1.5 1.5s1.5-0.67158 1.5-1.5c0-0.82843-0.67157-1.5-1.5-1.5zm-2.4356 2.0332c-2.0366 0.17283-2.0644 1.4668-2.0644 1.4668v0.5h1.6543c0.28017-0.28658 0.67161-0.52673 1.1582-0.70508-0.36241-0.3396-0.63182-0.77065-0.74805-1.2617zm2.4356 1.9668c-2.5 0-2.5 1.5-2.5 1.5v0.5h5v-0.5s0-1.5-2.5-1.5z" style="block-progression:tb;color:#bebebe;enable-background:accumulate;fill-opacity:.49804;text-decoration-line:none;text-indent:0;text-transform:none"/>
 </g>
</svg>
