<?xml version="1.0" encoding="UTF-8"?>
<!-- Created with Inkscape (http://www.inkscape.org/) -->
<svg id="svg7384" width="16" height="16" style="enable-background:new" version="1.1" xmlns="http://www.w3.org/2000/svg" xmlns:cc="http://creativecommons.org/ns#" xmlns:dc="http://purl.org/dc/elements/1.1/" xmlns:osb="http://www.openswatchbook.org/uri/2009/osb" xmlns:rdf="http://www.w3.org/1999/02/22-rdf-syntax-ns#">
 <metadata id="metadata90">
  <rdf:RDF>
   <cc:Work rdf:about="">
    <dc:format>image/svg+xml</dc:format>
    <dc:type rdf:resource="http://purl.org/dc/dcmitype/StillImage"/>
    <dc:title>Paper Symbolic Icon Theme</dc:title>
    <cc:license rdf:resource="http://creativecommons.org/licenses/by-sa/3.0/"/>
   </cc:Work>
   <cc:License rdf:about="http://creativecommons.org/licenses/by-sa/3.0/">
    <cc:permits rdf:resource="http://creativecommons.org/ns#Reproduction"/>
    <cc:permits rdf:resource="http://creativecommons.org/ns#Distribution"/>
    <cc:requires rdf:resource="http://creativecommons.org/ns#Notice"/>
    <cc:requires rdf:resource="http://creativecommons.org/ns#Attribution"/>
    <cc:permits rdf:resource="http://creativecommons.org/ns#DerivativeWorks"/>
    <cc:requires rdf:resource="http://creativecommons.org/ns#ShareAlike"/>
   </cc:License>
  </rdf:RDF>
 </metadata>
 <title id="title8473">Paper Symbolic Icon Theme</title>
 <g id="layer12" transform="translate(-425 -200.97)">
  <rect id="rect5824" x="432" y="201.97" width="1.9998" height="7.0034" rx="0" ry=".0033607" style="color:#bebebe;fill-opacity:.49804"/>
  <path id="path5826" d="m436.01 203.78-1.0039 1.7305c1.5653 0.90865 2.3238 2.7414 1.8574 4.4902-0.46633 1.7488-2.0358 2.9601-3.8457 2.9688-1.8099 9e-3 -3.392-1.1874-3.875-2.9316s0.25791-3.5843 1.8144-4.5078l-1.0195-1.7207c-2.3246 1.3792-3.442 4.1568-2.7207 6.7617 0.72128 2.6049 3.1077 4.4113 5.8106 4.3984 2.7029-0.0129 5.0711-1.8415 5.7676-4.4531 0.69643-2.6117-0.44756-5.3793-2.7852-6.7363z" style="block-progression:tb;color-rendering:auto;color:#000000;enable-background:accumulate;fill-opacity:.49804;image-rendering:auto;isolation:auto;mix-blend-mode:normal;shape-rendering:auto;solid-color:#000000;text-decoration-color:#000000;text-decoration-line:none;text-decoration-style:solid;text-indent:0;text-transform:none;white-space:normal"/>
 </g>
</svg>
