<?xml version="1.0" encoding="UTF-8"?>
<!-- Created with Inkscape (http://www.inkscape.org/) -->
<svg id="svg6530" width="22" height="22" version="1.1" viewBox="0 0 22 22" xmlns="http://www.w3.org/2000/svg" xmlns:cc="http://creativecommons.org/ns#" xmlns:dc="http://purl.org/dc/elements/1.1/" xmlns:osb="http://www.openswatchbook.org/uri/2009/osb" xmlns:rdf="http://www.w3.org/1999/02/22-rdf-syntax-ns#">
 <metadata id="metadata6535">
  <rdf:RDF>
   <cc:Work rdf:about="">
    <dc:format>image/svg+xml</dc:format>
    <dc:type rdf:resource="http://purl.org/dc/dcmitype/StillImage"/>
    <dc:title/>
   </cc:Work>
  </rdf:RDF>
 </metadata>
 <g id="layer1" transform="translate(-153 -837.36)">
  <path id="path4274-6" d="m161.19 840.36c-1.0982 1.3842-1.4274 2.0662-1.0313 2.9473 0.3591 0.79867 1.2869 1.2057 0.8203 3.0527 0.7664-0.89992 1.3753-2.0429 0.7735-2.9648-0.6122-0.9377-0.9475-1.5072-0.5625-3.0352zm3 0c-1.0982 1.3842-1.4274 2.0662-1.0313 2.9473 0.3591 0.79867 1.2869 1.2057 0.8203 3.0527 0.7664-0.89992 1.3753-2.0429 0.7735-2.9648-0.6122-0.9377-0.9475-1.5072-0.5625-3.0352zm3 0c-1.0982 1.3842-1.4274 2.0662-1.0313 2.9473 0.3591 0.79867 1.2869 1.2057 0.8203 3.0527 0.7664-0.89992 1.3753-2.0429 0.7735-2.9648-0.6122-0.9377-0.9475-1.5072-0.5625-3.0352zm-9.1934 7v3c0 3 2 5 5 5h2c3 0 4.7598-1.5657 4.959-4h0.541c1.5 0 1.5-1.5 1.5-1.5v-1c0-1.5-1.5-1.5-1.5-1.5h-0.5-12zm12.5 1c0.5-0.0323 0.5156 0.53125 0.5156 0.53125v1c0 0.46875-0.5156 0.46875-0.5156 0.46875h-0.5l0.01-1.9844 0.49-0.0156z" style="color:#000000;fill:#dbdee0"/>
  <rect id="rect9076" x="153" y="837.36" width="22" height="22" style="color:#bebebe;enable-background:new;fill:none"/>
 </g>
</svg>
