<?xml version="1.0" encoding="UTF-8"?>
<!-- Created with Inkscape (http://www.inkscape.org/) -->
<svg id="svg6530" width="22" height="22" version="1.1" viewBox="0 0 22 22" xmlns="http://www.w3.org/2000/svg" xmlns:cc="http://creativecommons.org/ns#" xmlns:dc="http://purl.org/dc/elements/1.1/" xmlns:osb="http://www.openswatchbook.org/uri/2009/osb" xmlns:rdf="http://www.w3.org/1999/02/22-rdf-syntax-ns#">
 <metadata id="metadata6535">
  <rdf:RDF>
   <cc:Work rdf:about="">
    <dc:format>image/svg+xml</dc:format>
    <dc:type rdf:resource="http://purl.org/dc/dcmitype/StillImage"/>
    <dc:title/>
   </cc:Work>
  </rdf:RDF>
 </metadata>
 <g id="layer1" transform="translate(-225 -349.36)">
  <path id="path6532" d="m230.34 353.3 12.719 12.719-1.4062 1.4062-12.719-12.719z" style="color:#000000;fill:#dbdee0"/>
  <rect id="rect6827" x="225" y="349.36" width="22" height="22" style="color:#bebebe;fill:none"/>
  <path id="path6829" d="m236 352.36c-1.246 0-2.311 0.7515-2.7656 1.8281-2.3e-4 5.4e-4 2.2e-4 1e-3 0 2e-3l5.7656 5.7636v-4.5938c0-1.6621-1.3379-3-3-3zm-3 4.4062v3.5938c0 1.6621 1.3379 3 3 3 0.98363 0 1.8442-0.47608 2.3906-1.2031zm-3 2.5938v1c0 2.9695 2.1624 5.4322 5 5.9062v2.0938h2v-2.0938c1.3989-0.23371 2.6309-0.95383 3.5234-1.9766l-1.418-1.418c-0.72909 0.90441-1.8347 1.4883-3.1055 1.4883-2.2334 0-4-1.7666-4-4v-1zm10 0v1c0 0.18587-0.029 0.36236-0.0527 0.54102l1.6367 1.6367c0.26447-0.6756 0.41599-1.4083 0.41599-2.1777v-1z" style="color:#bebebe;fill:#dbdee0"/>
 </g>
</svg>
