<?xml version="1.0" encoding="UTF-8"?>
<!-- Created with Inkscape (http://www.inkscape.org/) -->
<svg id="svg6530" width="22" height="22" version="1.1" viewBox="0 0 22 22" xmlns="http://www.w3.org/2000/svg" xmlns:cc="http://creativecommons.org/ns#" xmlns:dc="http://purl.org/dc/elements/1.1/" xmlns:osb="http://www.openswatchbook.org/uri/2009/osb" xmlns:rdf="http://www.w3.org/1999/02/22-rdf-syntax-ns#">
 <metadata id="metadata6535">
  <rdf:RDF>
   <cc:Work rdf:about="">
    <dc:format>image/svg+xml</dc:format>
    <dc:type rdf:resource="http://purl.org/dc/dcmitype/StillImage"/>
    <dc:title/>
   </cc:Work>
  </rdf:RDF>
 </metadata>
 <g id="layer1" transform="translate(-81 -469.36)">
  <rect id="rect10753" transform="rotate(90)" x="469.36" y="-103" width="22" height="22" style="color:#dddddd;fill:none"/>
  <path id="path10757" d="m84.5 472.36c-0.277 0-0.5 0.22301-0.5 0.50001v0.5l-2-2e-3v-2.6e-4l-1.5e-5 14.502c0 0.277 0.223 0.5 0.5 0.5h6c0.277 0 0.5-0.223 0.5-0.5l1.5e-5 -14.501-0.50002 2e-3h-1.5v-0.5c0-0.277-0.223-0.50001-0.5-0.50001z" style="color:#bebebe;fill:#dbdee0;opacity:.35"/>
  <path id="path10759" d="m82 480.36-1.5e-5 7.5017c-1e-6 0.277 0.223 0.5 0.5 0.5h6c0.277 0 0.5-0.223 0.5-0.5l1.5e-5 -7.5017z" style="color:#bebebe;fill:#dbdee0"/>
  <path id="path10807" d="m96 472.36c-2.77 0-5 2.676-5 6h5zm1 0v6h5c0-3.324-2.23-6-5-6zm-6 7v3c0 3.324 2.23 6 5 6h1c2.77 0 5-2.676 5-6v-3h-5z" style="fill:#dbdee0"/>
 </g>
</svg>
