<?xml version="1.0" encoding="UTF-8"?>
<!-- Created with Inkscape (http://www.inkscape.org/) -->
<svg id="svg6530" width="22" height="22" version="1.1" viewBox="0 0 22 22" xmlns="http://www.w3.org/2000/svg" xmlns:cc="http://creativecommons.org/ns#" xmlns:dc="http://purl.org/dc/elements/1.1/" xmlns:osb="http://www.openswatchbook.org/uri/2009/osb" xmlns:rdf="http://www.w3.org/1999/02/22-rdf-syntax-ns#">
 <metadata id="metadata6535">
  <rdf:RDF>
   <cc:Work rdf:about="">
    <dc:format>image/svg+xml</dc:format>
    <dc:type rdf:resource="http://purl.org/dc/dcmitype/StillImage"/>
    <dc:title/>
   </cc:Work>
  </rdf:RDF>
 </metadata>
 <g id="layer1" transform="translate(-81 -229.36)">
  <rect id="rect10136" transform="rotate(-90)" x="-251.36" y="81" width="22" height="22" style="color:#bebebe;fill:none"/>
  <path id="path10138" d="m92 235.36c-3.0344 0-5.7659 1.0782-8.0312 2.75l8.0312 8.75 1-1.1016v-1.3984h1.0137c0.01961-1.6316 1.3374-2.9924 2.9766-2.998l2.9785-3.2832c-2.2566-1.6533-4.9577-2.7188-7.9688-2.7188z" style="color:#000000;fill:#dbdee0;opacity:.35"/>
  <path id="path10140" d="m91.986 240.39c-1.7068 0-3.2433 0.60647-4.5176 1.5469l4.5176 4.9219 1.0137-1.1172v-1.3828h1.0137c0.01508-1.2548 0.79988-2.3454 1.9062-2.7871-1.1528-0.7192-2.4729-1.1816-3.9336-1.1816zm5.0137 1.9688c-1.108 0-2 0.91085-2 2.0312v0.96875h-1v1 2 1h1 4 1v-1-2-1h-1v-0.96875c0-1.1199-0.892-2.0312-2-2.0312zm0 1c0.554 0 1 0.4424 1 1v1h-2v-1c0-0.5576 0.446-1 1-1z" style="color:#000000;fill:#dbdee0"/>
 </g>
</svg>
