<?xml version="1.0" encoding="UTF-8"?>
<!-- Created with Inkscape (http://www.inkscape.org/) -->
<svg id="svg6530" width="22" height="22" version="1.1" viewBox="0 0 22 22" xmlns="http://www.w3.org/2000/svg" xmlns:cc="http://creativecommons.org/ns#" xmlns:dc="http://purl.org/dc/elements/1.1/" xmlns:osb="http://www.openswatchbook.org/uri/2009/osb" xmlns:rdf="http://www.w3.org/1999/02/22-rdf-syntax-ns#">
 <metadata id="metadata6535">
  <rdf:RDF>
   <cc:Work rdf:about="">
    <dc:format>image/svg+xml</dc:format>
    <dc:type rdf:resource="http://purl.org/dc/dcmitype/StillImage"/>
    <dc:title/>
   </cc:Work>
  </rdf:RDF>
 </metadata>
 <g id="layer1" transform="translate(-33 -657.36)">
  <rect id="rect6332" transform="rotate(90)" x="657.36" y="-55" width="22" height="22" rx=".19812" ry=".20803" style="color:#bebebe;enable-background:new;fill:none"/>
  <path id="path6336" d="m48.24 664.12c-1.714-1.714-4.2997-2.2284-6.5391-1.3008-2.2394 0.92758-3.7051 3.121-3.7051 5.5449s1.4657 4.6154 3.7051 5.543c2.2394 0.92758 4.8251 0.41317 6.5391-1.3008l-1.4141-1.4141c-1.146 1.146-2.862 1.4874-4.3594 0.86719s-2.4707-2.0746-2.4707-3.6953 0.97335-3.077 2.4707-3.6973c1.4974-0.62022 3.2134-0.27883 4.3594 0.86719l1.4141-1.4141z" style="block-progression:tb;color-rendering:auto;color:#000000;fill:#dbdee0;image-rendering:auto;isolation:auto;mix-blend-mode:normal;shape-rendering:auto;solid-color:#000000;text-decoration-color:#000000;text-decoration-line:none;text-decoration-style:solid;text-indent:0;text-transform:none;white-space:normal"/>
  <path id="path7040-8" d="m48 665.36 4 3-4 3v-2h-4v-2h4z" style="color:#bebebe;fill:#dbdee0"/>
 </g>
</svg>
