<?xml version="1.0" encoding="UTF-8"?>
<!-- Created with Inkscape (http://www.inkscape.org/) -->
<svg id="svg6530" width="24" height="24" version="1.1" viewBox="0 0 24 24" xmlns="http://www.w3.org/2000/svg" xmlns:cc="http://creativecommons.org/ns#" xmlns:dc="http://purl.org/dc/elements/1.1/" xmlns:rdf="http://www.w3.org/1999/02/22-rdf-syntax-ns#" xmlns:xlink="http://www.w3.org/1999/xlink">
 <defs id="defs6532">
  <linearGradient id="linearGradient3816" x1="5.875" x2="3.875" y1="31.125" y2="4.125" gradientTransform="matrix(0 -1 -1 0 544.12 391.88)" gradientUnits="userSpaceOnUse">
   <stop id="stop3770" style="stop-color:#dbdee0" offset="0"/>
   <stop id="stop3772" style="stop-color:#dbdee0;stop-opacity:0" offset="1"/>
  </linearGradient>
  <linearGradient id="linearGradient3819" x1="12" x2="23" y1="6" y2="10" gradientTransform="matrix(0,1,-1,0,544,368)" gradientUnits="userSpaceOnUse">
   <stop id="stop4949" style="stop-color:#dbdee0" offset="0"/>
   <stop id="stop4951" style="stop-color:#dbdee0;stop-opacity:0" offset="1"/>
  </linearGradient>
 </defs>
 <metadata id="metadata6535">
  <rdf:RDF>
   <cc:Work rdf:about="">
    <dc:format>image/svg+xml</dc:format>
    <dc:type rdf:resource="http://purl.org/dc/dcmitype/StillImage"/>
    <dc:title/>
   </cc:Work>
  </rdf:RDF>
 </metadata>
 <g id="layer2" transform="translate(-520 -368)">
  <path id="path4985" d="m540 380c0-4.4064-3.5936-8-8-8s-8 3.5936-8 8h2c0-3.3256 2.6744-6 6-6s6 2.6744 6 6c0 0.55228 0.44772 1 1 1s1-0.44772 1-1z" style="block-progression:tb;color:#000000;fill:url(#linearGradient3819);text-indent:0;text-transform:none"/>
  <path id="path4987" d="m540 380c0 4.4064-3.5936 8-8 8s-8-3.5936-8-8h2c0 3.3256 2.6744 6 6 6s6-2.6744 6-6z" style="block-progression:tb;color:#000000;fill:url(#linearGradient3816);text-indent:0;text-transform:none"/>
 </g>
</svg>
