<?xml version="1.0" encoding="UTF-8"?>
<!-- Created with Inkscape (http://www.inkscape.org/) -->
<svg id="svg7384" width="16" height="16" style="enable-background:new" version="1.1" xmlns="http://www.w3.org/2000/svg" xmlns:cc="http://creativecommons.org/ns#" xmlns:dc="http://purl.org/dc/elements/1.1/" xmlns:osb="http://www.openswatchbook.org/uri/2009/osb" xmlns:rdf="http://www.w3.org/1999/02/22-rdf-syntax-ns#">
 <metadata id="metadata90">
  <rdf:RDF>
   <cc:Work rdf:about="">
    <dc:format>image/svg+xml</dc:format>
    <dc:type rdf:resource="http://purl.org/dc/dcmitype/StillImage"/>
    <dc:title>Paper Symbolic Icon Theme</dc:title>
   </cc:Work>
  </rdf:RDF>
 </metadata>
 <title id="title8473">Paper Symbolic Icon Theme</title>
 <defs id="defs7386">
  <filter id="filter7554" style="color-interpolation-filters:sRGB">
   <feBlend id="feBlend7556" in2="BackgroundImage" mode="darken"/>
  </filter>
 </defs>
 <g id="layer14" transform="translate(-805 351.03)">
  <path id="path8496" d="m808-350c-2 0-2 2-2 2v10c0 2 2 2 2 2h3.0723l-8e-3 -0.0117-2e-3 -4e-3 -0.125-0.2168 1.6328-0.94336c-0.0416-0.27298-0.0701-0.54798-0.0703-0.82422 2e-3 -0.27569 0.0315-0.55001 0.0742-0.82227l-1.6367-0.94531 0.125-0.2168 1.75-3.0312 0.125-0.2168 1.6367 0.94531c0.43134-0.34512 0.91201-0.62172 1.4258-0.82422l2.4e-4 -1.8886h0.25 3.5 0.25v-3s0-2-2-2h-10zm10 10c-1.1046 0-2 0.89543-2 2s0.89543 2 2 2 2-0.89543 2-2-0.89543-2-2-2z" style="fill:#555"/>
 </g>
</svg>
