<?xml version="1.0" encoding="UTF-8"?>
<!-- Created with Inkscape (http://www.inkscape.org/) -->
<svg id="svg7384" width="16" height="16" style="enable-background:new" version="1.1" xmlns="http://www.w3.org/2000/svg" xmlns:cc="http://creativecommons.org/ns#" xmlns:dc="http://purl.org/dc/elements/1.1/" xmlns:osb="http://www.openswatchbook.org/uri/2009/osb" xmlns:rdf="http://www.w3.org/1999/02/22-rdf-syntax-ns#">
 <metadata id="metadata90">
  <rdf:RDF>
   <cc:Work rdf:about="">
    <dc:format>image/svg+xml</dc:format>
    <dc:type rdf:resource="http://purl.org/dc/dcmitype/StillImage"/>
    <dc:title>Paper Symbolic Icon Theme</dc:title>
   </cc:Work>
  </rdf:RDF>
 </metadata>
 <title id="title8473">Paper Symbolic Icon Theme</title>
 <defs id="defs7386">
  <filter id="filter7554" color-interpolation-filters="sRGB">
   <feBlend id="feBlend7556" in2="BackgroundImage" mode="darken"/>
  </filter>
 </defs>
 <g id="layer14" transform="translate(-687,307)">
  <path id="path1234" d="m689.81-306a1.0001 1.0001 0 0 0-0.8125 1v13a1.0001 1.0001 0 0 0 1 1h10a1.0001 1.0001 0 0 0 1-1v-9.4375a1.0001 1.0001 0 0 0-0.28125-0.71875l-3.5625-3.5625a1.0001 1.0001 0 0 0-0.71875-0.28125h-6.4375a1.0001 1.0001 0 0 0-0.0937 0 1.0001 1.0001 0 0 0-0.0937 0zm1.1875 2h5v3h3v8h-8v-11z" style="block-progression:tb;color:#000000;enable-background:accumulate;fill:#555;text-indent:0;text-transform:none"/>
 </g>
</svg>
