<?xml version="1.0" encoding="UTF-8"?>
<svg width="16" height="16" version="1.1" xmlns="http://www.w3.org/2000/svg">
 <g id="layer14" transform="translate(-521 -321)" fill="#555">
  <path id="rect35810" d="m523 324v8h12v-8zm6 1c1.1046 0 2 0.89543 2 2h-2zm-1 1v2h2c0 1.1046-0.89543 2-2 2s-2-0.89543-2-2 0.89543-2 2-2z" color="#000000"/>
  <path id="path35812" d="m523 323a1.0011 1.0011 0 1 0 0.0937 2h11.625a1.0001 1.0001 0 1 0 0-2h-11.625a1.0001 1.0001 0 0 0-0.0937 0z" color="#000000" stroke-width="2"/>
  <path id="path35814" d="m528.41 331.5a0.50005 0.50005 0 0 0-0.40625 0.5v1.75l-1.8125 1.375a0.51254 0.51254 0 1 0 0.625 0.8125l2-1.5312 0.1875-0.15625v-0.25-2a0.50005 0.50005 0 0 0-0.59375-0.5z" color="#000000"/>
  <path id="path35816" d="m528.38 333.5a0.50005 0.50005 0 0 0-0.1875 0.90625l2 1.5625a0.51254 0.51254 0 1 0 0.625-0.8125l-2-1.5625a0.50005 0.50005 0 0 0-0.4375-0.09375z" color="#000000"/>
 </g>
</svg>
