<?xml version="1.0" encoding="UTF-8"?>
<!-- Created with Inkscape (http://www.inkscape.org/) -->
<svg id="svg7384" width="16" height="16" style="enable-background:new" version="1.1" xmlns="http://www.w3.org/2000/svg" xmlns:cc="http://creativecommons.org/ns#" xmlns:dc="http://purl.org/dc/elements/1.1/" xmlns:osb="http://www.openswatchbook.org/uri/2009/osb" xmlns:rdf="http://www.w3.org/1999/02/22-rdf-syntax-ns#">
 <metadata id="metadata90">
  <rdf:RDF>
   <cc:Work rdf:about="">
    <dc:format>image/svg+xml</dc:format>
    <dc:type rdf:resource="http://purl.org/dc/dcmitype/StillImage"/>
    <dc:title>Paper Symbolic Icon Theme</dc:title>
    <cc:license rdf:resource="http://creativecommons.org/licenses/by-sa/3.0/"/>
   </cc:Work>
   <cc:License rdf:about="http://creativecommons.org/licenses/by-sa/3.0/">
    <cc:permits rdf:resource="http://creativecommons.org/ns#Reproduction"/>
    <cc:permits rdf:resource="http://creativecommons.org/ns#Distribution"/>
    <cc:requires rdf:resource="http://creativecommons.org/ns#Notice"/>
    <cc:requires rdf:resource="http://creativecommons.org/ns#Attribution"/>
    <cc:permits rdf:resource="http://creativecommons.org/ns#DerivativeWorks"/>
    <cc:requires rdf:resource="http://creativecommons.org/ns#ShareAlike"/>
   </cc:License>
  </rdf:RDF>
 </metadata>
 <title id="title8473">Paper Symbolic Icon Theme</title>
 <g id="layer1" transform="translate(-24 -41)">
  <g id="g6067" transform="matrix(0 1 -1 0 317 .00025)" style="fill:#bebebe">
   <path id="path6069" transform="matrix(0 -1 1 0 25 317)" d="m30 17c-1.6447 0-3 1.3553-3 3v1 0.65625 3.3438 3c0 1.6447 1.3553 3 3 3h3v-2h-3c-0.5713 0-1-0.4287-1-1v-3-3.3438-0.65625-1c0-0.5713 0.4287-1 1-1h4c0.5713 0 1 0.4287 1 1v2h-2l3 4 3-4h-2v-2c0-1.6447-1.3553-3-3-3h-4z" style="block-progression:tb;color:#000000;fill-opacity:.49804;fill:#000;text-indent:0;text-transform:none"/>
  </g>
 </g>
</svg>
