<?xml version="1.0" encoding="UTF-8"?>
<!-- Created with Inkscape (http://www.inkscape.org/) -->
<svg id="svg7384" width="16" height="16" style="enable-background:new" version="1.1" xmlns="http://www.w3.org/2000/svg" xmlns:cc="http://creativecommons.org/ns#" xmlns:dc="http://purl.org/dc/elements/1.1/" xmlns:osb="http://www.openswatchbook.org/uri/2009/osb" xmlns:rdf="http://www.w3.org/1999/02/22-rdf-syntax-ns#">
 <metadata id="metadata90">
  <rdf:RDF>
   <cc:Work rdf:about="">
    <dc:format>image/svg+xml</dc:format>
    <dc:type rdf:resource="http://purl.org/dc/dcmitype/StillImage"/>
    <dc:title>Paper Symbolic Icon Theme</dc:title>
    <cc:license rdf:resource="http://creativecommons.org/licenses/by-sa/3.0/"/>
   </cc:Work>
   <cc:License rdf:about="http://creativecommons.org/licenses/by-sa/3.0/">
    <cc:permits rdf:resource="http://creativecommons.org/ns#Reproduction"/>
    <cc:permits rdf:resource="http://creativecommons.org/ns#Distribution"/>
    <cc:requires rdf:resource="http://creativecommons.org/ns#Notice"/>
    <cc:requires rdf:resource="http://creativecommons.org/ns#Attribution"/>
    <cc:permits rdf:resource="http://creativecommons.org/ns#DerivativeWorks"/>
    <cc:requires rdf:resource="http://creativecommons.org/ns#ShareAlike"/>
   </cc:License>
  </rdf:RDF>
 </metadata>
 <title id="title8473">Paper Symbolic Icon Theme</title>
 <defs id="defs7386">
  <filter id="filter7554" style="color-interpolation-filters:sRGB">
   <feBlend id="feBlend7556" in2="BackgroundImage" mode="darken"/>
  </filter>
 </defs>
 <g id="layer2" transform="translate(-504 -412)">
  <path id="rect6190-8-8-4" d="m513 420v1 3.2812c-0.29454-0.17076-0.63503-0.28125-1-0.28125-1.1046 0-2 0.89543-2 2s0.89543 2 2 2 2-0.89543 2-2l3e-3 -4h4l-3e-3 2.2812c-0.29454-0.17076-0.63503-0.28125-1-0.28125-1.1046 0-2 0.89543-2 2s0.89543 2 2 2 2-0.89543 2-2v-5-1h-1-4z" style="color:#000000;enable-background:new;fill:#555"/>
  <path id="rect5523-5" d="m505 413v1h-4e-3v12h4e-3v2h1v-1h1v1h1v-2h-4e-3l4e-3 -1h1l-4e-3 -2h-1v-5h8v1h1 1 1v-4h4e-3v-2h-1v1h-4e-3 -0.99609v-1h-1v1h-4e-3l4e-3 2h-8l-4e-3 -1h4e-3v-2h-1v1h-4e-3 -0.99609v-1zm0.99609 2h1v1h-1zm11 0h1v1h-1zm-11 2h1v1h-1zm11 0h1v1h-1zm-11 2h1v1h-1zm0 2h1v1h-1zm0 2h1v1h-1zm0 2h1v1h-1z" style="color:#000000;enable-background:new;fill:#555"/>
 </g>
</svg>
