<?xml version="1.0" encoding="UTF-8"?>
<!-- Created with Inkscape (http://www.inkscape.org/) -->
<svg id="svg7384" width="16" height="16" style="enable-background:new" version="1.1" xmlns="http://www.w3.org/2000/svg" xmlns:cc="http://creativecommons.org/ns#" xmlns:dc="http://purl.org/dc/elements/1.1/" xmlns:osb="http://www.openswatchbook.org/uri/2009/osb" xmlns:rdf="http://www.w3.org/1999/02/22-rdf-syntax-ns#">
 <metadata id="metadata90">
  <rdf:RDF>
   <cc:Work rdf:about="">
    <dc:format>image/svg+xml</dc:format>
    <dc:type rdf:resource="http://purl.org/dc/dcmitype/StillImage"/>
    <dc:title>Paper Symbolic Icon Theme</dc:title>
   </cc:Work>
  </rdf:RDF>
 </metadata>
 <title id="title8473">Paper Symbolic Icon Theme</title>
 <g id="g6058" transform="translate(-64,-204)">
  <path id="path4668" d="m74 204c-1.0618 0-1.9162 0.82178-1.9863 1.8652l-2.2461 2.2461c-0.24649-0.0651-0.50007-0.11133-0.76758-0.11133-1.662 0-3 1.338-3 3 0 0.8887 0.3899 1.6762 1 2.2246v2.2754 1.5h4v-1.5-2.2754c0.6101-0.54839 1-1.3359 1-2.2246 0-0.2675-0.04623-0.52109-0.11133-0.76758l2.2461-2.2461c0.12912-9e-3 0.2538-0.0309 0.375-0.0625l0.77344 0.77344 0.0098 0.01 0.14453 0.14453-0.29102 0.29102c-0.09377 0.0937-0.14646 0.22092-0.14648 0.35351v2c2.8e-5 0.27613 0.22387 0.49998 0.5 0.5l2 4e-3c0.67616 0.01 0.67616-1.0096 0-1l-1.5-2e-3v-1.293l1.707-1.709h1.293v1.5c-0.0096 0.67617 1.0096 0.67617 1 0v-2c-2.8e-5 -0.27613-0.22387-0.49997-0.5-0.5h-2c-0.1326 3e-5 -0.25976 0.0527-0.35352 0.14649l-0.29492 0.29492-0.14453-0.14453-0.0098-0.01-0.77148-0.77148c0.04366-0.16425 0.07422-0.33313 0.07422-0.51177 0-1.108-0.892-2-2-2zm0 1c0.554 0 1 0.446 1 1s-0.446 1-1 1-1-0.446-1-1 0.446-1 1-1zm-5 4c1.108 0 2 0.892 2 2 0 0.36693-0.10429 0.705-0.27539 1-0.16975 0.29267-0.41275 0.53593-0.70117 0.71094-0.01474 9e-3 -0.02993 0.0169-0.04492 0.0254-0.11806 0.0675-0.24514 0.11985-0.37695 0.16211-0.03902 0.0123-0.07716 0.0252-0.11719 0.0352-0.15548 0.0392-0.31604 0.0663-0.48438 0.0663s-0.3289-0.0272-0.48438-0.0664c-0.04003-0.01-0.07817-0.023-0.11719-0.0352-0.13182-0.0423-0.25889-0.0947-0.37695-0.16211-0.01499-8e-3 -0.03018-0.0166-0.04492-0.0254-0.28843-0.17501-0.53143-0.41822-0.70117-0.71089-0.1711-0.295-0.27539-0.63307-0.27539-1 0-1.108 0.892-2 2-2zm0 1c-0.554 0-1 0.446-1 1s0.446 1 1 1 1-0.446 1-1-0.446-1-1-1zm-3 8s-1 0-1 1v1h8v-1s0-1-1-1h-6z" style="block-progression:tb;color-rendering:auto;color:#000000;enable-background:accumulate;fill-rule:evenodd;fill:#555;image-rendering:auto;isolation:auto;mix-blend-mode:normal;shape-rendering:auto;solid-color:#000000;text-decoration-color:#000000;text-decoration-line:none;text-decoration-style:solid;text-indent:0;text-transform:none;white-space:normal"/>
 </g>
</svg>
