<?xml version="1.0" encoding="UTF-8"?>
<!-- Created with Inkscape (http://www.inkscape.org/) -->
<svg id="svg7384" width="16" height="16" style="enable-background:new" version="1.1" xmlns="http://www.w3.org/2000/svg" xmlns:cc="http://creativecommons.org/ns#" xmlns:dc="http://purl.org/dc/elements/1.1/" xmlns:osb="http://www.openswatchbook.org/uri/2009/osb" xmlns:rdf="http://www.w3.org/1999/02/22-rdf-syntax-ns#">
 <metadata id="metadata90">
  <rdf:RDF>
   <cc:Work rdf:about="">
    <dc:format>image/svg+xml</dc:format>
    <dc:type rdf:resource="http://purl.org/dc/dcmitype/StillImage"/>
    <dc:title>Paper Symbolic Icon Theme</dc:title>
   </cc:Work>
  </rdf:RDF>
 </metadata>
 <title id="title8473">Paper Symbolic Icon Theme</title>
 <g id="g6058" transform="translate(-136,-140)">
  <path id="path4577" d="m141 141-4 2.5 3 2 4-2.5-3-2zm3 2 4 2.5 3-2-4-2.5-3 2zm4 2.5-4 2.5 3 2 4-2.5-3-2zm-4 2.5-4-2.5-3 2 4 2.5 3-2zm0 1.2012-2.9824 1.9883-1.0176-0.63672v0.14454 0.90039l4.0078 2.4023 3.9922-2.3945v-0.89844-0.1543l-1.0176 0.63672-2.9824-1.9883z" style="fill:#555"/>
 </g>
</svg>
