<?xml version="1.0" encoding="UTF-8"?>
<!-- Created with Inkscape (http://www.inkscape.org/) -->
<svg id="svg7384" width="16" height="16" style="enable-background:new" version="1.1" xmlns="http://www.w3.org/2000/svg" xmlns:cc="http://creativecommons.org/ns#" xmlns:dc="http://purl.org/dc/elements/1.1/" xmlns:osb="http://www.openswatchbook.org/uri/2009/osb" xmlns:rdf="http://www.w3.org/1999/02/22-rdf-syntax-ns#">
 <metadata id="metadata90">
  <rdf:RDF>
   <cc:Work rdf:about="">
    <dc:format>image/svg+xml</dc:format>
    <dc:type rdf:resource="http://purl.org/dc/dcmitype/StillImage"/>
    <dc:title>Paper Symbolic Icon Theme</dc:title>
   </cc:Work>
  </rdf:RDF>
 </metadata>
 <title id="title8473">Paper Symbolic Icon Theme</title>
 <g id="g6058" transform="translate(-64,-180)">
  <path id="path4835" d="m72 180a8 8 0 0 0-6.3047 3.0781l2.3848 4.1309a4 4 0 0 1 3.9199-3.209h6.9199a8 8 0 0 0-6.9199-4zm-6.9219 4.0098a8 8 0 0 0-1.0781 3.9902 8 8 0 0 0 6.8945 7.9141l2.3848-4.1289a4 4 0 0 1-1.2793 0.21484 4 4 0 0 1-3.459-2.002l-0.0059 2e-3 -3.457-5.9902zm6.9219 0.99023a3 3 0 0 0-3 3 3 3 0 0 0 3 3 3 3 0 0 0 3-3 3 3 0 0 0-3-3zm2.6387 0a4 4 0 0 1 1.3613 3 4 4 0 0 1-0.53906 1.998l0.0039 2e-3 -3.4629 6a8 8 0 0 0 7.9981-8 8 8 0 0 0-0.58984-3h-4.7715z" style="fill:#555"/>
 </g>
</svg>
