<?xml version="1.0" encoding="UTF-8"?>
<!-- Created with Inkscape (http://www.inkscape.org/) -->
<svg id="svg7384" width="15.991" height="16" style="enable-background:new" version="1.1" xmlns="http://www.w3.org/2000/svg" xmlns:cc="http://creativecommons.org/ns#" xmlns:dc="http://purl.org/dc/elements/1.1/" xmlns:osb="http://www.openswatchbook.org/uri/2009/osb" xmlns:rdf="http://www.w3.org/1999/02/22-rdf-syntax-ns#">
 <metadata id="metadata90">
  <rdf:RDF>
   <cc:Work rdf:about="">
    <dc:format>image/svg+xml</dc:format>
    <dc:type rdf:resource="http://purl.org/dc/dcmitype/StillImage"/>
    <dc:title>Paper Symbolic Icon Theme</dc:title>
   </cc:Work>
  </rdf:RDF>
 </metadata>
 <title id="title8473">Paper Symbolic Icon Theme</title>
 <g id="g6058" transform="translate(-256 -180)">
  <path id="path13254" d="m263.97 180.09c-0.45372 0-0.8954 0.16964-1.2431 0.52861l-6.1844 6.3744c-0.34078 0.35183-0.52155 0.81575-0.52832 1.2749-1e-4 7e-3 0 0.0234 0 0.031-6e-5 1.3661 3.6483 0.04 3.9779 1.7102 0.17841 0.90395-1.989 0.48981-1.989 1.3993 0 1.0669 3.0678 0.3332 3.9468 1.2127 0.36108 0.87948-1.1744 0.73753-0.90123 1.5547 0.51491 0.53164 1.6732 0.23016 1.8957 1.0883 0.25414 0.98026 1.9188 0.81115 2.8902 0.0931 0.51491-0.53162-0.79461-0.77436-0.27968-1.306 0.5149-0.53163 3.0582-0.4241 3.0767-1.5858-0.24306-0.72981-1.1974-0.84765-1.212-1.7102-0.0512-0.73049 0.78152-0.51683 3.4185-1.2438 1.0544-0.49441 1.0918-0.75739 1.0877-1.2127-8e-5 -9e-3 0-0.0214 0-0.031-6e-3 -0.45914-0.21862-0.92306-0.55938-1.2749l-6.1533-6.3744c-0.34769-0.35901-0.78937-0.52861-1.2431-0.52861zm0.1243 1.3371c0.46729 4e-3 1.7478 1.5841 2.8902 2.7674 0.32134 0.42998-0.1243 0.87065-0.1243 0.87065l-2.393-1.306-1.0566 1.4304-0.9323-1.3993-0.55941 2.1766-1.6471-0.99504 0.43509-0.55969 2.5794-2.6431c0.19783-0.2011 0.34932-0.3456 0.80799-0.34204zm7.0856 9.5772c-0.12567-4e-3 -0.25243 6e-3 -0.34185 0.031-0.16855 0.0486-0.96701 0.077-0.90123 0.68409 0.72342 0.3034 1.8264 0.54491 1.9579-0.0621 0.0988-0.4552-0.33771-0.63905-0.71479-0.65297zm-12.338 2.0211c-0.0702 8e-3 -0.11786 0.036-0.18645 0.0621-0.54864 0.20872-0.91657 0.64774-0.40402 0.83956 0.51262 0.1918 0.85588-0.0109 1.3052-0.24876 0.44942-0.23797 0.43651-0.28133 0.40402-0.37313-0.0623 0.0125-0.47095-0.24203-0.90124-0.27987-0.0717-6e-3 -0.14738-8e-3 -0.21755 0z" style="fill-rule:evenodd;fill:#555"/>
 </g>
</svg>
