<?xml version="1.0" encoding="UTF-8"?>
<!-- Created with Inkscape (http://www.inkscape.org/) -->
<svg id="svg7384" width="16" height="16" style="enable-background:new" version="1.1" xmlns="http://www.w3.org/2000/svg" xmlns:cc="http://creativecommons.org/ns#" xmlns:dc="http://purl.org/dc/elements/1.1/" xmlns:osb="http://www.openswatchbook.org/uri/2009/osb" xmlns:rdf="http://www.w3.org/1999/02/22-rdf-syntax-ns#">
 <metadata id="metadata90">
  <rdf:RDF>
   <cc:Work rdf:about="">
    <dc:format>image/svg+xml</dc:format>
    <dc:type rdf:resource="http://purl.org/dc/dcmitype/StillImage"/>
    <dc:title>Paper Symbolic Icon Theme</dc:title>
   </cc:Work>
  </rdf:RDF>
 </metadata>
 <title id="title8473">Paper Symbolic Icon Theme</title>
 <g id="g6058" transform="translate(-232,-52)">
  <path id="path6520" d="m236 56v5h8v-5zm1 1 3 1.5 2.998-1.5v1l-2.998 1.5-3-1.5z" style="fill:#555"/>
  <path id="path6513" d="m234 53c-1.0312 0.0625-1 1-1 1v8 4s-0.0312 0.9375 1 1h12c1 0 1-1 1-1v-4-8s0-1-1-1h-6zm1 2h10v7h-3c0 1.108-0.892 2-2 2s-2-0.892-2-2h-3z" style="fill-rule:evenodd;fill:#555"/>
 </g>
</svg>
