<?xml version="1.0" encoding="UTF-8"?>
<!-- Created with Inkscape (http://www.inkscape.org/) -->
<svg id="svg7384" width="16" height="16" style="enable-background:new" version="1.1" xmlns="http://www.w3.org/2000/svg" xmlns:cc="http://creativecommons.org/ns#" xmlns:dc="http://purl.org/dc/elements/1.1/" xmlns:osb="http://www.openswatchbook.org/uri/2009/osb" xmlns:rdf="http://www.w3.org/1999/02/22-rdf-syntax-ns#">
 <metadata id="metadata90">
  <rdf:RDF>
   <cc:Work rdf:about="">
    <dc:format>image/svg+xml</dc:format>
    <dc:type rdf:resource="http://purl.org/dc/dcmitype/StillImage"/>
    <dc:title>Paper Symbolic Icon Theme</dc:title>
   </cc:Work>
  </rdf:RDF>
 </metadata>
 <title id="title8473">Paper Symbolic Icon Theme</title>
 <g id="g6058" transform="translate(-207.97 -180)">
  <path id="path18821" d="m219.25 180.01c-0.27821 0.0752-0.37465 0.49932-0.15625 0.68727l3.1875 3.1865c0.21982 0.23021 0.69212 0.0371 0.6875-0.28116v-3.2177c-0.0122-0.20318-0.20269-0.37897-0.40625-0.37488h-3.1875c-0.0413-7e-3 -0.0837-7e-3 -0.125 0z" style="block-progression:tb;color:#000000;enable-background:accumulate;fill-opacity:.96863;fill:#555;text-decoration-line:none;text-indent:0;text-transform:none"/>
  <path id="path18823" d="m209.81 180.01c-0.4813 0.0874-0.85238 0.53322-0.84375 0.99967v13.995c6e-5 0.52341 0.51276 0.99962 1.0625 0.99967h11.875c0.54975-5e-5 1.0624-0.47626 1.0625-0.99967l-0.0312-7.5913c6e-3 -0.26397-0.0884-0.52879-0.28125-0.71852l-6.4062-6.4041c-0.19927-0.18364-0.47275-0.28728-0.75-0.28116h-5.4688c-0.0654-6e-3 -0.15331-6e-3 -0.21875 0zm1.1562 1.9993h4l3.5 3.4988 2.5 2.4992v5.998h-10v-11.996z" style="color:#000000;fill-opacity:.96863;fill:#555;text-decoration-line:none;text-indent:0pt;text-transform:none"/>
  <path id="path18853" d="m213 188.72v0.951c2.103 1.0946 4 0 4 0v-0.951s-2.0596 1.0573-4 0z" style="fill-opacity:.99608;fill:#555"/>
  <ellipse id="path18855" cx="215" cy="187" rx="2" ry="1" style="fill-opacity:.99608;fill:#555"/>
  <path id="path18864" d="m213 190.72v0.951c2.103 1.0946 4 0 4 0v-0.951s-2.0596 1.0573-4 0z" style="fill-opacity:.99608;fill:#555"/>
 </g>
</svg>
