<?xml version="1.0" encoding="UTF-8"?>
<!-- Created with Inkscape (http://www.inkscape.org/) -->
<svg id="svg7384" width="16" height="16" style="enable-background:new" version="1.1" xmlns="http://www.w3.org/2000/svg" xmlns:cc="http://creativecommons.org/ns#" xmlns:dc="http://purl.org/dc/elements/1.1/" xmlns:osb="http://www.openswatchbook.org/uri/2009/osb" xmlns:rdf="http://www.w3.org/1999/02/22-rdf-syntax-ns#">
 <metadata id="metadata90">
  <rdf:RDF>
   <cc:Work rdf:about="">
    <dc:format>image/svg+xml</dc:format>
    <dc:type rdf:resource="http://purl.org/dc/dcmitype/StillImage"/>
    <dc:title>Paper Symbolic Icon Theme</dc:title>
   </cc:Work>
  </rdf:RDF>
 </metadata>
 <title id="title8473">Paper Symbolic Icon Theme</title>
 <defs id="defs7386">
  <filter id="filter7554" style="color-interpolation-filters:sRGB">
   <feBlend id="feBlend7556" in2="BackgroundImage" mode="darken"/>
  </filter>
 </defs>
 <g id="g6058" transform="translate(-564,-528)">
  <path id="path9547-4" d="m577.03 528.81c2e-3 2e-3 0 0.7875 0 1.1875h-1.0312-2-4s-2 0-2 2v7h-0.96875v-1.1875l-3.0312 2.6875 3.0312 2.6875c-2e-3 -2e-3 0-0.7875 0-1.1875h6.9688s2 0 2-2c5e-3 -1.4281 0-5.1785 0-7h1.0312v1.1875l2.9688-2.6875zm-7.0312 3.1875h4v7h-4zm1 1v2h2v-2z" style="color:#000000;fill:#555"/>
 </g>
</svg>
