<?xml version="1.0" encoding="UTF-8"?>
<!-- Created with Inkscape (http://www.inkscape.org/) -->
<svg id="svg7384" width="16" height="16" style="enable-background:new" version="1.1" xmlns="http://www.w3.org/2000/svg" xmlns:cc="http://creativecommons.org/ns#" xmlns:dc="http://purl.org/dc/elements/1.1/" xmlns:osb="http://www.openswatchbook.org/uri/2009/osb" xmlns:rdf="http://www.w3.org/1999/02/22-rdf-syntax-ns#">
 <metadata id="metadata90">
  <rdf:RDF>
   <cc:Work rdf:about="">
    <dc:format>image/svg+xml</dc:format>
    <dc:type rdf:resource="http://purl.org/dc/dcmitype/StillImage"/>
    <dc:title>Paper Symbolic Icon Theme</dc:title>
   </cc:Work>
  </rdf:RDF>
 </metadata>
 <title id="title8473">Paper Symbolic Icon Theme</title>
 <defs id="defs7386">
  <filter id="filter7554" style="color-interpolation-filters:sRGB">
   <feBlend id="feBlend7556" in2="BackgroundImage" mode="darken"/>
  </filter>
 </defs>
 <g id="g6058" transform="translate(-484 -528)">
  <path id="path7769" d="m484 530.99v7h12.02zm2 3.0536 3.1156 1.9776h-3.1156z" style="fill:#555"/>
  <path id="path10698" d="m486 528c-1.9996 0-2 2-2 2h2 3.5 8.5v9l-8.418-0.0156c-0.0276 5e-3 -0.053 0.0156-0.082 0.0156h-5.5s0 2 2 2h12s1.9995 0 2-2v-9s4.1e-4 -2-2-2h-12zm1.9785 14s-0.97852 0-0.97852 1v0.99609h10v-0.99609c0-1-1-1-1-1h-8.0215z" style="fill:#555"/>
 </g>
</svg>
