<?xml version="1.0" encoding="UTF-8"?>
<!-- Created with Inkscape (http://www.inkscape.org/) -->
<svg id="svg7384" width="16" height="16" style="enable-background:new" version="1.1" xmlns="http://www.w3.org/2000/svg" xmlns:cc="http://creativecommons.org/ns#" xmlns:dc="http://purl.org/dc/elements/1.1/" xmlns:osb="http://www.openswatchbook.org/uri/2009/osb" xmlns:rdf="http://www.w3.org/1999/02/22-rdf-syntax-ns#">
 <metadata id="metadata90">
  <rdf:RDF>
   <cc:Work rdf:about="">
    <dc:format>image/svg+xml</dc:format>
    <dc:type rdf:resource="http://purl.org/dc/dcmitype/StillImage"/>
    <dc:title>Paper Symbolic Icon Theme</dc:title>
   </cc:Work>
  </rdf:RDF>
 </metadata>
 <title id="title8473">Paper Symbolic Icon Theme</title>
 <defs id="defs7386">
  <filter id="filter7554" color-interpolation-filters="sRGB">
   <feBlend id="feBlend7556" in2="BackgroundImage" mode="darken"/>
  </filter>
 </defs>
 <g id="g6058" transform="translate(-423.97 -548)">
  <path id="path8587" d="m431.97 549.01c-2.2028 0-3.9929 1.79-3.9929 3.9929s1.79 3.9929 3.9929 3.9929c2.2028 0 3.9928-1.79 3.9928-3.9929s-1.79-3.9929-3.9928-3.9929zm0 1.0524c1.6264 0 2.9405 1.3141 2.9405 2.9405s-1.3141 2.9405-2.9405 2.9405c-1.6264 0-2.9405-1.3141-2.9405-2.9405s1.3141-2.9405 2.9405-2.9405z" style="block-progression:tb;color:#000000;enable-background:new;fill:#555;text-indent:0;text-transform:none"/>
  <path id="path8591" d="m427.97 556.01c-2.2028 0-3.9929 1.79-3.9929 3.9929s1.79 3.9929 3.9929 3.9929c2.2028 0 3.9928-1.79 3.9928-3.9929s-1.79-3.9929-3.9928-3.9929zm0 1.0524c1.6264 0 2.9405 1.3141 2.9405 2.9405s-1.3141 2.9405-2.9405 2.9405c-1.6264 0-2.9405-1.3141-2.9405-2.9405s1.3141-2.9405 2.9405-2.9405z" style="block-progression:tb;color:#000000;enable-background:new;fill:#555;text-indent:0;text-transform:none"/>
  <path id="path8593-6" transform="matrix(.57131 0 0 .57131 441.11 376.61)" d="m-2 321a7 7 0 1 1-14 0 7 7 0 1 1 14 0z" style="color:#000000;enable-background:new;fill:#555"/>
  <path id="path8595" transform="matrix(.49524 0 0 .49524 432.43 401.03)" d="m-2 321a7 7 0 1 1-14 0 7 7 0 1 1 14 0z" style="color:#000000;enable-background:new;fill-opacity:.36404;fill:#555"/>
 </g>
</svg>
