<?xml version="1.0" encoding="UTF-8"?>
<!-- Created with Inkscape (http://www.inkscape.org/) -->
<svg id="svg7384" width="16" height="16" style="enable-background:new" version="1.1" xmlns="http://www.w3.org/2000/svg" xmlns:cc="http://creativecommons.org/ns#" xmlns:dc="http://purl.org/dc/elements/1.1/" xmlns:osb="http://www.openswatchbook.org/uri/2009/osb" xmlns:rdf="http://www.w3.org/1999/02/22-rdf-syntax-ns#">
 <metadata id="metadata90">
  <rdf:RDF>
   <cc:Work rdf:about="">
    <dc:format>image/svg+xml</dc:format>
    <dc:type rdf:resource="http://purl.org/dc/dcmitype/StillImage"/>
    <dc:title>Paper Symbolic Icon Theme</dc:title>
   </cc:Work>
  </rdf:RDF>
 </metadata>
 <title id="title8473">Paper Symbolic Icon Theme</title>
 <g id="g6058" transform="translate(-88 -140)">
  <path id="path5856" d="m90 142s-1 0-1 1v11s0 1 1 1h12s1 0 1-1v-9c0-1-1-1-1-1h-5l-2-2zm8.6257 5.9238c0.73619 0 0.19932 1.6278 0.79492 2.0606 0.59553 0.43265 1.9777-0.58096 2.2051 0.11914 0.22746 0.70034-1.4872 0.69229-1.7148 1.3926-0.22763 0.70031 1.1642 1.7021 0.56836 2.1348-0.59576 0.43256-1.1173-1.2012-1.8535-1.2012-0.73623 0-1.2578 1.6337-1.8535 1.2012-0.59588-0.43264 0.79599-1.4345 0.56836-2.1348-0.22762-0.70029-1.9423-0.69224-1.7148-1.3926 0.22738-0.7001 1.6096 0.31351 2.2051-0.11914 0.5956-0.43271 0.05873-2.0606 0.79492-2.0606z" style="block-progression:tb;color:#000000;enable-background:accumulate;fill:#555;text-decoration-line:none;text-indent:0;text-transform:none"/>
 </g>
</svg>
