<?xml version="1.0" encoding="UTF-8"?>
<!-- Created with Inkscape (http://www.inkscape.org/) -->
<svg id="svg7384" width="16" height="16.003" style="enable-background:new" version="1.1" xmlns="http://www.w3.org/2000/svg" xmlns:cc="http://creativecommons.org/ns#" xmlns:dc="http://purl.org/dc/elements/1.1/" xmlns:osb="http://www.openswatchbook.org/uri/2009/osb" xmlns:rdf="http://www.w3.org/1999/02/22-rdf-syntax-ns#">
 <metadata id="metadata90">
  <rdf:RDF>
   <cc:Work rdf:about="">
    <dc:format>image/svg+xml</dc:format>
    <dc:type rdf:resource="http://purl.org/dc/dcmitype/StillImage"/>
    <dc:title>Paper Symbolic Icon Theme</dc:title>
   </cc:Work>
  </rdf:RDF>
 </metadata>
 <title id="title8473">Paper Symbolic Icon Theme</title>
 <g id="g6058" transform="translate(-256 -75.997)">
  <path id="rect4265-3" d="m258 76s-2-0.0034-2 2v12c0 1.9966 2 2 2 2h12c0.0948-0.0034 2-0.0034 2-2v-12s0-2-2-2zm2.9062 3h6.1875c1.0561 0 1.9062 0.85019 1.9062 1.9062v0.1875c0 1.0561-0.85019 1.9062-1.9062 1.9062h-6.1875c-1.0561 0-1.9062-0.85019-1.9062-1.9062v-0.1875c0-1.0561 0.85019-1.9062 1.9062-1.9062zm0.0937 1c-0.55228 0-1 0.44772-1 1s0.44772 1 1 1 1-0.44772 1-1-0.44772-1-1-1zm-0.0566 5h6.1133c1.0767 0 1.9434 0.86668 1.9434 1.9434v0.11328c0 1.0767-0.86668 1.9434-1.9434 1.9434h-6.1133c-1.0767 0-1.9434-0.86668-1.9434-1.9434v-0.11328c1e-5 -1.0767 0.86669-1.9434 1.9434-1.9434zm6.0566 1c-0.55228 0-1 0.44772-1 1s0.44772 1 1 1 1-0.44772 1-1-0.44772-1-1-1z" style="enable-background:new;fill:#555"/>
 </g>
</svg>
