<?xml version="1.0" encoding="UTF-8"?>
<!-- Created with Inkscape (http://www.inkscape.org/) -->
<svg id="svg7384" width="16" height="16" style="enable-background:new" version="1.1" xmlns="http://www.w3.org/2000/svg" xmlns:cc="http://creativecommons.org/ns#" xmlns:dc="http://purl.org/dc/elements/1.1/" xmlns:osb="http://www.openswatchbook.org/uri/2009/osb" xmlns:rdf="http://www.w3.org/1999/02/22-rdf-syntax-ns#">
 <metadata id="metadata90">
  <rdf:RDF>
   <cc:Work rdf:about="">
    <dc:format>image/svg+xml</dc:format>
    <dc:type rdf:resource="http://purl.org/dc/dcmitype/StillImage"/>
    <dc:title>Paper Symbolic Icon Theme</dc:title>
   </cc:Work>
  </rdf:RDF>
 </metadata>
 <title id="title8473">Paper Symbolic Icon Theme</title>
 <g id="g6058" transform="translate(-160 -28)">
  <path id="rect3516" d="m162 29c-1.108 0-2 0.892-2 2v10c0 1.108 0.892 2 2 2h12c1.108 0 2-0.892 2-2v-10c0-1.108-0.892-2-2-2zm2 2h1v1c0.65424 0 1.2022 0.41808 1.4082 1h-1.4082v1c0.831 0 1.5 0.669 1.5 1.5s-0.669 1.5-1.5 1.5v1h-1v-1c-0.65424 0-1.2022-0.41808-1.4082-1h1.4082v-1c-0.831 0-1.5-0.669-1.5-1.5s0.669-1.5 1.5-1.5zm0 2c-0.277 0-0.5 0.223-0.5 0.5s0.223 0.5 0.5 0.5zm1 2v1c0.277 0 0.5-0.223 0.5-0.5s-0.223-0.5-0.5-0.5zm3 2h4v1h-4z" style="enable-background:new;fill:#555"/>
 </g>
</svg>
