<?xml version="1.0" encoding="UTF-8"?>
<!-- Created with Inkscape (http://www.inkscape.org/) -->
<svg id="svg7384" width="16" height="16.003" style="enable-background:new" version="1.1" xmlns="http://www.w3.org/2000/svg" xmlns:cc="http://creativecommons.org/ns#" xmlns:dc="http://purl.org/dc/elements/1.1/" xmlns:osb="http://www.openswatchbook.org/uri/2009/osb" xmlns:rdf="http://www.w3.org/1999/02/22-rdf-syntax-ns#">
 <metadata id="metadata90">
  <rdf:RDF>
   <cc:Work rdf:about="">
    <dc:format>image/svg+xml</dc:format>
    <dc:type rdf:resource="http://purl.org/dc/dcmitype/StillImage"/>
    <dc:title>Paper Symbolic Icon Theme</dc:title>
   </cc:Work>
  </rdf:RDF>
 </metadata>
 <title id="title8473">Paper Symbolic Icon Theme</title>
 <g id="g6058" transform="translate(-184 -75.997)">
  <path id="path8090" d="m192 76c-4.4183 0-8 3.5817-8 8 0 4.4183 3.5817 8 8 8 4.4183 0 8-3.5817 8-8 0-4.4183-3.5817-8-8-8zm4.8572 3.1429-3.25 6.4643-6.4643 3.25 3.25-6.4643 6.4643-3.25zm-4.8572 4c-0.47338 0-0.85714 0.38376-0.85714 0.85714s0.38376 0.85714 0.85714 0.85714c0.47339 0 0.85715-0.38376 0.85715-0.85714s-0.38376-0.85714-0.85715-0.85714z" style="color:#000000;enable-background:accumulate;fill:#555"/>
 </g>
</svg>
